%TF.GenerationSoftware,KiCad,Pcbnew,(7.0.0)*%
%TF.CreationDate,2023-04-29T18:10:18-05:00*%
%TF.ProjectId,WiHi,57694869-2e6b-4696-9361-645f70636258,-*%
%TF.SameCoordinates,PX795bdf0PY68e3130*%
%TF.FileFunction,Legend,Top*%
%TF.FilePolarity,Positive*%
%FSLAX46Y46*%
G04 Gerber Fmt 4.6, Leading zero omitted, Abs format (unit mm)*
G04 Created by KiCad (PCBNEW (7.0.0)) date 2023-04-29 18:10:18*
%MOMM*%
%LPD*%
G01*
G04 APERTURE LIST*
G04 Aperture macros list*
%AMRoundRect*
0 Rectangle with rounded corners*
0 $1 Rounding radius*
0 $2 $3 $4 $5 $6 $7 $8 $9 X,Y pos of 4 corners*
0 Add a 4 corners polygon primitive as box body*
4,1,4,$2,$3,$4,$5,$6,$7,$8,$9,$2,$3,0*
0 Add four circle primitives for the rounded corners*
1,1,$1+$1,$2,$3*
1,1,$1+$1,$4,$5*
1,1,$1+$1,$6,$7*
1,1,$1+$1,$8,$9*
0 Add four rect primitives between the rounded corners*
20,1,$1+$1,$2,$3,$4,$5,0*
20,1,$1+$1,$4,$5,$6,$7,0*
20,1,$1+$1,$6,$7,$8,$9,0*
20,1,$1+$1,$8,$9,$2,$3,0*%
%AMFreePoly0*
4,1,13,0.375000,1.525000,1.025000,1.525000,1.025000,-1.525000,0.375000,-1.525000,0.375000,-1.925000,-0.375000,-1.925000,-0.375000,-1.525000,-1.025000,-1.525000,-1.025000,1.525000,-0.375000,1.525000,-0.375000,1.925000,0.375000,1.925000,0.375000,1.525000,0.375000,1.525000,$1*%
G04 Aperture macros list end*
%ADD10C,0.150000*%
%ADD11C,0.120000*%
%ADD12RoundRect,0.250000X1.450000X-0.312500X1.450000X0.312500X-1.450000X0.312500X-1.450000X-0.312500X0*%
%ADD13R,1.500000X1.500000*%
%ADD14RoundRect,0.050400X0.249600X-0.069600X0.249600X0.069600X-0.249600X0.069600X-0.249600X-0.069600X0*%
%ADD15RoundRect,0.050400X0.069600X-0.249600X0.069600X0.249600X-0.069600X0.249600X-0.069600X-0.249600X0*%
%ADD16FreePoly0,90.000000*%
%ADD17RoundRect,0.050000X0.250000X-0.050000X0.250000X0.050000X-0.250000X0.050000X-0.250000X-0.050000X0*%
%ADD18RoundRect,0.200000X0.200000X0.275000X-0.200000X0.275000X-0.200000X-0.275000X0.200000X-0.275000X0*%
%ADD19RoundRect,0.200000X0.275000X-0.200000X0.275000X0.200000X-0.275000X0.200000X-0.275000X-0.200000X0*%
%ADD20RoundRect,0.200000X-0.200000X-0.275000X0.200000X-0.275000X0.200000X0.275000X-0.200000X0.275000X0*%
%ADD21RoundRect,0.218750X-0.256250X0.218750X-0.256250X-0.218750X0.256250X-0.218750X0.256250X0.218750X0*%
%ADD22RoundRect,0.225000X-0.250000X0.225000X-0.250000X-0.225000X0.250000X-0.225000X0.250000X0.225000X0*%
%ADD23RoundRect,0.225000X-0.225000X-0.250000X0.225000X-0.250000X0.225000X0.250000X-0.225000X0.250000X0*%
%ADD24RoundRect,0.225000X0.225000X0.250000X-0.225000X0.250000X-0.225000X-0.250000X0.225000X-0.250000X0*%
%ADD25RoundRect,0.225000X0.250000X-0.225000X0.250000X0.225000X-0.250000X0.225000X-0.250000X-0.225000X0*%
G04 APERTURE END LIST*
D10*
X2098561Y5114981D02*
X2003323Y5162600D01*
X2003323Y5162600D02*
X1908085Y5257839D01*
X1908085Y5257839D02*
X1765228Y5400696D01*
X1765228Y5400696D02*
X1669990Y5448315D01*
X1669990Y5448315D02*
X1574752Y5448315D01*
X1622371Y5210220D02*
X1527133Y5257839D01*
X1527133Y5257839D02*
X1431895Y5353077D01*
X1431895Y5353077D02*
X1384276Y5543553D01*
X1384276Y5543553D02*
X1384276Y5876886D01*
X1384276Y5876886D02*
X1431895Y6067362D01*
X1431895Y6067362D02*
X1527133Y6162600D01*
X1527133Y6162600D02*
X1622371Y6210220D01*
X1622371Y6210220D02*
X1812847Y6210220D01*
X1812847Y6210220D02*
X1908085Y6162600D01*
X1908085Y6162600D02*
X2003323Y6067362D01*
X2003323Y6067362D02*
X2050942Y5876886D01*
X2050942Y5876886D02*
X2050942Y5543553D01*
X2050942Y5543553D02*
X2003323Y5353077D01*
X2003323Y5353077D02*
X1908085Y5257839D01*
X1908085Y5257839D02*
X1812847Y5210220D01*
X1812847Y5210220D02*
X1622371Y5210220D01*
X2479514Y5210220D02*
X2479514Y5876886D01*
X2479514Y6210220D02*
X2431895Y6162600D01*
X2431895Y6162600D02*
X2479514Y6114981D01*
X2479514Y6114981D02*
X2527133Y6162600D01*
X2527133Y6162600D02*
X2479514Y6210220D01*
X2479514Y6210220D02*
X2479514Y6114981D01*
X3555704Y5210220D02*
X3555704Y6210220D01*
X3555704Y6210220D02*
X3936656Y6210220D01*
X3936656Y6210220D02*
X4031894Y6162600D01*
X4031894Y6162600D02*
X4079513Y6114981D01*
X4079513Y6114981D02*
X4127132Y6019743D01*
X4127132Y6019743D02*
X4127132Y5876886D01*
X4127132Y5876886D02*
X4079513Y5781648D01*
X4079513Y5781648D02*
X4031894Y5734029D01*
X4031894Y5734029D02*
X3936656Y5686410D01*
X3936656Y5686410D02*
X3555704Y5686410D01*
X4698561Y5210220D02*
X4603323Y5257839D01*
X4603323Y5257839D02*
X4555704Y5305458D01*
X4555704Y5305458D02*
X4508085Y5400696D01*
X4508085Y5400696D02*
X4508085Y5686410D01*
X4508085Y5686410D02*
X4555704Y5781648D01*
X4555704Y5781648D02*
X4603323Y5829267D01*
X4603323Y5829267D02*
X4698561Y5876886D01*
X4698561Y5876886D02*
X4841418Y5876886D01*
X4841418Y5876886D02*
X4936656Y5829267D01*
X4936656Y5829267D02*
X4984275Y5781648D01*
X4984275Y5781648D02*
X5031894Y5686410D01*
X5031894Y5686410D02*
X5031894Y5400696D01*
X5031894Y5400696D02*
X4984275Y5305458D01*
X4984275Y5305458D02*
X4936656Y5257839D01*
X4936656Y5257839D02*
X4841418Y5210220D01*
X4841418Y5210220D02*
X4698561Y5210220D01*
X5365228Y5876886D02*
X5555704Y5210220D01*
X5555704Y5210220D02*
X5746180Y5686410D01*
X5746180Y5686410D02*
X5936656Y5210220D01*
X5936656Y5210220D02*
X6127132Y5876886D01*
X6889037Y5257839D02*
X6793799Y5210220D01*
X6793799Y5210220D02*
X6603323Y5210220D01*
X6603323Y5210220D02*
X6508085Y5257839D01*
X6508085Y5257839D02*
X6460466Y5353077D01*
X6460466Y5353077D02*
X6460466Y5734029D01*
X6460466Y5734029D02*
X6508085Y5829267D01*
X6508085Y5829267D02*
X6603323Y5876886D01*
X6603323Y5876886D02*
X6793799Y5876886D01*
X6793799Y5876886D02*
X6889037Y5829267D01*
X6889037Y5829267D02*
X6936656Y5734029D01*
X6936656Y5734029D02*
X6936656Y5638791D01*
X6936656Y5638791D02*
X6460466Y5543553D01*
X7365228Y5210220D02*
X7365228Y5876886D01*
X7365228Y5686410D02*
X7412847Y5781648D01*
X7412847Y5781648D02*
X7460466Y5829267D01*
X7460466Y5829267D02*
X7555704Y5876886D01*
X7555704Y5876886D02*
X7650942Y5876886D01*
X9155704Y5210220D02*
X8822371Y5686410D01*
X8584276Y5210220D02*
X8584276Y6210220D01*
X8584276Y6210220D02*
X8965228Y6210220D01*
X8965228Y6210220D02*
X9060466Y6162600D01*
X9060466Y6162600D02*
X9108085Y6114981D01*
X9108085Y6114981D02*
X9155704Y6019743D01*
X9155704Y6019743D02*
X9155704Y5876886D01*
X9155704Y5876886D02*
X9108085Y5781648D01*
X9108085Y5781648D02*
X9060466Y5734029D01*
X9060466Y5734029D02*
X8965228Y5686410D01*
X8965228Y5686410D02*
X8584276Y5686410D01*
X9489038Y5210220D02*
X10012847Y5876886D01*
X9489038Y5876886D02*
X10012847Y5210220D01*
X10993800Y5210220D02*
X10993800Y6210220D01*
X10993800Y6210220D02*
X11231895Y6210220D01*
X11231895Y6210220D02*
X11374752Y6162600D01*
X11374752Y6162600D02*
X11469990Y6067362D01*
X11469990Y6067362D02*
X11517609Y5972124D01*
X11517609Y5972124D02*
X11565228Y5781648D01*
X11565228Y5781648D02*
X11565228Y5638791D01*
X11565228Y5638791D02*
X11517609Y5448315D01*
X11517609Y5448315D02*
X11469990Y5353077D01*
X11469990Y5353077D02*
X11374752Y5257839D01*
X11374752Y5257839D02*
X11231895Y5210220D01*
X11231895Y5210220D02*
X10993800Y5210220D01*
X12374752Y5257839D02*
X12279514Y5210220D01*
X12279514Y5210220D02*
X12089038Y5210220D01*
X12089038Y5210220D02*
X11993800Y5257839D01*
X11993800Y5257839D02*
X11946181Y5353077D01*
X11946181Y5353077D02*
X11946181Y5734029D01*
X11946181Y5734029D02*
X11993800Y5829267D01*
X11993800Y5829267D02*
X12089038Y5876886D01*
X12089038Y5876886D02*
X12279514Y5876886D01*
X12279514Y5876886D02*
X12374752Y5829267D01*
X12374752Y5829267D02*
X12422371Y5734029D01*
X12422371Y5734029D02*
X12422371Y5638791D01*
X12422371Y5638791D02*
X11946181Y5543553D01*
X12755705Y5876886D02*
X12993800Y5210220D01*
X12993800Y5210220D02*
X13231895Y5876886D01*
X2003323Y3590220D02*
X1669990Y4066410D01*
X1431895Y3590220D02*
X1431895Y4590220D01*
X1431895Y4590220D02*
X1812847Y4590220D01*
X1812847Y4590220D02*
X1908085Y4542600D01*
X1908085Y4542600D02*
X1955704Y4494981D01*
X1955704Y4494981D02*
X2003323Y4399743D01*
X2003323Y4399743D02*
X2003323Y4256886D01*
X2003323Y4256886D02*
X1955704Y4161648D01*
X1955704Y4161648D02*
X1908085Y4114029D01*
X1908085Y4114029D02*
X1812847Y4066410D01*
X1812847Y4066410D02*
X1431895Y4066410D01*
X2812847Y3637839D02*
X2717609Y3590220D01*
X2717609Y3590220D02*
X2527133Y3590220D01*
X2527133Y3590220D02*
X2431895Y3637839D01*
X2431895Y3637839D02*
X2384276Y3733077D01*
X2384276Y3733077D02*
X2384276Y4114029D01*
X2384276Y4114029D02*
X2431895Y4209267D01*
X2431895Y4209267D02*
X2527133Y4256886D01*
X2527133Y4256886D02*
X2717609Y4256886D01*
X2717609Y4256886D02*
X2812847Y4209267D01*
X2812847Y4209267D02*
X2860466Y4114029D01*
X2860466Y4114029D02*
X2860466Y4018791D01*
X2860466Y4018791D02*
X2384276Y3923553D01*
X3193800Y4256886D02*
X3431895Y3590220D01*
X3431895Y3590220D02*
X3669990Y4256886D01*
X4650943Y3971172D02*
X5412848Y3971172D01*
X1431895Y1970220D02*
X1431895Y2970220D01*
X1431895Y2970220D02*
X1669990Y2970220D01*
X1669990Y2970220D02*
X1812847Y2922600D01*
X1812847Y2922600D02*
X1908085Y2827362D01*
X1908085Y2827362D02*
X1955704Y2732124D01*
X1955704Y2732124D02*
X2003323Y2541648D01*
X2003323Y2541648D02*
X2003323Y2398791D01*
X2003323Y2398791D02*
X1955704Y2208315D01*
X1955704Y2208315D02*
X1908085Y2113077D01*
X1908085Y2113077D02*
X1812847Y2017839D01*
X1812847Y2017839D02*
X1669990Y1970220D01*
X1669990Y1970220D02*
X1431895Y1970220D01*
X2336657Y2636886D02*
X2574752Y1970220D01*
X2812847Y2636886D02*
X2574752Y1970220D01*
X2574752Y1970220D02*
X2479514Y1732124D01*
X2479514Y1732124D02*
X2431895Y1684505D01*
X2431895Y1684505D02*
X2336657Y1636886D01*
X3336657Y1970220D02*
X3241419Y2017839D01*
X3241419Y2017839D02*
X3193800Y2113077D01*
X3193800Y2113077D02*
X3193800Y2970220D01*
X4146181Y1970220D02*
X4146181Y2494029D01*
X4146181Y2494029D02*
X4098562Y2589267D01*
X4098562Y2589267D02*
X4003324Y2636886D01*
X4003324Y2636886D02*
X3812848Y2636886D01*
X3812848Y2636886D02*
X3717610Y2589267D01*
X4146181Y2017839D02*
X4050943Y1970220D01*
X4050943Y1970220D02*
X3812848Y1970220D01*
X3812848Y1970220D02*
X3717610Y2017839D01*
X3717610Y2017839D02*
X3669991Y2113077D01*
X3669991Y2113077D02*
X3669991Y2208315D01*
X3669991Y2208315D02*
X3717610Y2303553D01*
X3717610Y2303553D02*
X3812848Y2351172D01*
X3812848Y2351172D02*
X4050943Y2351172D01*
X4050943Y2351172D02*
X4146181Y2398791D01*
X4622372Y2636886D02*
X4622372Y1970220D01*
X4622372Y2541648D02*
X4669991Y2589267D01*
X4669991Y2589267D02*
X4765229Y2636886D01*
X4765229Y2636886D02*
X4908086Y2636886D01*
X4908086Y2636886D02*
X5003324Y2589267D01*
X5003324Y2589267D02*
X5050943Y2494029D01*
X5050943Y2494029D02*
X5050943Y1970220D01*
X6650943Y2922600D02*
X6555705Y2970220D01*
X6555705Y2970220D02*
X6412848Y2970220D01*
X6412848Y2970220D02*
X6269991Y2922600D01*
X6269991Y2922600D02*
X6174753Y2827362D01*
X6174753Y2827362D02*
X6127134Y2732124D01*
X6127134Y2732124D02*
X6079515Y2541648D01*
X6079515Y2541648D02*
X6079515Y2398791D01*
X6079515Y2398791D02*
X6127134Y2208315D01*
X6127134Y2208315D02*
X6174753Y2113077D01*
X6174753Y2113077D02*
X6269991Y2017839D01*
X6269991Y2017839D02*
X6412848Y1970220D01*
X6412848Y1970220D02*
X6508086Y1970220D01*
X6508086Y1970220D02*
X6650943Y2017839D01*
X6650943Y2017839D02*
X6698562Y2065458D01*
X6698562Y2065458D02*
X6698562Y2398791D01*
X6698562Y2398791D02*
X6508086Y2398791D01*
X7727134Y2351172D02*
X8489039Y2351172D01*
X9993800Y2636886D02*
X9993800Y1970220D01*
X9755705Y3017839D02*
X9517610Y2303553D01*
X9517610Y2303553D02*
X10136657Y2303553D01*
X11231895Y3017839D02*
X10374753Y1732124D01*
X11517610Y2874981D02*
X11565229Y2922600D01*
X11565229Y2922600D02*
X11660467Y2970220D01*
X11660467Y2970220D02*
X11898562Y2970220D01*
X11898562Y2970220D02*
X11993800Y2922600D01*
X11993800Y2922600D02*
X12041419Y2874981D01*
X12041419Y2874981D02*
X12089038Y2779743D01*
X12089038Y2779743D02*
X12089038Y2684505D01*
X12089038Y2684505D02*
X12041419Y2541648D01*
X12041419Y2541648D02*
X11469991Y1970220D01*
X11469991Y1970220D02*
X12089038Y1970220D01*
X12565229Y1970220D02*
X12755705Y1970220D01*
X12755705Y1970220D02*
X12850943Y2017839D01*
X12850943Y2017839D02*
X12898562Y2065458D01*
X12898562Y2065458D02*
X12993800Y2208315D01*
X12993800Y2208315D02*
X13041419Y2398791D01*
X13041419Y2398791D02*
X13041419Y2779743D01*
X13041419Y2779743D02*
X12993800Y2874981D01*
X12993800Y2874981D02*
X12946181Y2922600D01*
X12946181Y2922600D02*
X12850943Y2970220D01*
X12850943Y2970220D02*
X12660467Y2970220D01*
X12660467Y2970220D02*
X12565229Y2922600D01*
X12565229Y2922600D02*
X12517610Y2874981D01*
X12517610Y2874981D02*
X12469991Y2779743D01*
X12469991Y2779743D02*
X12469991Y2541648D01*
X12469991Y2541648D02*
X12517610Y2446410D01*
X12517610Y2446410D02*
X12565229Y2398791D01*
X12565229Y2398791D02*
X12660467Y2351172D01*
X12660467Y2351172D02*
X12850943Y2351172D01*
X12850943Y2351172D02*
X12946181Y2398791D01*
X12946181Y2398791D02*
X12993800Y2446410D01*
X12993800Y2446410D02*
X13041419Y2541648D01*
X14184276Y3017839D02*
X13327134Y1732124D01*
X14469991Y2874981D02*
X14517610Y2922600D01*
X14517610Y2922600D02*
X14612848Y2970220D01*
X14612848Y2970220D02*
X14850943Y2970220D01*
X14850943Y2970220D02*
X14946181Y2922600D01*
X14946181Y2922600D02*
X14993800Y2874981D01*
X14993800Y2874981D02*
X15041419Y2779743D01*
X15041419Y2779743D02*
X15041419Y2684505D01*
X15041419Y2684505D02*
X14993800Y2541648D01*
X14993800Y2541648D02*
X14422372Y1970220D01*
X14422372Y1970220D02*
X15041419Y1970220D01*
X15374753Y2970220D02*
X15993800Y2970220D01*
X15993800Y2970220D02*
X15660467Y2589267D01*
X15660467Y2589267D02*
X15803324Y2589267D01*
X15803324Y2589267D02*
X15898562Y2541648D01*
X15898562Y2541648D02*
X15946181Y2494029D01*
X15946181Y2494029D02*
X15993800Y2398791D01*
X15993800Y2398791D02*
X15993800Y2160696D01*
X15993800Y2160696D02*
X15946181Y2065458D01*
X15946181Y2065458D02*
X15898562Y2017839D01*
X15898562Y2017839D02*
X15803324Y1970220D01*
X15803324Y1970220D02*
X15517610Y1970220D01*
X15517610Y1970220D02*
X15422372Y2017839D01*
X15422372Y2017839D02*
X15374753Y2065458D01*
%TO.C,Coil*%
X3167142Y18523858D02*
X3119523Y18476239D01*
X3119523Y18476239D02*
X2976666Y18428620D01*
X2976666Y18428620D02*
X2881428Y18428620D01*
X2881428Y18428620D02*
X2738571Y18476239D01*
X2738571Y18476239D02*
X2643333Y18571477D01*
X2643333Y18571477D02*
X2595714Y18666715D01*
X2595714Y18666715D02*
X2548095Y18857191D01*
X2548095Y18857191D02*
X2548095Y19000048D01*
X2548095Y19000048D02*
X2595714Y19190524D01*
X2595714Y19190524D02*
X2643333Y19285762D01*
X2643333Y19285762D02*
X2738571Y19381000D01*
X2738571Y19381000D02*
X2881428Y19428620D01*
X2881428Y19428620D02*
X2976666Y19428620D01*
X2976666Y19428620D02*
X3119523Y19381000D01*
X3119523Y19381000D02*
X3167142Y19333381D01*
X3738571Y18428620D02*
X3643333Y18476239D01*
X3643333Y18476239D02*
X3595714Y18523858D01*
X3595714Y18523858D02*
X3548095Y18619096D01*
X3548095Y18619096D02*
X3548095Y18904810D01*
X3548095Y18904810D02*
X3595714Y19000048D01*
X3595714Y19000048D02*
X3643333Y19047667D01*
X3643333Y19047667D02*
X3738571Y19095286D01*
X3738571Y19095286D02*
X3881428Y19095286D01*
X3881428Y19095286D02*
X3976666Y19047667D01*
X3976666Y19047667D02*
X4024285Y19000048D01*
X4024285Y19000048D02*
X4071904Y18904810D01*
X4071904Y18904810D02*
X4071904Y18619096D01*
X4071904Y18619096D02*
X4024285Y18523858D01*
X4024285Y18523858D02*
X3976666Y18476239D01*
X3976666Y18476239D02*
X3881428Y18428620D01*
X3881428Y18428620D02*
X3738571Y18428620D01*
X4500476Y18428620D02*
X4500476Y19095286D01*
X4500476Y19428620D02*
X4452857Y19381000D01*
X4452857Y19381000D02*
X4500476Y19333381D01*
X4500476Y19333381D02*
X4548095Y19381000D01*
X4548095Y19381000D02*
X4500476Y19428620D01*
X4500476Y19428620D02*
X4500476Y19333381D01*
X5119523Y18428620D02*
X5024285Y18476239D01*
X5024285Y18476239D02*
X4976666Y18571477D01*
X4976666Y18571477D02*
X4976666Y19428620D01*
%TO.C,EN2*%
X46283714Y22000429D02*
X46617047Y22000429D01*
X46759904Y21476620D02*
X46283714Y21476620D01*
X46283714Y21476620D02*
X46283714Y22476620D01*
X46283714Y22476620D02*
X46759904Y22476620D01*
X47188476Y21476620D02*
X47188476Y22476620D01*
X47188476Y22476620D02*
X47759904Y21476620D01*
X47759904Y21476620D02*
X47759904Y22476620D01*
X48188476Y22381381D02*
X48236095Y22429000D01*
X48236095Y22429000D02*
X48331333Y22476620D01*
X48331333Y22476620D02*
X48569428Y22476620D01*
X48569428Y22476620D02*
X48664666Y22429000D01*
X48664666Y22429000D02*
X48712285Y22381381D01*
X48712285Y22381381D02*
X48759904Y22286143D01*
X48759904Y22286143D02*
X48759904Y22190905D01*
X48759904Y22190905D02*
X48712285Y22048048D01*
X48712285Y22048048D02*
X48140857Y21476620D01*
X48140857Y21476620D02*
X48759904Y21476620D01*
%TO.C,EN1*%
X46283714Y14126429D02*
X46617047Y14126429D01*
X46759904Y13602620D02*
X46283714Y13602620D01*
X46283714Y13602620D02*
X46283714Y14602620D01*
X46283714Y14602620D02*
X46759904Y14602620D01*
X47188476Y13602620D02*
X47188476Y14602620D01*
X47188476Y14602620D02*
X47759904Y13602620D01*
X47759904Y13602620D02*
X47759904Y14602620D01*
X48759904Y13602620D02*
X48188476Y13602620D01*
X48474190Y13602620D02*
X48474190Y14602620D01*
X48474190Y14602620D02*
X48378952Y14459762D01*
X48378952Y14459762D02*
X48283714Y14364524D01*
X48283714Y14364524D02*
X48188476Y14316905D01*
%TO.C,U1*%
X25654095Y21460620D02*
X25654095Y20651096D01*
X25654095Y20651096D02*
X25701714Y20555858D01*
X25701714Y20555858D02*
X25749333Y20508239D01*
X25749333Y20508239D02*
X25844571Y20460620D01*
X25844571Y20460620D02*
X26035047Y20460620D01*
X26035047Y20460620D02*
X26130285Y20508239D01*
X26130285Y20508239D02*
X26177904Y20555858D01*
X26177904Y20555858D02*
X26225523Y20651096D01*
X26225523Y20651096D02*
X26225523Y21460620D01*
X27225523Y20460620D02*
X26654095Y20460620D01*
X26939809Y20460620D02*
X26939809Y21460620D01*
X26939809Y21460620D02*
X26844571Y21317762D01*
X26844571Y21317762D02*
X26749333Y21222524D01*
X26749333Y21222524D02*
X26654095Y21174905D01*
%TO.C,GND*%
X30530895Y1829600D02*
X30435657Y1877220D01*
X30435657Y1877220D02*
X30292800Y1877220D01*
X30292800Y1877220D02*
X30149943Y1829600D01*
X30149943Y1829600D02*
X30054705Y1734362D01*
X30054705Y1734362D02*
X30007086Y1639124D01*
X30007086Y1639124D02*
X29959467Y1448648D01*
X29959467Y1448648D02*
X29959467Y1305791D01*
X29959467Y1305791D02*
X30007086Y1115315D01*
X30007086Y1115315D02*
X30054705Y1020077D01*
X30054705Y1020077D02*
X30149943Y924839D01*
X30149943Y924839D02*
X30292800Y877220D01*
X30292800Y877220D02*
X30388038Y877220D01*
X30388038Y877220D02*
X30530895Y924839D01*
X30530895Y924839D02*
X30578514Y972458D01*
X30578514Y972458D02*
X30578514Y1305791D01*
X30578514Y1305791D02*
X30388038Y1305791D01*
X31007086Y877220D02*
X31007086Y1877220D01*
X31007086Y1877220D02*
X31578514Y877220D01*
X31578514Y877220D02*
X31578514Y1877220D01*
X32054705Y877220D02*
X32054705Y1877220D01*
X32054705Y1877220D02*
X32292800Y1877220D01*
X32292800Y1877220D02*
X32435657Y1829600D01*
X32435657Y1829600D02*
X32530895Y1734362D01*
X32530895Y1734362D02*
X32578514Y1639124D01*
X32578514Y1639124D02*
X32626133Y1448648D01*
X32626133Y1448648D02*
X32626133Y1305791D01*
X32626133Y1305791D02*
X32578514Y1115315D01*
X32578514Y1115315D02*
X32530895Y1020077D01*
X32530895Y1020077D02*
X32435657Y924839D01*
X32435657Y924839D02*
X32292800Y877220D01*
X32292800Y877220D02*
X32054705Y877220D01*
%TO.C,5V*%
X22059923Y2004220D02*
X21583733Y2004220D01*
X21583733Y2004220D02*
X21536114Y1528029D01*
X21536114Y1528029D02*
X21583733Y1575648D01*
X21583733Y1575648D02*
X21678971Y1623267D01*
X21678971Y1623267D02*
X21917066Y1623267D01*
X21917066Y1623267D02*
X22012304Y1575648D01*
X22012304Y1575648D02*
X22059923Y1528029D01*
X22059923Y1528029D02*
X22107542Y1432791D01*
X22107542Y1432791D02*
X22107542Y1194696D01*
X22107542Y1194696D02*
X22059923Y1099458D01*
X22059923Y1099458D02*
X22012304Y1051839D01*
X22012304Y1051839D02*
X21917066Y1004220D01*
X21917066Y1004220D02*
X21678971Y1004220D01*
X21678971Y1004220D02*
X21583733Y1051839D01*
X21583733Y1051839D02*
X21536114Y1099458D01*
X22393257Y2004220D02*
X22726590Y1004220D01*
X22726590Y1004220D02*
X23059923Y2004220D01*
%TO.C,R7*%
X39457333Y19952620D02*
X39124000Y20428810D01*
X38885905Y19952620D02*
X38885905Y20952620D01*
X38885905Y20952620D02*
X39266857Y20952620D01*
X39266857Y20952620D02*
X39362095Y20905000D01*
X39362095Y20905000D02*
X39409714Y20857381D01*
X39409714Y20857381D02*
X39457333Y20762143D01*
X39457333Y20762143D02*
X39457333Y20619286D01*
X39457333Y20619286D02*
X39409714Y20524048D01*
X39409714Y20524048D02*
X39362095Y20476429D01*
X39362095Y20476429D02*
X39266857Y20428810D01*
X39266857Y20428810D02*
X38885905Y20428810D01*
X39790667Y20952620D02*
X40457333Y20952620D01*
X40457333Y20952620D02*
X40028762Y19952620D01*
%TO.C,R6*%
X23963333Y27826620D02*
X23630000Y28302810D01*
X23391905Y27826620D02*
X23391905Y28826620D01*
X23391905Y28826620D02*
X23772857Y28826620D01*
X23772857Y28826620D02*
X23868095Y28779000D01*
X23868095Y28779000D02*
X23915714Y28731381D01*
X23915714Y28731381D02*
X23963333Y28636143D01*
X23963333Y28636143D02*
X23963333Y28493286D01*
X23963333Y28493286D02*
X23915714Y28398048D01*
X23915714Y28398048D02*
X23868095Y28350429D01*
X23868095Y28350429D02*
X23772857Y28302810D01*
X23772857Y28302810D02*
X23391905Y28302810D01*
X24820476Y28826620D02*
X24630000Y28826620D01*
X24630000Y28826620D02*
X24534762Y28779000D01*
X24534762Y28779000D02*
X24487143Y28731381D01*
X24487143Y28731381D02*
X24391905Y28588524D01*
X24391905Y28588524D02*
X24344286Y28398048D01*
X24344286Y28398048D02*
X24344286Y28017096D01*
X24344286Y28017096D02*
X24391905Y27921858D01*
X24391905Y27921858D02*
X24439524Y27874239D01*
X24439524Y27874239D02*
X24534762Y27826620D01*
X24534762Y27826620D02*
X24725238Y27826620D01*
X24725238Y27826620D02*
X24820476Y27874239D01*
X24820476Y27874239D02*
X24868095Y27921858D01*
X24868095Y27921858D02*
X24915714Y28017096D01*
X24915714Y28017096D02*
X24915714Y28255191D01*
X24915714Y28255191D02*
X24868095Y28350429D01*
X24868095Y28350429D02*
X24820476Y28398048D01*
X24820476Y28398048D02*
X24725238Y28445667D01*
X24725238Y28445667D02*
X24534762Y28445667D01*
X24534762Y28445667D02*
X24439524Y28398048D01*
X24439524Y28398048D02*
X24391905Y28350429D01*
X24391905Y28350429D02*
X24344286Y28255191D01*
%TO.C,R5*%
X34123333Y24270620D02*
X33790000Y24746810D01*
X33551905Y24270620D02*
X33551905Y25270620D01*
X33551905Y25270620D02*
X33932857Y25270620D01*
X33932857Y25270620D02*
X34028095Y25223000D01*
X34028095Y25223000D02*
X34075714Y25175381D01*
X34075714Y25175381D02*
X34123333Y25080143D01*
X34123333Y25080143D02*
X34123333Y24937286D01*
X34123333Y24937286D02*
X34075714Y24842048D01*
X34075714Y24842048D02*
X34028095Y24794429D01*
X34028095Y24794429D02*
X33932857Y24746810D01*
X33932857Y24746810D02*
X33551905Y24746810D01*
X35028095Y25270620D02*
X34551905Y25270620D01*
X34551905Y25270620D02*
X34504286Y24794429D01*
X34504286Y24794429D02*
X34551905Y24842048D01*
X34551905Y24842048D02*
X34647143Y24889667D01*
X34647143Y24889667D02*
X34885238Y24889667D01*
X34885238Y24889667D02*
X34980476Y24842048D01*
X34980476Y24842048D02*
X35028095Y24794429D01*
X35028095Y24794429D02*
X35075714Y24699191D01*
X35075714Y24699191D02*
X35075714Y24461096D01*
X35075714Y24461096D02*
X35028095Y24365858D01*
X35028095Y24365858D02*
X34980476Y24318239D01*
X34980476Y24318239D02*
X34885238Y24270620D01*
X34885238Y24270620D02*
X34647143Y24270620D01*
X34647143Y24270620D02*
X34551905Y24318239D01*
X34551905Y24318239D02*
X34504286Y24365858D01*
%TO.C,R4*%
X18985580Y9993334D02*
X18509390Y9660001D01*
X18985580Y9421906D02*
X17985580Y9421906D01*
X17985580Y9421906D02*
X17985580Y9802858D01*
X17985580Y9802858D02*
X18033200Y9898096D01*
X18033200Y9898096D02*
X18080819Y9945715D01*
X18080819Y9945715D02*
X18176057Y9993334D01*
X18176057Y9993334D02*
X18318914Y9993334D01*
X18318914Y9993334D02*
X18414152Y9945715D01*
X18414152Y9945715D02*
X18461771Y9898096D01*
X18461771Y9898096D02*
X18509390Y9802858D01*
X18509390Y9802858D02*
X18509390Y9421906D01*
X18318914Y10850477D02*
X18985580Y10850477D01*
X17937961Y10612382D02*
X18652247Y10374287D01*
X18652247Y10374287D02*
X18652247Y10993334D01*
%TO.C,R3*%
X23963333Y26048620D02*
X23630000Y26524810D01*
X23391905Y26048620D02*
X23391905Y27048620D01*
X23391905Y27048620D02*
X23772857Y27048620D01*
X23772857Y27048620D02*
X23868095Y27001000D01*
X23868095Y27001000D02*
X23915714Y26953381D01*
X23915714Y26953381D02*
X23963333Y26858143D01*
X23963333Y26858143D02*
X23963333Y26715286D01*
X23963333Y26715286D02*
X23915714Y26620048D01*
X23915714Y26620048D02*
X23868095Y26572429D01*
X23868095Y26572429D02*
X23772857Y26524810D01*
X23772857Y26524810D02*
X23391905Y26524810D01*
X24296667Y27048620D02*
X24915714Y27048620D01*
X24915714Y27048620D02*
X24582381Y26667667D01*
X24582381Y26667667D02*
X24725238Y26667667D01*
X24725238Y26667667D02*
X24820476Y26620048D01*
X24820476Y26620048D02*
X24868095Y26572429D01*
X24868095Y26572429D02*
X24915714Y26477191D01*
X24915714Y26477191D02*
X24915714Y26239096D01*
X24915714Y26239096D02*
X24868095Y26143858D01*
X24868095Y26143858D02*
X24820476Y26096239D01*
X24820476Y26096239D02*
X24725238Y26048620D01*
X24725238Y26048620D02*
X24439524Y26048620D01*
X24439524Y26048620D02*
X24344286Y26096239D01*
X24344286Y26096239D02*
X24296667Y26143858D01*
%TO.C,R2*%
X34123333Y22746620D02*
X33790000Y23222810D01*
X33551905Y22746620D02*
X33551905Y23746620D01*
X33551905Y23746620D02*
X33932857Y23746620D01*
X33932857Y23746620D02*
X34028095Y23699000D01*
X34028095Y23699000D02*
X34075714Y23651381D01*
X34075714Y23651381D02*
X34123333Y23556143D01*
X34123333Y23556143D02*
X34123333Y23413286D01*
X34123333Y23413286D02*
X34075714Y23318048D01*
X34075714Y23318048D02*
X34028095Y23270429D01*
X34028095Y23270429D02*
X33932857Y23222810D01*
X33932857Y23222810D02*
X33551905Y23222810D01*
X34504286Y23651381D02*
X34551905Y23699000D01*
X34551905Y23699000D02*
X34647143Y23746620D01*
X34647143Y23746620D02*
X34885238Y23746620D01*
X34885238Y23746620D02*
X34980476Y23699000D01*
X34980476Y23699000D02*
X35028095Y23651381D01*
X35028095Y23651381D02*
X35075714Y23556143D01*
X35075714Y23556143D02*
X35075714Y23460905D01*
X35075714Y23460905D02*
X35028095Y23318048D01*
X35028095Y23318048D02*
X34456667Y22746620D01*
X34456667Y22746620D02*
X35075714Y22746620D01*
%TO.C,R1*%
X31355380Y17867334D02*
X30879190Y17534001D01*
X31355380Y17295906D02*
X30355380Y17295906D01*
X30355380Y17295906D02*
X30355380Y17676858D01*
X30355380Y17676858D02*
X30403000Y17772096D01*
X30403000Y17772096D02*
X30450619Y17819715D01*
X30450619Y17819715D02*
X30545857Y17867334D01*
X30545857Y17867334D02*
X30688714Y17867334D01*
X30688714Y17867334D02*
X30783952Y17819715D01*
X30783952Y17819715D02*
X30831571Y17772096D01*
X30831571Y17772096D02*
X30879190Y17676858D01*
X30879190Y17676858D02*
X30879190Y17295906D01*
X31355380Y18819715D02*
X31355380Y18248287D01*
X31355380Y18534001D02*
X30355380Y18534001D01*
X30355380Y18534001D02*
X30498238Y18438763D01*
X30498238Y18438763D02*
X30593476Y18343525D01*
X30593476Y18343525D02*
X30641095Y18248287D01*
%TO.C,NTC1*%
X38997143Y21984620D02*
X38997143Y22984620D01*
X38997143Y22984620D02*
X39568571Y21984620D01*
X39568571Y21984620D02*
X39568571Y22984620D01*
X39901905Y22984620D02*
X40473333Y22984620D01*
X40187619Y21984620D02*
X40187619Y22984620D01*
X41378095Y22079858D02*
X41330476Y22032239D01*
X41330476Y22032239D02*
X41187619Y21984620D01*
X41187619Y21984620D02*
X41092381Y21984620D01*
X41092381Y21984620D02*
X40949524Y22032239D01*
X40949524Y22032239D02*
X40854286Y22127477D01*
X40854286Y22127477D02*
X40806667Y22222715D01*
X40806667Y22222715D02*
X40759048Y22413191D01*
X40759048Y22413191D02*
X40759048Y22556048D01*
X40759048Y22556048D02*
X40806667Y22746524D01*
X40806667Y22746524D02*
X40854286Y22841762D01*
X40854286Y22841762D02*
X40949524Y22937000D01*
X40949524Y22937000D02*
X41092381Y22984620D01*
X41092381Y22984620D02*
X41187619Y22984620D01*
X41187619Y22984620D02*
X41330476Y22937000D01*
X41330476Y22937000D02*
X41378095Y22889381D01*
X42330476Y21984620D02*
X41759048Y21984620D01*
X42044762Y21984620D02*
X42044762Y22984620D01*
X42044762Y22984620D02*
X41949524Y22841762D01*
X41949524Y22841762D02*
X41854286Y22746524D01*
X41854286Y22746524D02*
X41759048Y22698905D01*
%TO.C,D1*%
X19010980Y6373906D02*
X18010980Y6373906D01*
X18010980Y6373906D02*
X18010980Y6612001D01*
X18010980Y6612001D02*
X18058600Y6754858D01*
X18058600Y6754858D02*
X18153838Y6850096D01*
X18153838Y6850096D02*
X18249076Y6897715D01*
X18249076Y6897715D02*
X18439552Y6945334D01*
X18439552Y6945334D02*
X18582409Y6945334D01*
X18582409Y6945334D02*
X18772885Y6897715D01*
X18772885Y6897715D02*
X18868123Y6850096D01*
X18868123Y6850096D02*
X18963361Y6754858D01*
X18963361Y6754858D02*
X19010980Y6612001D01*
X19010980Y6612001D02*
X19010980Y6373906D01*
X19010980Y7897715D02*
X19010980Y7326287D01*
X19010980Y7612001D02*
X18010980Y7612001D01*
X18010980Y7612001D02*
X18153838Y7516763D01*
X18153838Y7516763D02*
X18249076Y7421525D01*
X18249076Y7421525D02*
X18296695Y7326287D01*
%TO.C,C15*%
X16474142Y20439143D02*
X16521761Y20391524D01*
X16521761Y20391524D02*
X16569380Y20248667D01*
X16569380Y20248667D02*
X16569380Y20153429D01*
X16569380Y20153429D02*
X16521761Y20010572D01*
X16521761Y20010572D02*
X16426523Y19915334D01*
X16426523Y19915334D02*
X16331285Y19867715D01*
X16331285Y19867715D02*
X16140809Y19820096D01*
X16140809Y19820096D02*
X15997952Y19820096D01*
X15997952Y19820096D02*
X15807476Y19867715D01*
X15807476Y19867715D02*
X15712238Y19915334D01*
X15712238Y19915334D02*
X15617000Y20010572D01*
X15617000Y20010572D02*
X15569380Y20153429D01*
X15569380Y20153429D02*
X15569380Y20248667D01*
X15569380Y20248667D02*
X15617000Y20391524D01*
X15617000Y20391524D02*
X15664619Y20439143D01*
X16569380Y21391524D02*
X16569380Y20820096D01*
X16569380Y21105810D02*
X15569380Y21105810D01*
X15569380Y21105810D02*
X15712238Y21010572D01*
X15712238Y21010572D02*
X15807476Y20915334D01*
X15807476Y20915334D02*
X15855095Y20820096D01*
X15569380Y22296286D02*
X15569380Y21820096D01*
X15569380Y21820096D02*
X16045571Y21772477D01*
X16045571Y21772477D02*
X15997952Y21820096D01*
X15997952Y21820096D02*
X15950333Y21915334D01*
X15950333Y21915334D02*
X15950333Y22153429D01*
X15950333Y22153429D02*
X15997952Y22248667D01*
X15997952Y22248667D02*
X16045571Y22296286D01*
X16045571Y22296286D02*
X16140809Y22343905D01*
X16140809Y22343905D02*
X16378904Y22343905D01*
X16378904Y22343905D02*
X16474142Y22296286D01*
X16474142Y22296286D02*
X16521761Y22248667D01*
X16521761Y22248667D02*
X16569380Y22153429D01*
X16569380Y22153429D02*
X16569380Y21915334D01*
X16569380Y21915334D02*
X16521761Y21820096D01*
X16521761Y21820096D02*
X16474142Y21772477D01*
%TO.C,C14*%
X6977142Y14713858D02*
X6929523Y14666239D01*
X6929523Y14666239D02*
X6786666Y14618620D01*
X6786666Y14618620D02*
X6691428Y14618620D01*
X6691428Y14618620D02*
X6548571Y14666239D01*
X6548571Y14666239D02*
X6453333Y14761477D01*
X6453333Y14761477D02*
X6405714Y14856715D01*
X6405714Y14856715D02*
X6358095Y15047191D01*
X6358095Y15047191D02*
X6358095Y15190048D01*
X6358095Y15190048D02*
X6405714Y15380524D01*
X6405714Y15380524D02*
X6453333Y15475762D01*
X6453333Y15475762D02*
X6548571Y15571000D01*
X6548571Y15571000D02*
X6691428Y15618620D01*
X6691428Y15618620D02*
X6786666Y15618620D01*
X6786666Y15618620D02*
X6929523Y15571000D01*
X6929523Y15571000D02*
X6977142Y15523381D01*
X7929523Y14618620D02*
X7358095Y14618620D01*
X7643809Y14618620D02*
X7643809Y15618620D01*
X7643809Y15618620D02*
X7548571Y15475762D01*
X7548571Y15475762D02*
X7453333Y15380524D01*
X7453333Y15380524D02*
X7358095Y15332905D01*
X8786666Y15285286D02*
X8786666Y14618620D01*
X8548571Y15666239D02*
X8310476Y14951953D01*
X8310476Y14951953D02*
X8929523Y14951953D01*
%TO.C,C13*%
X29075142Y9633858D02*
X29027523Y9586239D01*
X29027523Y9586239D02*
X28884666Y9538620D01*
X28884666Y9538620D02*
X28789428Y9538620D01*
X28789428Y9538620D02*
X28646571Y9586239D01*
X28646571Y9586239D02*
X28551333Y9681477D01*
X28551333Y9681477D02*
X28503714Y9776715D01*
X28503714Y9776715D02*
X28456095Y9967191D01*
X28456095Y9967191D02*
X28456095Y10110048D01*
X28456095Y10110048D02*
X28503714Y10300524D01*
X28503714Y10300524D02*
X28551333Y10395762D01*
X28551333Y10395762D02*
X28646571Y10491000D01*
X28646571Y10491000D02*
X28789428Y10538620D01*
X28789428Y10538620D02*
X28884666Y10538620D01*
X28884666Y10538620D02*
X29027523Y10491000D01*
X29027523Y10491000D02*
X29075142Y10443381D01*
X30027523Y9538620D02*
X29456095Y9538620D01*
X29741809Y9538620D02*
X29741809Y10538620D01*
X29741809Y10538620D02*
X29646571Y10395762D01*
X29646571Y10395762D02*
X29551333Y10300524D01*
X29551333Y10300524D02*
X29456095Y10252905D01*
X30360857Y10538620D02*
X30979904Y10538620D01*
X30979904Y10538620D02*
X30646571Y10157667D01*
X30646571Y10157667D02*
X30789428Y10157667D01*
X30789428Y10157667D02*
X30884666Y10110048D01*
X30884666Y10110048D02*
X30932285Y10062429D01*
X30932285Y10062429D02*
X30979904Y9967191D01*
X30979904Y9967191D02*
X30979904Y9729096D01*
X30979904Y9729096D02*
X30932285Y9633858D01*
X30932285Y9633858D02*
X30884666Y9586239D01*
X30884666Y9586239D02*
X30789428Y9538620D01*
X30789428Y9538620D02*
X30503714Y9538620D01*
X30503714Y9538620D02*
X30408476Y9586239D01*
X30408476Y9586239D02*
X30360857Y9633858D01*
%TO.C,C12*%
X29075142Y11665858D02*
X29027523Y11618239D01*
X29027523Y11618239D02*
X28884666Y11570620D01*
X28884666Y11570620D02*
X28789428Y11570620D01*
X28789428Y11570620D02*
X28646571Y11618239D01*
X28646571Y11618239D02*
X28551333Y11713477D01*
X28551333Y11713477D02*
X28503714Y11808715D01*
X28503714Y11808715D02*
X28456095Y11999191D01*
X28456095Y11999191D02*
X28456095Y12142048D01*
X28456095Y12142048D02*
X28503714Y12332524D01*
X28503714Y12332524D02*
X28551333Y12427762D01*
X28551333Y12427762D02*
X28646571Y12523000D01*
X28646571Y12523000D02*
X28789428Y12570620D01*
X28789428Y12570620D02*
X28884666Y12570620D01*
X28884666Y12570620D02*
X29027523Y12523000D01*
X29027523Y12523000D02*
X29075142Y12475381D01*
X30027523Y11570620D02*
X29456095Y11570620D01*
X29741809Y11570620D02*
X29741809Y12570620D01*
X29741809Y12570620D02*
X29646571Y12427762D01*
X29646571Y12427762D02*
X29551333Y12332524D01*
X29551333Y12332524D02*
X29456095Y12284905D01*
X30408476Y12475381D02*
X30456095Y12523000D01*
X30456095Y12523000D02*
X30551333Y12570620D01*
X30551333Y12570620D02*
X30789428Y12570620D01*
X30789428Y12570620D02*
X30884666Y12523000D01*
X30884666Y12523000D02*
X30932285Y12475381D01*
X30932285Y12475381D02*
X30979904Y12380143D01*
X30979904Y12380143D02*
X30979904Y12284905D01*
X30979904Y12284905D02*
X30932285Y12142048D01*
X30932285Y12142048D02*
X30360857Y11570620D01*
X30360857Y11570620D02*
X30979904Y11570620D01*
%TO.C,C11*%
X29075142Y13443858D02*
X29027523Y13396239D01*
X29027523Y13396239D02*
X28884666Y13348620D01*
X28884666Y13348620D02*
X28789428Y13348620D01*
X28789428Y13348620D02*
X28646571Y13396239D01*
X28646571Y13396239D02*
X28551333Y13491477D01*
X28551333Y13491477D02*
X28503714Y13586715D01*
X28503714Y13586715D02*
X28456095Y13777191D01*
X28456095Y13777191D02*
X28456095Y13920048D01*
X28456095Y13920048D02*
X28503714Y14110524D01*
X28503714Y14110524D02*
X28551333Y14205762D01*
X28551333Y14205762D02*
X28646571Y14301000D01*
X28646571Y14301000D02*
X28789428Y14348620D01*
X28789428Y14348620D02*
X28884666Y14348620D01*
X28884666Y14348620D02*
X29027523Y14301000D01*
X29027523Y14301000D02*
X29075142Y14253381D01*
X30027523Y13348620D02*
X29456095Y13348620D01*
X29741809Y13348620D02*
X29741809Y14348620D01*
X29741809Y14348620D02*
X29646571Y14205762D01*
X29646571Y14205762D02*
X29551333Y14110524D01*
X29551333Y14110524D02*
X29456095Y14062905D01*
X30979904Y13348620D02*
X30408476Y13348620D01*
X30694190Y13348620D02*
X30694190Y14348620D01*
X30694190Y14348620D02*
X30598952Y14205762D01*
X30598952Y14205762D02*
X30503714Y14110524D01*
X30503714Y14110524D02*
X30408476Y14062905D01*
%TO.C,C10*%
X22979142Y24395858D02*
X22931523Y24348239D01*
X22931523Y24348239D02*
X22788666Y24300620D01*
X22788666Y24300620D02*
X22693428Y24300620D01*
X22693428Y24300620D02*
X22550571Y24348239D01*
X22550571Y24348239D02*
X22455333Y24443477D01*
X22455333Y24443477D02*
X22407714Y24538715D01*
X22407714Y24538715D02*
X22360095Y24729191D01*
X22360095Y24729191D02*
X22360095Y24872048D01*
X22360095Y24872048D02*
X22407714Y25062524D01*
X22407714Y25062524D02*
X22455333Y25157762D01*
X22455333Y25157762D02*
X22550571Y25253000D01*
X22550571Y25253000D02*
X22693428Y25300620D01*
X22693428Y25300620D02*
X22788666Y25300620D01*
X22788666Y25300620D02*
X22931523Y25253000D01*
X22931523Y25253000D02*
X22979142Y25205381D01*
X23931523Y24300620D02*
X23360095Y24300620D01*
X23645809Y24300620D02*
X23645809Y25300620D01*
X23645809Y25300620D02*
X23550571Y25157762D01*
X23550571Y25157762D02*
X23455333Y25062524D01*
X23455333Y25062524D02*
X23360095Y25014905D01*
X24550571Y25300620D02*
X24645809Y25300620D01*
X24645809Y25300620D02*
X24741047Y25253000D01*
X24741047Y25253000D02*
X24788666Y25205381D01*
X24788666Y25205381D02*
X24836285Y25110143D01*
X24836285Y25110143D02*
X24883904Y24919667D01*
X24883904Y24919667D02*
X24883904Y24681572D01*
X24883904Y24681572D02*
X24836285Y24491096D01*
X24836285Y24491096D02*
X24788666Y24395858D01*
X24788666Y24395858D02*
X24741047Y24348239D01*
X24741047Y24348239D02*
X24645809Y24300620D01*
X24645809Y24300620D02*
X24550571Y24300620D01*
X24550571Y24300620D02*
X24455333Y24348239D01*
X24455333Y24348239D02*
X24407714Y24395858D01*
X24407714Y24395858D02*
X24360095Y24491096D01*
X24360095Y24491096D02*
X24312476Y24681572D01*
X24312476Y24681572D02*
X24312476Y24919667D01*
X24312476Y24919667D02*
X24360095Y25110143D01*
X24360095Y25110143D02*
X24407714Y25205381D01*
X24407714Y25205381D02*
X24455333Y25253000D01*
X24455333Y25253000D02*
X24550571Y25300620D01*
%TO.C,C9*%
X23963333Y22587858D02*
X23915714Y22540239D01*
X23915714Y22540239D02*
X23772857Y22492620D01*
X23772857Y22492620D02*
X23677619Y22492620D01*
X23677619Y22492620D02*
X23534762Y22540239D01*
X23534762Y22540239D02*
X23439524Y22635477D01*
X23439524Y22635477D02*
X23391905Y22730715D01*
X23391905Y22730715D02*
X23344286Y22921191D01*
X23344286Y22921191D02*
X23344286Y23064048D01*
X23344286Y23064048D02*
X23391905Y23254524D01*
X23391905Y23254524D02*
X23439524Y23349762D01*
X23439524Y23349762D02*
X23534762Y23445000D01*
X23534762Y23445000D02*
X23677619Y23492620D01*
X23677619Y23492620D02*
X23772857Y23492620D01*
X23772857Y23492620D02*
X23915714Y23445000D01*
X23915714Y23445000D02*
X23963333Y23397381D01*
X24439524Y22492620D02*
X24630000Y22492620D01*
X24630000Y22492620D02*
X24725238Y22540239D01*
X24725238Y22540239D02*
X24772857Y22587858D01*
X24772857Y22587858D02*
X24868095Y22730715D01*
X24868095Y22730715D02*
X24915714Y22921191D01*
X24915714Y22921191D02*
X24915714Y23302143D01*
X24915714Y23302143D02*
X24868095Y23397381D01*
X24868095Y23397381D02*
X24820476Y23445000D01*
X24820476Y23445000D02*
X24725238Y23492620D01*
X24725238Y23492620D02*
X24534762Y23492620D01*
X24534762Y23492620D02*
X24439524Y23445000D01*
X24439524Y23445000D02*
X24391905Y23397381D01*
X24391905Y23397381D02*
X24344286Y23302143D01*
X24344286Y23302143D02*
X24344286Y23064048D01*
X24344286Y23064048D02*
X24391905Y22968810D01*
X24391905Y22968810D02*
X24439524Y22921191D01*
X24439524Y22921191D02*
X24534762Y22873572D01*
X24534762Y22873572D02*
X24725238Y22873572D01*
X24725238Y22873572D02*
X24820476Y22921191D01*
X24820476Y22921191D02*
X24868095Y22968810D01*
X24868095Y22968810D02*
X24915714Y23064048D01*
%TO.C,C8*%
X20338142Y21931334D02*
X20385761Y21883715D01*
X20385761Y21883715D02*
X20433380Y21740858D01*
X20433380Y21740858D02*
X20433380Y21645620D01*
X20433380Y21645620D02*
X20385761Y21502763D01*
X20385761Y21502763D02*
X20290523Y21407525D01*
X20290523Y21407525D02*
X20195285Y21359906D01*
X20195285Y21359906D02*
X20004809Y21312287D01*
X20004809Y21312287D02*
X19861952Y21312287D01*
X19861952Y21312287D02*
X19671476Y21359906D01*
X19671476Y21359906D02*
X19576238Y21407525D01*
X19576238Y21407525D02*
X19481000Y21502763D01*
X19481000Y21502763D02*
X19433380Y21645620D01*
X19433380Y21645620D02*
X19433380Y21740858D01*
X19433380Y21740858D02*
X19481000Y21883715D01*
X19481000Y21883715D02*
X19528619Y21931334D01*
X19861952Y22502763D02*
X19814333Y22407525D01*
X19814333Y22407525D02*
X19766714Y22359906D01*
X19766714Y22359906D02*
X19671476Y22312287D01*
X19671476Y22312287D02*
X19623857Y22312287D01*
X19623857Y22312287D02*
X19528619Y22359906D01*
X19528619Y22359906D02*
X19481000Y22407525D01*
X19481000Y22407525D02*
X19433380Y22502763D01*
X19433380Y22502763D02*
X19433380Y22693239D01*
X19433380Y22693239D02*
X19481000Y22788477D01*
X19481000Y22788477D02*
X19528619Y22836096D01*
X19528619Y22836096D02*
X19623857Y22883715D01*
X19623857Y22883715D02*
X19671476Y22883715D01*
X19671476Y22883715D02*
X19766714Y22836096D01*
X19766714Y22836096D02*
X19814333Y22788477D01*
X19814333Y22788477D02*
X19861952Y22693239D01*
X19861952Y22693239D02*
X19861952Y22502763D01*
X19861952Y22502763D02*
X19909571Y22407525D01*
X19909571Y22407525D02*
X19957190Y22359906D01*
X19957190Y22359906D02*
X20052428Y22312287D01*
X20052428Y22312287D02*
X20242904Y22312287D01*
X20242904Y22312287D02*
X20338142Y22359906D01*
X20338142Y22359906D02*
X20385761Y22407525D01*
X20385761Y22407525D02*
X20433380Y22502763D01*
X20433380Y22502763D02*
X20433380Y22693239D01*
X20433380Y22693239D02*
X20385761Y22788477D01*
X20385761Y22788477D02*
X20338142Y22836096D01*
X20338142Y22836096D02*
X20242904Y22883715D01*
X20242904Y22883715D02*
X20052428Y22883715D01*
X20052428Y22883715D02*
X19957190Y22836096D01*
X19957190Y22836096D02*
X19909571Y22788477D01*
X19909571Y22788477D02*
X19861952Y22693239D01*
%TO.C,C7*%
X18560142Y21931334D02*
X18607761Y21883715D01*
X18607761Y21883715D02*
X18655380Y21740858D01*
X18655380Y21740858D02*
X18655380Y21645620D01*
X18655380Y21645620D02*
X18607761Y21502763D01*
X18607761Y21502763D02*
X18512523Y21407525D01*
X18512523Y21407525D02*
X18417285Y21359906D01*
X18417285Y21359906D02*
X18226809Y21312287D01*
X18226809Y21312287D02*
X18083952Y21312287D01*
X18083952Y21312287D02*
X17893476Y21359906D01*
X17893476Y21359906D02*
X17798238Y21407525D01*
X17798238Y21407525D02*
X17703000Y21502763D01*
X17703000Y21502763D02*
X17655380Y21645620D01*
X17655380Y21645620D02*
X17655380Y21740858D01*
X17655380Y21740858D02*
X17703000Y21883715D01*
X17703000Y21883715D02*
X17750619Y21931334D01*
X17655380Y22264668D02*
X17655380Y22931334D01*
X17655380Y22931334D02*
X18655380Y22502763D01*
%TO.C,C6*%
X22116142Y21931334D02*
X22163761Y21883715D01*
X22163761Y21883715D02*
X22211380Y21740858D01*
X22211380Y21740858D02*
X22211380Y21645620D01*
X22211380Y21645620D02*
X22163761Y21502763D01*
X22163761Y21502763D02*
X22068523Y21407525D01*
X22068523Y21407525D02*
X21973285Y21359906D01*
X21973285Y21359906D02*
X21782809Y21312287D01*
X21782809Y21312287D02*
X21639952Y21312287D01*
X21639952Y21312287D02*
X21449476Y21359906D01*
X21449476Y21359906D02*
X21354238Y21407525D01*
X21354238Y21407525D02*
X21259000Y21502763D01*
X21259000Y21502763D02*
X21211380Y21645620D01*
X21211380Y21645620D02*
X21211380Y21740858D01*
X21211380Y21740858D02*
X21259000Y21883715D01*
X21259000Y21883715D02*
X21306619Y21931334D01*
X21211380Y22788477D02*
X21211380Y22598001D01*
X21211380Y22598001D02*
X21259000Y22502763D01*
X21259000Y22502763D02*
X21306619Y22455144D01*
X21306619Y22455144D02*
X21449476Y22359906D01*
X21449476Y22359906D02*
X21639952Y22312287D01*
X21639952Y22312287D02*
X22020904Y22312287D01*
X22020904Y22312287D02*
X22116142Y22359906D01*
X22116142Y22359906D02*
X22163761Y22407525D01*
X22163761Y22407525D02*
X22211380Y22502763D01*
X22211380Y22502763D02*
X22211380Y22693239D01*
X22211380Y22693239D02*
X22163761Y22788477D01*
X22163761Y22788477D02*
X22116142Y22836096D01*
X22116142Y22836096D02*
X22020904Y22883715D01*
X22020904Y22883715D02*
X21782809Y22883715D01*
X21782809Y22883715D02*
X21687571Y22836096D01*
X21687571Y22836096D02*
X21639952Y22788477D01*
X21639952Y22788477D02*
X21592333Y22693239D01*
X21592333Y22693239D02*
X21592333Y22502763D01*
X21592333Y22502763D02*
X21639952Y22407525D01*
X21639952Y22407525D02*
X21687571Y22359906D01*
X21687571Y22359906D02*
X21782809Y22312287D01*
%TO.C,C5*%
X22116142Y13549334D02*
X22163761Y13501715D01*
X22163761Y13501715D02*
X22211380Y13358858D01*
X22211380Y13358858D02*
X22211380Y13263620D01*
X22211380Y13263620D02*
X22163761Y13120763D01*
X22163761Y13120763D02*
X22068523Y13025525D01*
X22068523Y13025525D02*
X21973285Y12977906D01*
X21973285Y12977906D02*
X21782809Y12930287D01*
X21782809Y12930287D02*
X21639952Y12930287D01*
X21639952Y12930287D02*
X21449476Y12977906D01*
X21449476Y12977906D02*
X21354238Y13025525D01*
X21354238Y13025525D02*
X21259000Y13120763D01*
X21259000Y13120763D02*
X21211380Y13263620D01*
X21211380Y13263620D02*
X21211380Y13358858D01*
X21211380Y13358858D02*
X21259000Y13501715D01*
X21259000Y13501715D02*
X21306619Y13549334D01*
X21211380Y14454096D02*
X21211380Y13977906D01*
X21211380Y13977906D02*
X21687571Y13930287D01*
X21687571Y13930287D02*
X21639952Y13977906D01*
X21639952Y13977906D02*
X21592333Y14073144D01*
X21592333Y14073144D02*
X21592333Y14311239D01*
X21592333Y14311239D02*
X21639952Y14406477D01*
X21639952Y14406477D02*
X21687571Y14454096D01*
X21687571Y14454096D02*
X21782809Y14501715D01*
X21782809Y14501715D02*
X22020904Y14501715D01*
X22020904Y14501715D02*
X22116142Y14454096D01*
X22116142Y14454096D02*
X22163761Y14406477D01*
X22163761Y14406477D02*
X22211380Y14311239D01*
X22211380Y14311239D02*
X22211380Y14073144D01*
X22211380Y14073144D02*
X22163761Y13977906D01*
X22163761Y13977906D02*
X22116142Y13930287D01*
%TO.C,C4*%
X18560142Y13549334D02*
X18607761Y13501715D01*
X18607761Y13501715D02*
X18655380Y13358858D01*
X18655380Y13358858D02*
X18655380Y13263620D01*
X18655380Y13263620D02*
X18607761Y13120763D01*
X18607761Y13120763D02*
X18512523Y13025525D01*
X18512523Y13025525D02*
X18417285Y12977906D01*
X18417285Y12977906D02*
X18226809Y12930287D01*
X18226809Y12930287D02*
X18083952Y12930287D01*
X18083952Y12930287D02*
X17893476Y12977906D01*
X17893476Y12977906D02*
X17798238Y13025525D01*
X17798238Y13025525D02*
X17703000Y13120763D01*
X17703000Y13120763D02*
X17655380Y13263620D01*
X17655380Y13263620D02*
X17655380Y13358858D01*
X17655380Y13358858D02*
X17703000Y13501715D01*
X17703000Y13501715D02*
X17750619Y13549334D01*
X17988714Y14406477D02*
X18655380Y14406477D01*
X17607761Y14168382D02*
X18322047Y13930287D01*
X18322047Y13930287D02*
X18322047Y14549334D01*
%TO.C,C3*%
X20338142Y13549334D02*
X20385761Y13501715D01*
X20385761Y13501715D02*
X20433380Y13358858D01*
X20433380Y13358858D02*
X20433380Y13263620D01*
X20433380Y13263620D02*
X20385761Y13120763D01*
X20385761Y13120763D02*
X20290523Y13025525D01*
X20290523Y13025525D02*
X20195285Y12977906D01*
X20195285Y12977906D02*
X20004809Y12930287D01*
X20004809Y12930287D02*
X19861952Y12930287D01*
X19861952Y12930287D02*
X19671476Y12977906D01*
X19671476Y12977906D02*
X19576238Y13025525D01*
X19576238Y13025525D02*
X19481000Y13120763D01*
X19481000Y13120763D02*
X19433380Y13263620D01*
X19433380Y13263620D02*
X19433380Y13358858D01*
X19433380Y13358858D02*
X19481000Y13501715D01*
X19481000Y13501715D02*
X19528619Y13549334D01*
X19433380Y13882668D02*
X19433380Y14501715D01*
X19433380Y14501715D02*
X19814333Y14168382D01*
X19814333Y14168382D02*
X19814333Y14311239D01*
X19814333Y14311239D02*
X19861952Y14406477D01*
X19861952Y14406477D02*
X19909571Y14454096D01*
X19909571Y14454096D02*
X20004809Y14501715D01*
X20004809Y14501715D02*
X20242904Y14501715D01*
X20242904Y14501715D02*
X20338142Y14454096D01*
X20338142Y14454096D02*
X20385761Y14406477D01*
X20385761Y14406477D02*
X20433380Y14311239D01*
X20433380Y14311239D02*
X20433380Y14025525D01*
X20433380Y14025525D02*
X20385761Y13930287D01*
X20385761Y13930287D02*
X20338142Y13882668D01*
%TO.C,C2*%
X13898142Y20661334D02*
X13945761Y20613715D01*
X13945761Y20613715D02*
X13993380Y20470858D01*
X13993380Y20470858D02*
X13993380Y20375620D01*
X13993380Y20375620D02*
X13945761Y20232763D01*
X13945761Y20232763D02*
X13850523Y20137525D01*
X13850523Y20137525D02*
X13755285Y20089906D01*
X13755285Y20089906D02*
X13564809Y20042287D01*
X13564809Y20042287D02*
X13421952Y20042287D01*
X13421952Y20042287D02*
X13231476Y20089906D01*
X13231476Y20089906D02*
X13136238Y20137525D01*
X13136238Y20137525D02*
X13041000Y20232763D01*
X13041000Y20232763D02*
X12993380Y20375620D01*
X12993380Y20375620D02*
X12993380Y20470858D01*
X12993380Y20470858D02*
X13041000Y20613715D01*
X13041000Y20613715D02*
X13088619Y20661334D01*
X13088619Y21042287D02*
X13041000Y21089906D01*
X13041000Y21089906D02*
X12993380Y21185144D01*
X12993380Y21185144D02*
X12993380Y21423239D01*
X12993380Y21423239D02*
X13041000Y21518477D01*
X13041000Y21518477D02*
X13088619Y21566096D01*
X13088619Y21566096D02*
X13183857Y21613715D01*
X13183857Y21613715D02*
X13279095Y21613715D01*
X13279095Y21613715D02*
X13421952Y21566096D01*
X13421952Y21566096D02*
X13993380Y20994668D01*
X13993380Y20994668D02*
X13993380Y21613715D01*
%TO.C,C1*%
X7707333Y16999858D02*
X7659714Y16952239D01*
X7659714Y16952239D02*
X7516857Y16904620D01*
X7516857Y16904620D02*
X7421619Y16904620D01*
X7421619Y16904620D02*
X7278762Y16952239D01*
X7278762Y16952239D02*
X7183524Y17047477D01*
X7183524Y17047477D02*
X7135905Y17142715D01*
X7135905Y17142715D02*
X7088286Y17333191D01*
X7088286Y17333191D02*
X7088286Y17476048D01*
X7088286Y17476048D02*
X7135905Y17666524D01*
X7135905Y17666524D02*
X7183524Y17761762D01*
X7183524Y17761762D02*
X7278762Y17857000D01*
X7278762Y17857000D02*
X7421619Y17904620D01*
X7421619Y17904620D02*
X7516857Y17904620D01*
X7516857Y17904620D02*
X7659714Y17857000D01*
X7659714Y17857000D02*
X7707333Y17809381D01*
X8659714Y16904620D02*
X8088286Y16904620D01*
X8374000Y16904620D02*
X8374000Y17904620D01*
X8374000Y17904620D02*
X8278762Y17761762D01*
X8278762Y17761762D02*
X8183524Y17666524D01*
X8183524Y17666524D02*
X8088286Y17618905D01*
%TO.C,G\u002A\u002A\u002A*%
G36*
X36741493Y2807728D02*
G01*
X36813776Y2801492D01*
X36850810Y2791986D01*
X36854210Y2787510D01*
X36872400Y2767585D01*
X36887897Y2765052D01*
X36907457Y2754703D01*
X36917959Y2718019D01*
X36921517Y2646539D01*
X36921584Y2630304D01*
X36924993Y2558529D01*
X36933900Y2509868D01*
X36944042Y2495556D01*
X36956853Y2475357D01*
X36964984Y2423714D01*
X36966500Y2383266D01*
X36970539Y2319211D01*
X36980868Y2278553D01*
X36988958Y2270976D01*
X37002351Y2250903D01*
X37010385Y2200117D01*
X37011416Y2169915D01*
X37015824Y2103304D01*
X37030815Y2072963D01*
X37045103Y2068854D01*
X37067306Y2055628D01*
X37077420Y2010657D01*
X37078790Y1967793D01*
X37083250Y1907522D01*
X37094536Y1871369D01*
X37101248Y1866732D01*
X37116092Y1846989D01*
X37123512Y1798444D01*
X37123706Y1788129D01*
X37129347Y1736174D01*
X37143217Y1710204D01*
X37146164Y1709526D01*
X37164411Y1728335D01*
X37168622Y1754442D01*
X37182664Y1791021D01*
X37202309Y1799358D01*
X37223493Y1811379D01*
X37233840Y1852999D01*
X37235996Y1911648D01*
X37240035Y1975703D01*
X37250364Y2016360D01*
X37258454Y2023938D01*
X37271847Y2044010D01*
X37279881Y2094796D01*
X37280912Y2124999D01*
X37285372Y2185269D01*
X37296658Y2221422D01*
X37303370Y2226060D01*
X37316181Y2246258D01*
X37324312Y2297901D01*
X37325828Y2338350D01*
X37329434Y2408965D01*
X37341920Y2443454D01*
X37359515Y2450640D01*
X37384430Y2467685D01*
X37393141Y2522084D01*
X37393202Y2529243D01*
X37398843Y2581197D01*
X37412713Y2607167D01*
X37415660Y2607846D01*
X37429053Y2627918D01*
X37437087Y2678704D01*
X37438118Y2708907D01*
X37438118Y2809968D01*
X37629011Y2809968D01*
X37819904Y2809968D01*
X37819904Y2708907D01*
X37824364Y2648636D01*
X37835650Y2612483D01*
X37842362Y2607846D01*
X37857206Y2588103D01*
X37864626Y2539558D01*
X37864820Y2529243D01*
X37870461Y2477288D01*
X37884331Y2451318D01*
X37887278Y2450640D01*
X37900089Y2430441D01*
X37908220Y2378798D01*
X37909736Y2338350D01*
X37913342Y2267735D01*
X37925828Y2233245D01*
X37943423Y2226060D01*
X37965626Y2212834D01*
X37975740Y2167863D01*
X37977110Y2124999D01*
X37981571Y2064728D01*
X37992856Y2028575D01*
X37999568Y2023938D01*
X38012379Y2003739D01*
X38020510Y1952096D01*
X38022026Y1911648D01*
X38026066Y1847592D01*
X38036394Y1806935D01*
X38044484Y1799358D01*
X38062731Y1780548D01*
X38066942Y1754442D01*
X38080984Y1717862D01*
X38100629Y1709526D01*
X38122832Y1722751D01*
X38132946Y1767723D01*
X38134316Y1810587D01*
X38138777Y1870857D01*
X38150062Y1907010D01*
X38156774Y1911648D01*
X38170167Y1931720D01*
X38178201Y1982506D01*
X38179232Y2012709D01*
X38183693Y2072979D01*
X38194978Y2109132D01*
X38201690Y2113770D01*
X38214501Y2133968D01*
X38222632Y2185611D01*
X38224148Y2226060D01*
X38227754Y2296675D01*
X38240240Y2331164D01*
X38257835Y2338350D01*
X38280038Y2351575D01*
X38290152Y2396547D01*
X38291522Y2439411D01*
X38295983Y2499681D01*
X38307268Y2535834D01*
X38313980Y2540472D01*
X38326791Y2560670D01*
X38334922Y2612313D01*
X38336438Y2652762D01*
X38340044Y2723377D01*
X38352530Y2757866D01*
X38370125Y2765052D01*
X38400011Y2777178D01*
X38403812Y2787510D01*
X38425013Y2798271D01*
X38483699Y2805947D01*
X38572499Y2809719D01*
X38605934Y2809968D01*
X38808056Y2809968D01*
X38808056Y2731365D01*
X38802415Y2679410D01*
X38788545Y2653441D01*
X38785598Y2652762D01*
X38772205Y2632689D01*
X38764170Y2581903D01*
X38763140Y2551701D01*
X38758679Y2491430D01*
X38747394Y2455277D01*
X38740682Y2450640D01*
X38726619Y2430716D01*
X38718797Y2380944D01*
X38718224Y2360808D01*
X38712661Y2298345D01*
X38694222Y2272606D01*
X38684537Y2270976D01*
X38662333Y2257750D01*
X38652220Y2212779D01*
X38650850Y2169915D01*
X38646389Y2109644D01*
X38635104Y2073491D01*
X38628392Y2068854D01*
X38613548Y2049111D01*
X38606128Y2000566D01*
X38605934Y1990251D01*
X38600293Y1938296D01*
X38586423Y1912326D01*
X38583476Y1911648D01*
X38570083Y1891575D01*
X38562048Y1840789D01*
X38561018Y1810587D01*
X38556609Y1743976D01*
X38541619Y1713635D01*
X38527331Y1709526D01*
X38503907Y1694692D01*
X38494255Y1645520D01*
X38493644Y1619694D01*
X38488663Y1563440D01*
X38476220Y1532152D01*
X38471186Y1529862D01*
X38457793Y1509789D01*
X38449758Y1459003D01*
X38448728Y1428801D01*
X38444267Y1368530D01*
X38432982Y1332377D01*
X38426270Y1327740D01*
X38411426Y1307997D01*
X38404006Y1259452D01*
X38403812Y1249137D01*
X38396507Y1191000D01*
X38373193Y1170676D01*
X38370125Y1170533D01*
X38343031Y1151011D01*
X38336438Y1114388D01*
X38334956Y1088379D01*
X38324903Y1071975D01*
X38297864Y1062962D01*
X38245426Y1059128D01*
X38159175Y1058258D01*
X38123087Y1058243D01*
X38021384Y1059449D01*
X37957023Y1063859D01*
X37922473Y1072661D01*
X37910205Y1087045D01*
X37909736Y1091930D01*
X37897609Y1121817D01*
X37887278Y1125617D01*
X37872434Y1145360D01*
X37865014Y1193905D01*
X37864820Y1204220D01*
X37859179Y1256175D01*
X37845309Y1282145D01*
X37842362Y1282824D01*
X37827518Y1302566D01*
X37820098Y1351111D01*
X37819904Y1361427D01*
X37812599Y1419563D01*
X37789285Y1439887D01*
X37786217Y1440030D01*
X37764013Y1453255D01*
X37753900Y1498227D01*
X37752530Y1541091D01*
X37748069Y1601361D01*
X37736783Y1637514D01*
X37730072Y1642152D01*
X37715228Y1661894D01*
X37707808Y1710439D01*
X37707614Y1720755D01*
X37701973Y1772709D01*
X37688103Y1798679D01*
X37685156Y1799358D01*
X37670312Y1819100D01*
X37662892Y1867645D01*
X37662698Y1877961D01*
X37655393Y1936097D01*
X37632079Y1956421D01*
X37629011Y1956564D01*
X37601576Y1937840D01*
X37595324Y1911648D01*
X37585919Y1875154D01*
X37572866Y1866732D01*
X37560055Y1846533D01*
X37551923Y1794890D01*
X37550408Y1754442D01*
X37546802Y1683827D01*
X37534316Y1649337D01*
X37516721Y1642152D01*
X37491805Y1625107D01*
X37483095Y1570707D01*
X37483034Y1563549D01*
X37477393Y1511594D01*
X37463523Y1485624D01*
X37460576Y1484946D01*
X37447182Y1464873D01*
X37439148Y1414087D01*
X37438118Y1383885D01*
X37433657Y1323614D01*
X37422371Y1287461D01*
X37415660Y1282824D01*
X37400816Y1263081D01*
X37393396Y1214536D01*
X37393202Y1204220D01*
X37385897Y1146084D01*
X37362583Y1125760D01*
X37359515Y1125617D01*
X37329741Y1107641D01*
X37325828Y1091930D01*
X37317951Y1075496D01*
X37289204Y1065259D01*
X37231910Y1059941D01*
X37138394Y1058261D01*
X37123706Y1058243D01*
X37025098Y1059556D01*
X36963677Y1064347D01*
X36931767Y1073896D01*
X36921690Y1089482D01*
X36921584Y1091930D01*
X36903607Y1121705D01*
X36887897Y1125617D01*
X36865693Y1138843D01*
X36855580Y1183815D01*
X36854210Y1226678D01*
X36849749Y1286949D01*
X36838463Y1323102D01*
X36831752Y1327740D01*
X36816908Y1347482D01*
X36809488Y1396027D01*
X36809294Y1406343D01*
X36801989Y1464479D01*
X36778675Y1484803D01*
X36775607Y1484946D01*
X36754422Y1496967D01*
X36744075Y1538587D01*
X36741920Y1597236D01*
X36737880Y1661291D01*
X36727552Y1701948D01*
X36719462Y1709526D01*
X36704618Y1729268D01*
X36697198Y1777813D01*
X36697004Y1788129D01*
X36691363Y1840083D01*
X36677493Y1866053D01*
X36674546Y1866732D01*
X36661152Y1886804D01*
X36653118Y1937590D01*
X36652088Y1967793D01*
X36647679Y2034403D01*
X36632689Y2064744D01*
X36618401Y2068854D01*
X36593485Y2085899D01*
X36584775Y2140298D01*
X36584714Y2147457D01*
X36579073Y2199411D01*
X36565203Y2225381D01*
X36562256Y2226060D01*
X36549445Y2246258D01*
X36541313Y2297901D01*
X36539798Y2338350D01*
X36535758Y2402405D01*
X36525430Y2443062D01*
X36517340Y2450640D01*
X36502496Y2470382D01*
X36495076Y2518927D01*
X36494882Y2529243D01*
X36487577Y2587379D01*
X36464263Y2607704D01*
X36461195Y2607846D01*
X36438991Y2621072D01*
X36428878Y2666043D01*
X36427508Y2708907D01*
X36427508Y2809968D01*
X36640859Y2809968D01*
X36741493Y2807728D01*
G37*
G36*
X39886040Y1934106D02*
G01*
X39886040Y1058243D01*
X39695147Y1058243D01*
X39599711Y1059682D01*
X39541300Y1064917D01*
X39512090Y1075330D01*
X39504254Y1091930D01*
X39492127Y1121817D01*
X39481796Y1125617D01*
X39475353Y1147889D01*
X39469955Y1213980D01*
X39465631Y1322805D01*
X39462408Y1473279D01*
X39460317Y1664317D01*
X39459387Y1894833D01*
X39459338Y1967793D01*
X39459338Y2809968D01*
X39672689Y2809968D01*
X39886040Y2809968D01*
X39886040Y1934106D01*
G37*
G36*
X40986482Y2495556D02*
G01*
X40986482Y2181144D01*
X41199833Y2181144D01*
X41413184Y2181144D01*
X41413184Y2495556D01*
X41413184Y2809968D01*
X41626535Y2809968D01*
X41839886Y2809968D01*
X41839886Y1934106D01*
X41839886Y1058243D01*
X41648993Y1058243D01*
X41553557Y1059682D01*
X41495146Y1064917D01*
X41465937Y1075330D01*
X41458100Y1091930D01*
X41445973Y1121817D01*
X41435642Y1125617D01*
X41426272Y1147352D01*
X41419206Y1209754D01*
X41414743Y1308618D01*
X41413184Y1439739D01*
X41413184Y1440030D01*
X41413184Y1754442D01*
X41199833Y1754442D01*
X40986482Y1754442D01*
X40986482Y1406343D01*
X40986482Y1058243D01*
X40806818Y1058243D01*
X40714634Y1059830D01*
X40659311Y1065587D01*
X40632874Y1077010D01*
X40627154Y1091930D01*
X40609177Y1121705D01*
X40593467Y1125617D01*
X40584704Y1130194D01*
X40577576Y1146632D01*
X40571919Y1178993D01*
X40567571Y1231339D01*
X40564370Y1307731D01*
X40562153Y1412230D01*
X40560758Y1548900D01*
X40560022Y1721801D01*
X40559783Y1934994D01*
X40559780Y1967793D01*
X40559780Y2809968D01*
X40773131Y2809968D01*
X40986482Y2809968D01*
X40986482Y2495556D01*
G37*
G36*
X42940328Y1934106D02*
G01*
X42940328Y1058243D01*
X42760664Y1058243D01*
X42668480Y1059830D01*
X42613157Y1065587D01*
X42586720Y1077010D01*
X42581000Y1091930D01*
X42563023Y1121705D01*
X42547313Y1125617D01*
X42538550Y1130194D01*
X42531422Y1146632D01*
X42525765Y1178993D01*
X42521417Y1231339D01*
X42518216Y1307731D01*
X42515999Y1412230D01*
X42514604Y1548900D01*
X42513868Y1721801D01*
X42513629Y1934994D01*
X42513626Y1967793D01*
X42513626Y2809968D01*
X42726977Y2809968D01*
X42940328Y2809968D01*
X42940328Y1934106D01*
G37*
G36*
X39773806Y12837465D02*
G01*
X39773806Y12837468D01*
X39930956Y12837468D01*
X39930956Y12837465D01*
X39936829Y12799497D01*
X39963256Y12783953D01*
X40009559Y12781320D01*
X40061507Y12787362D01*
X40087481Y12802219D01*
X40088162Y12805383D01*
X40069001Y12847653D01*
X40023746Y12881834D01*
X39977476Y12893610D01*
X39941223Y12881220D01*
X39930956Y12837468D01*
X39773806Y12837468D01*
X39773750Y12839070D01*
X39784610Y12924961D01*
X39814456Y12983135D01*
X39859184Y13005835D01*
X39861978Y13005900D01*
X39885067Y13022046D01*
X39886040Y13028358D01*
X39906346Y13040657D01*
X39958726Y13048814D01*
X40009559Y13050816D01*
X40077202Y13047125D01*
X40122067Y13037601D01*
X40133078Y13028358D01*
X40150377Y13006809D01*
X40157140Y13005900D01*
X40201975Y12985447D01*
X40233221Y12930649D01*
X40245357Y12851344D01*
X40245368Y12848694D01*
X40233889Y12768808D01*
X40203135Y12713132D01*
X40158627Y12691508D01*
X40157140Y12691488D01*
X40135802Y12673324D01*
X40133078Y12657801D01*
X40120951Y12627915D01*
X40110620Y12624114D01*
X40103260Y12601954D01*
X40097283Y12536621D01*
X40092752Y12429840D01*
X40089732Y12283336D01*
X40088286Y12098834D01*
X40088162Y12017748D01*
X40088162Y11411382D01*
X40301513Y11411382D01*
X40514864Y11411382D01*
X40514864Y11804397D01*
X40513612Y11956104D01*
X40509973Y12073614D01*
X40504127Y12153800D01*
X40496253Y12193537D01*
X40492406Y12197412D01*
X40472482Y12215602D01*
X40469948Y12231099D01*
X40456974Y12260972D01*
X40445886Y12264786D01*
X40401052Y12285239D01*
X40369805Y12340038D01*
X40357669Y12419343D01*
X40357658Y12421992D01*
X40559780Y12421992D01*
X40572939Y12386771D01*
X40615925Y12377076D01*
X40659952Y12387603D01*
X40672070Y12421992D01*
X40658911Y12457214D01*
X40615925Y12466908D01*
X40571898Y12456381D01*
X40559780Y12421992D01*
X40357658Y12421992D01*
X40369137Y12501879D01*
X40399891Y12557554D01*
X40444399Y12579179D01*
X40445886Y12579198D01*
X40468975Y12595344D01*
X40469948Y12601656D01*
X40490254Y12613955D01*
X40542634Y12622112D01*
X40593467Y12624114D01*
X40661110Y12620422D01*
X40705975Y12610899D01*
X40716986Y12601656D01*
X40734285Y12580107D01*
X40741048Y12579198D01*
X40787654Y12558593D01*
X40817480Y12498731D01*
X40829158Y12402546D01*
X40829276Y12389910D01*
X40825629Y12321768D01*
X40816210Y12276323D01*
X40806818Y12264786D01*
X40786894Y12246596D01*
X40784360Y12231099D01*
X40766383Y12201325D01*
X40750673Y12197412D01*
X40739301Y12192029D01*
X40730754Y12172307D01*
X40724650Y12132891D01*
X40720606Y12068426D01*
X40718241Y11973556D01*
X40717170Y11842925D01*
X40716986Y11725794D01*
X40716986Y11254176D01*
X40402574Y11254176D01*
X40088162Y11254176D01*
X40088162Y11119428D01*
X40088162Y10984680D01*
X40593467Y10984680D01*
X41098772Y10984680D01*
X41098772Y11276634D01*
X41098021Y11398228D01*
X41095258Y11481566D01*
X41089716Y11533293D01*
X41080627Y11560054D01*
X41067227Y11568491D01*
X41065085Y11568588D01*
X41035311Y11586565D01*
X41031398Y11602275D01*
X41019271Y11632162D01*
X41008940Y11635962D01*
X40990693Y11654772D01*
X40986482Y11680878D01*
X40977077Y11717372D01*
X40964024Y11725794D01*
X40947142Y11745013D01*
X40941566Y11781939D01*
X41143688Y11781939D01*
X41152964Y11739201D01*
X41189487Y11726031D01*
X41199833Y11725794D01*
X41242571Y11735070D01*
X41255741Y11771593D01*
X41255978Y11781939D01*
X41246702Y11824677D01*
X41210180Y11837847D01*
X41199833Y11838084D01*
X41157095Y11828809D01*
X41143925Y11792286D01*
X41143688Y11781939D01*
X40941566Y11781939D01*
X40949254Y11824145D01*
X40964024Y11838084D01*
X40982058Y11856962D01*
X40986482Y11884604D01*
X40998346Y11938744D01*
X41037697Y11973261D01*
X41110175Y11991082D01*
X41199833Y11995290D01*
X41306316Y11989369D01*
X41369700Y11971626D01*
X41381101Y11963207D01*
X41396748Y11928165D01*
X41407584Y11867730D01*
X41413218Y11795169D01*
X41413260Y11723751D01*
X41407320Y11666744D01*
X41395008Y11637416D01*
X41390726Y11635962D01*
X41370802Y11617772D01*
X41368268Y11602275D01*
X41355294Y11572402D01*
X41344206Y11568588D01*
X41309739Y11560916D01*
X41285193Y11534018D01*
X41269084Y11482069D01*
X41259931Y11399246D01*
X41256251Y11279726D01*
X41255978Y11222093D01*
X41257699Y11100014D01*
X41262603Y11009164D01*
X41270307Y10954381D01*
X41278436Y10939764D01*
X41295318Y10920545D01*
X41300894Y10883619D01*
X41311160Y10839865D01*
X41347413Y10827474D01*
X41347414Y10827474D01*
X41400445Y10812201D01*
X41443326Y10776128D01*
X41458100Y10739246D01*
X41474952Y10716166D01*
X41481579Y10715184D01*
X41514242Y10699366D01*
X41557541Y10662071D01*
X41596238Y10618536D01*
X41615097Y10583998D01*
X41615306Y10581457D01*
X41633480Y10560633D01*
X41648993Y10557978D01*
X41678880Y10545852D01*
X41682680Y10535520D01*
X41704876Y10528415D01*
X41770447Y10522593D01*
X41877870Y10518107D01*
X42025622Y10515007D01*
X42212179Y10513347D01*
X42345191Y10513062D01*
X43007702Y10513062D01*
X43007702Y9828093D01*
X43007787Y9634892D01*
X43008247Y9481915D01*
X43009390Y9364470D01*
X43011523Y9277865D01*
X43014954Y9217409D01*
X43019990Y9178408D01*
X43026940Y9156171D01*
X43036111Y9146007D01*
X43047811Y9143223D01*
X43052618Y9143124D01*
X43089198Y9129082D01*
X43097534Y9109437D01*
X43115511Y9079663D01*
X43131221Y9075750D01*
X43151537Y9064661D01*
X43161996Y9025749D01*
X43164908Y8952231D01*
X43161884Y8877742D01*
X43151272Y8839392D01*
X43131221Y8828712D01*
X43104128Y8809189D01*
X43097534Y8772567D01*
X43091662Y8734599D01*
X43065234Y8719055D01*
X43018931Y8716422D01*
X42960795Y8709117D01*
X42940470Y8685803D01*
X42940328Y8682735D01*
X42928202Y8652849D01*
X42917870Y8649048D01*
X42897946Y8667238D01*
X42895412Y8682735D01*
X42876535Y8710133D01*
X42848892Y8716422D01*
X42795862Y8731696D01*
X42752981Y8767768D01*
X42738206Y8804650D01*
X42722060Y8827739D01*
X42715748Y8828712D01*
X42702071Y8848722D01*
X42694113Y8899083D01*
X42693290Y8924815D01*
X42693815Y8929773D01*
X42895412Y8929773D01*
X42904688Y8887035D01*
X42941211Y8873865D01*
X42951557Y8873628D01*
X42994295Y8882904D01*
X43007465Y8919426D01*
X43007702Y8929773D01*
X42998427Y8972511D01*
X42961904Y8985681D01*
X42951557Y8985918D01*
X42908819Y8976642D01*
X42895649Y8940120D01*
X42895412Y8929773D01*
X42693815Y8929773D01*
X42701205Y8999563D01*
X42728042Y9044993D01*
X42738206Y9053292D01*
X42772995Y9088974D01*
X42783122Y9114395D01*
X42801203Y9139834D01*
X42816809Y9143124D01*
X42827149Y9148158D01*
X42835177Y9166490D01*
X42841173Y9202963D01*
X42845416Y9262419D01*
X42848185Y9349702D01*
X42849761Y9469655D01*
X42850421Y9627121D01*
X42850496Y9727032D01*
X42850496Y10310940D01*
X42682061Y10310940D01*
X42513626Y10310940D01*
X42513626Y9378933D01*
X42513626Y8446926D01*
X42435023Y8446926D01*
X42356420Y8446926D01*
X42356420Y9378933D01*
X42356420Y10310940D01*
X42199214Y10310940D01*
X42042008Y10310940D01*
X42042008Y9322788D01*
X42042008Y8334636D01*
X42895412Y8334636D01*
X43748816Y8334636D01*
X43748816Y8390781D01*
X43759343Y8434808D01*
X43793732Y8446926D01*
X43830226Y8456331D01*
X43838648Y8469384D01*
X43858794Y8482443D01*
X43910075Y8490542D01*
X43945981Y8491842D01*
X44021810Y8486178D01*
X44067726Y8466205D01*
X44085686Y8446926D01*
X44121369Y8412138D01*
X44146789Y8402010D01*
X44164529Y8384822D01*
X44173707Y8330453D01*
X44175518Y8267262D01*
X44171772Y8189621D01*
X44161521Y8142668D01*
X44151456Y8132514D01*
X44113358Y8115503D01*
X44077176Y8078165D01*
X44063228Y8044286D01*
X44042710Y8029907D01*
X43988635Y8021467D01*
X43950938Y8020224D01*
X43880323Y8023830D01*
X43845834Y8036316D01*
X43838648Y8053911D01*
X43819925Y8081346D01*
X43793732Y8087598D01*
X43756198Y8103478D01*
X43748816Y8132514D01*
X43747421Y8145780D01*
X43739941Y8156140D01*
X43721435Y8163951D01*
X43686965Y8169573D01*
X43631588Y8173366D01*
X43550366Y8175689D01*
X43438357Y8176901D01*
X43290621Y8177361D01*
X43131221Y8177430D01*
X42513626Y8177430D01*
X42513626Y7964079D01*
X42513626Y7750728D01*
X42917870Y7750728D01*
X43083947Y7751984D01*
X43205836Y7755778D01*
X43284199Y7762150D01*
X43319694Y7771139D01*
X43322114Y7774790D01*
X43336544Y7809285D01*
X43354197Y7830935D01*
X43391773Y7857689D01*
X43410342Y7863018D01*
X43433431Y7879164D01*
X43434404Y7885476D01*
X43454147Y7900320D01*
X43502692Y7907740D01*
X43513007Y7907934D01*
X43564962Y7902293D01*
X43590931Y7888423D01*
X43591610Y7885476D01*
X43610420Y7867229D01*
X43636526Y7863018D01*
X43673020Y7853613D01*
X43681442Y7840560D01*
X43699632Y7820636D01*
X43715129Y7818102D01*
X43734690Y7807754D01*
X43745192Y7771069D01*
X43748750Y7699590D01*
X43748816Y7683354D01*
X43745070Y7605713D01*
X43734819Y7558760D01*
X43724754Y7548606D01*
X43686656Y7531595D01*
X43650474Y7494257D01*
X43636526Y7460378D01*
X43615544Y7446514D01*
X43558143Y7438129D01*
X43501778Y7436316D01*
X43424137Y7440063D01*
X43377185Y7450313D01*
X43367030Y7460378D01*
X43352601Y7494873D01*
X43334947Y7516523D01*
X43315541Y7527647D01*
X43278959Y7536002D01*
X43219794Y7541931D01*
X43132634Y7545777D01*
X43012070Y7547885D01*
X42852691Y7548598D01*
X42829642Y7548606D01*
X42356420Y7548606D01*
X42356420Y7649667D01*
X43479320Y7649667D01*
X43488596Y7606929D01*
X43525119Y7593759D01*
X43535465Y7593522D01*
X43578203Y7602798D01*
X43591373Y7639320D01*
X43591610Y7649667D01*
X43582335Y7692405D01*
X43545812Y7705575D01*
X43535465Y7705812D01*
X43492727Y7696536D01*
X43479557Y7660014D01*
X43479320Y7649667D01*
X42356420Y7649667D01*
X42356420Y7863018D01*
X42356420Y8177430D01*
X42199214Y8177430D01*
X42042008Y8177430D01*
X42042008Y7660896D01*
X42042008Y7144362D01*
X42367649Y7144362D01*
X42515557Y7146015D01*
X42619122Y7150966D01*
X42678182Y7159204D01*
X42693290Y7168424D01*
X42712452Y7210695D01*
X42757706Y7244875D01*
X42803976Y7256652D01*
X42841811Y7270322D01*
X42850496Y7290339D01*
X42869219Y7317774D01*
X42895412Y7324026D01*
X42931992Y7309984D01*
X42940328Y7290339D01*
X42959205Y7262941D01*
X42986848Y7256652D01*
X43041208Y7244623D01*
X43075798Y7204824D01*
X43093530Y7131684D01*
X43097534Y7044905D01*
X43094392Y6967992D01*
X43086054Y6915261D01*
X43075076Y6897324D01*
X43055152Y6879134D01*
X43052618Y6863637D01*
X43033096Y6836543D01*
X42996473Y6829950D01*
X42954268Y6822262D01*
X42940328Y6807492D01*
X42921519Y6789245D01*
X42895412Y6785034D01*
X42858919Y6794439D01*
X42850496Y6807492D01*
X42831277Y6824374D01*
X42794351Y6829950D01*
X42752155Y6838182D01*
X42738206Y6854012D01*
X42732648Y6885181D01*
X42712230Y6908203D01*
X42671336Y6924241D01*
X42604349Y6934463D01*
X42505655Y6940034D01*
X42369637Y6942118D01*
X42313108Y6942240D01*
X41952176Y6942240D01*
X41952176Y6886095D01*
X41942364Y6843928D01*
X41923447Y6829950D01*
X41889242Y6813365D01*
X41862344Y6785034D01*
X41826662Y6750246D01*
X41801241Y6740118D01*
X41774696Y6725593D01*
X41772512Y6716639D01*
X41756694Y6683976D01*
X41719399Y6640677D01*
X41675864Y6601980D01*
X41641326Y6583121D01*
X41638785Y6582912D01*
X41631198Y6561827D01*
X41625108Y6498232D01*
X41620497Y6391620D01*
X41617349Y6241483D01*
X41615647Y6047312D01*
X41615306Y5886714D01*
X41615306Y5190516D01*
X40930337Y5190516D01*
X40245368Y5190516D01*
X40245368Y5134371D01*
X40236092Y5091633D01*
X40199570Y5078463D01*
X40189223Y5078226D01*
X40147018Y5070538D01*
X40133078Y5055768D01*
X40114500Y5038532D01*
X40070182Y5033751D01*
X40017245Y5040454D01*
X39972813Y5057673D01*
X39963039Y5065393D01*
X39936571Y5098163D01*
X39930956Y5111913D01*
X39914431Y5142042D01*
X39878613Y5174355D01*
X39844140Y5190465D01*
X39842728Y5190516D01*
X39828349Y5211034D01*
X39819909Y5265109D01*
X39818666Y5302806D01*
X40043246Y5302806D01*
X40059126Y5265272D01*
X40088162Y5257890D01*
X40125696Y5273770D01*
X40133078Y5302806D01*
X40117198Y5340340D01*
X40088162Y5347722D01*
X40050628Y5331842D01*
X40043246Y5302806D01*
X39818666Y5302806D01*
X39823775Y5378700D01*
X39839427Y5412725D01*
X39847395Y5415096D01*
X39881600Y5431681D01*
X39908498Y5460012D01*
X39938688Y5487515D01*
X39986724Y5501217D01*
X40065704Y5504928D01*
X40144832Y5501198D01*
X40192808Y5487468D01*
X40222910Y5460012D01*
X40234494Y5446563D01*
X40251047Y5436103D01*
X40277855Y5428257D01*
X40320200Y5422651D01*
X40383367Y5418910D01*
X40472640Y5416659D01*
X40593302Y5415524D01*
X40750639Y5415131D01*
X40856692Y5415096D01*
X41458100Y5415096D01*
X41458100Y5572302D01*
X41458100Y5729508D01*
X40503635Y5729508D01*
X39549170Y5729508D01*
X39549170Y5808111D01*
X39549170Y5886714D01*
X40503635Y5886714D01*
X41458100Y5886714D01*
X41458100Y6021462D01*
X41458100Y6156210D01*
X40481177Y6156210D01*
X39504254Y6156210D01*
X39504254Y5336493D01*
X39504864Y5098688D01*
X39506673Y4899917D01*
X39509651Y4741308D01*
X39513766Y4623987D01*
X39518988Y4549083D01*
X39525286Y4517724D01*
X39526712Y4516776D01*
X39546636Y4498586D01*
X39549170Y4483089D01*
X39567147Y4453315D01*
X39582857Y4449402D01*
X39609951Y4429879D01*
X39616544Y4393257D01*
X39624232Y4351051D01*
X39639002Y4337112D01*
X39657249Y4318302D01*
X39661460Y4292196D01*
X39652055Y4255702D01*
X39639002Y4247280D01*
X39622120Y4228061D01*
X39616544Y4191135D01*
X39604830Y4145979D01*
X39582857Y4134990D01*
X39552971Y4122863D01*
X39549170Y4112532D01*
X39530360Y4094285D01*
X39504254Y4090074D01*
X39467675Y4076031D01*
X39459338Y4056387D01*
X39439815Y4029293D01*
X39403193Y4022700D01*
X39358037Y4034413D01*
X39347048Y4056387D01*
X39328171Y4083784D01*
X39300528Y4090074D01*
X39246168Y4102102D01*
X39211578Y4141902D01*
X39193846Y4215042D01*
X39190286Y4292196D01*
X39347048Y4292196D01*
X39360207Y4256974D01*
X39403193Y4247280D01*
X39447220Y4257807D01*
X39459338Y4292196D01*
X39446179Y4327417D01*
X39403193Y4337112D01*
X39359166Y4326585D01*
X39347048Y4292196D01*
X39190286Y4292196D01*
X39189842Y4301821D01*
X39192984Y4378734D01*
X39201322Y4431464D01*
X39212300Y4449402D01*
X39232224Y4467592D01*
X39234758Y4483089D01*
X39252735Y4512863D01*
X39268445Y4516776D01*
X39278611Y4521755D01*
X39286547Y4539866D01*
X39292516Y4575864D01*
X39296782Y4634506D01*
X39299611Y4720551D01*
X39301265Y4838753D01*
X39302010Y4993871D01*
X39302132Y5123142D01*
X39302132Y5729508D01*
X39111239Y5729508D01*
X39015803Y5728070D01*
X38957392Y5722834D01*
X38928182Y5712421D01*
X38920346Y5695821D01*
X38908219Y5665934D01*
X38897888Y5662134D01*
X38888948Y5640280D01*
X38882093Y5577061D01*
X38877543Y5475986D01*
X38875517Y5340568D01*
X38875430Y5301785D01*
X38875673Y5166875D01*
X38877064Y5069385D01*
X38880599Y5001815D01*
X38887271Y4956671D01*
X38898077Y4926454D01*
X38914009Y4903668D01*
X38930554Y4886312D01*
X38974055Y4849033D01*
X39006872Y4831402D01*
X39009157Y4831188D01*
X39022324Y4810403D01*
X39030623Y4754519D01*
X39032636Y4696440D01*
X39030049Y4618198D01*
X39020878Y4576190D01*
X39003008Y4561958D01*
X38998949Y4561692D01*
X38969063Y4549565D01*
X38965262Y4539234D01*
X38946452Y4520987D01*
X38920346Y4516776D01*
X38883767Y4502733D01*
X38875430Y4483089D01*
X38858385Y4458173D01*
X38803986Y4449463D01*
X38796827Y4449402D01*
X38738691Y4456707D01*
X38718366Y4480021D01*
X38718224Y4483089D01*
X38705557Y4512967D01*
X38694745Y4516776D01*
X38651868Y4535770D01*
X38607683Y4582579D01*
X38573613Y4641943D01*
X38561018Y4695419D01*
X38564173Y4718898D01*
X38763140Y4718898D01*
X38776299Y4683676D01*
X38819285Y4673982D01*
X38863312Y4684509D01*
X38875430Y4718898D01*
X38862271Y4754119D01*
X38819285Y4763814D01*
X38775258Y4753287D01*
X38763140Y4718898D01*
X38564173Y4718898D01*
X38567434Y4743164D01*
X38582924Y4763793D01*
X38583476Y4763814D01*
X38601510Y4782692D01*
X38605934Y4810334D01*
X38621208Y4863364D01*
X38657280Y4906246D01*
X38694162Y4921020D01*
X38703233Y4941119D01*
X38710119Y5002109D01*
X38714874Y5105033D01*
X38717547Y5250931D01*
X38718224Y5403867D01*
X38718224Y5886714D01*
X39010178Y5886714D01*
X39302132Y5886714D01*
X39302132Y6021462D01*
X39302132Y6156210D01*
X38796827Y6156210D01*
X38291522Y6156210D01*
X38291522Y5864256D01*
X38293188Y5739395D01*
X38297950Y5646087D01*
X38305450Y5588962D01*
X38313980Y5572302D01*
X38333904Y5554112D01*
X38336438Y5538615D01*
X38349412Y5508742D01*
X38360500Y5504928D01*
X38406652Y5484338D01*
X38436847Y5425872D01*
X38448651Y5334487D01*
X38448728Y5325264D01*
X38438729Y5228853D01*
X38407590Y5170162D01*
X38353601Y5146412D01*
X38338042Y5145600D01*
X38300207Y5131930D01*
X38291522Y5111913D01*
X38274477Y5086997D01*
X38220078Y5078287D01*
X38212919Y5078226D01*
X38154783Y5085531D01*
X38134458Y5108845D01*
X38134316Y5111913D01*
X38121341Y5141786D01*
X38110254Y5145600D01*
X38072156Y5162611D01*
X38035973Y5199948D01*
X38022026Y5233828D01*
X38005880Y5256916D01*
X37999568Y5257890D01*
X37985891Y5277900D01*
X37977933Y5328260D01*
X37977110Y5353993D01*
X37977635Y5358951D01*
X38179232Y5358951D01*
X38188508Y5316213D01*
X38225030Y5303043D01*
X38235377Y5302806D01*
X38278115Y5312082D01*
X38291285Y5348604D01*
X38291522Y5358951D01*
X38282246Y5401689D01*
X38245724Y5414859D01*
X38235377Y5415096D01*
X38192639Y5405820D01*
X38179469Y5369297D01*
X38179232Y5358951D01*
X37977635Y5358951D01*
X37985025Y5428741D01*
X38011861Y5474171D01*
X38022026Y5482470D01*
X38056814Y5518152D01*
X38066942Y5543573D01*
X38085022Y5569012D01*
X38100629Y5572302D01*
X38113813Y5578412D01*
X38123132Y5600906D01*
X38129208Y5646025D01*
X38132667Y5720013D01*
X38134133Y5829114D01*
X38134316Y5909172D01*
X38133705Y6041016D01*
X38131456Y6134200D01*
X38126944Y6194965D01*
X38119545Y6229554D01*
X38108635Y6244212D01*
X38100629Y6246042D01*
X38070756Y6259016D01*
X38066942Y6270104D01*
X38048495Y6311011D01*
X38006292Y6346035D01*
X37965881Y6358332D01*
X37923891Y6372238D01*
X37883463Y6403465D01*
X37864831Y6436275D01*
X37864820Y6436935D01*
X37848295Y6467064D01*
X37812477Y6499377D01*
X37778004Y6515487D01*
X37776592Y6515538D01*
X37753517Y6532792D01*
X37752530Y6539600D01*
X37738100Y6574095D01*
X37720447Y6595745D01*
X37703683Y6605370D01*
X37977110Y6605370D01*
X37994200Y6583565D01*
X37999568Y6582912D01*
X38021117Y6565613D01*
X38022026Y6558850D01*
X38041187Y6516579D01*
X38086442Y6482398D01*
X38132712Y6470622D01*
X38170061Y6461128D01*
X38179232Y6447216D01*
X38179627Y6430846D01*
X38182817Y6416665D01*
X38191813Y6404513D01*
X38209623Y6394233D01*
X38239257Y6385664D01*
X38283725Y6378648D01*
X38346035Y6373027D01*
X38429197Y6368641D01*
X38536220Y6365332D01*
X38670115Y6362940D01*
X38833889Y6361307D01*
X39030554Y6360274D01*
X39263117Y6359682D01*
X39534588Y6359372D01*
X39846739Y6359186D01*
X41458100Y6358332D01*
X41458100Y6493080D01*
X41458100Y6627828D01*
X39717605Y6627828D01*
X39353073Y6627539D01*
X39030444Y6626675D01*
X38750098Y6625242D01*
X38512416Y6623244D01*
X38317778Y6620686D01*
X38166564Y6617573D01*
X38059154Y6613910D01*
X37995928Y6609702D01*
X37977110Y6605370D01*
X37703683Y6605370D01*
X37703535Y6605455D01*
X37671318Y6613074D01*
X37619082Y6618831D01*
X37542111Y6622954D01*
X37435690Y6625671D01*
X37295105Y6627211D01*
X37115641Y6627801D01*
X37057936Y6627828D01*
X36427508Y6627828D01*
X36427508Y7296610D01*
X36427391Y7487638D01*
X36426830Y7638735D01*
X36425503Y7754884D01*
X36423093Y7841072D01*
X36419279Y7902282D01*
X36413742Y7943498D01*
X36406163Y7969706D01*
X36396223Y7985889D01*
X36383602Y7997033D01*
X36382592Y7997766D01*
X36347804Y8033448D01*
X36337676Y8058869D01*
X36319595Y8084308D01*
X36303989Y8087598D01*
X36283673Y8098687D01*
X36273214Y8137599D01*
X36271192Y8188659D01*
X36427508Y8188659D01*
X36436783Y8145921D01*
X36473306Y8132751D01*
X36483653Y8132514D01*
X36526391Y8141790D01*
X36539561Y8178312D01*
X36539798Y8188659D01*
X36530522Y8231397D01*
X36493999Y8244567D01*
X36483653Y8244804D01*
X36440915Y8235528D01*
X36427745Y8199006D01*
X36427508Y8188659D01*
X36271192Y8188659D01*
X36270302Y8211117D01*
X36273326Y8285606D01*
X36283938Y8323957D01*
X36303989Y8334636D01*
X36333862Y8347611D01*
X36337676Y8358698D01*
X36358111Y8403498D01*
X36412673Y8434817D01*
X36491245Y8446919D01*
X36493278Y8446926D01*
X36550121Y8442027D01*
X36582129Y8429764D01*
X36584714Y8424468D01*
X36603933Y8407586D01*
X36640859Y8402010D01*
X36683597Y8392734D01*
X36696767Y8356212D01*
X36697004Y8345865D01*
X36704691Y8303660D01*
X36719462Y8289720D01*
X36734306Y8269978D01*
X36741726Y8221433D01*
X36741920Y8211117D01*
X36736279Y8159163D01*
X36722409Y8133193D01*
X36719462Y8132514D01*
X36701428Y8113636D01*
X36697004Y8085994D01*
X36681730Y8032964D01*
X36645658Y7990082D01*
X36608776Y7975308D01*
X36600571Y7956141D01*
X36594129Y7897784D01*
X36589398Y7798954D01*
X36586327Y7658365D01*
X36584862Y7474734D01*
X36584714Y7380171D01*
X36584714Y6785034D01*
X36753149Y6785034D01*
X36921584Y6785034D01*
X36921584Y7717041D01*
X36922121Y7973310D01*
X36923718Y8189927D01*
X36926351Y8365953D01*
X36929999Y8500451D01*
X36934638Y8592480D01*
X36940247Y8641101D01*
X36944042Y8649048D01*
X36963966Y8667238D01*
X36966500Y8682735D01*
X36986023Y8709829D01*
X37022645Y8716422D01*
X37078790Y8716422D01*
X37078790Y7750728D01*
X37078790Y6785034D01*
X37235996Y6785034D01*
X37393202Y6785034D01*
X37550408Y6785034D01*
X37651469Y6785034D01*
X37752530Y6785034D01*
X37909736Y6785034D01*
X38605934Y6785034D01*
X38821854Y6785750D01*
X38999617Y6787870D01*
X39137801Y6791345D01*
X39234986Y6796132D01*
X39289751Y6802184D01*
X39302132Y6807492D01*
X40088162Y6807492D01*
X40110370Y6800481D01*
X40176024Y6794718D01*
X40283670Y6790251D01*
X40431855Y6787127D01*
X40619125Y6785394D01*
X40773131Y6785034D01*
X41458100Y6785034D01*
X41458100Y7436316D01*
X41457335Y7643788D01*
X41455075Y7813491D01*
X41451375Y7943865D01*
X41446288Y8033349D01*
X41439868Y8080382D01*
X41435642Y8087598D01*
X41421579Y8067674D01*
X41413757Y8017903D01*
X41413184Y7997766D01*
X41408203Y7941513D01*
X41395760Y7910225D01*
X41390726Y7907934D01*
X41372479Y7889124D01*
X41368268Y7863018D01*
X41354226Y7826439D01*
X41334581Y7818102D01*
X41307488Y7798579D01*
X41300894Y7761957D01*
X41293207Y7719751D01*
X41278436Y7705812D01*
X41260402Y7686934D01*
X41255978Y7659292D01*
X41242761Y7611450D01*
X41212257Y7568118D01*
X41178191Y7548621D01*
X41177375Y7548606D01*
X41142296Y7529367D01*
X41112259Y7483579D01*
X41098803Y7429137D01*
X41098772Y7426691D01*
X41090748Y7383733D01*
X41074710Y7368942D01*
X41040892Y7354220D01*
X41004622Y7322309D01*
X40986539Y7291596D01*
X40986482Y7290339D01*
X40967870Y7256364D01*
X40924916Y7225592D01*
X40876945Y7211747D01*
X40875796Y7211736D01*
X40838451Y7201979D01*
X40829276Y7187674D01*
X40812265Y7149576D01*
X40774927Y7113393D01*
X40741048Y7099446D01*
X40717960Y7083300D01*
X40716986Y7076988D01*
X40698176Y7058741D01*
X40672070Y7054530D01*
X40635491Y7040488D01*
X40627154Y7020843D01*
X40607631Y6993749D01*
X40571009Y6987156D01*
X40528804Y6979468D01*
X40514864Y6964698D01*
X40495645Y6947816D01*
X40458719Y6942240D01*
X40416514Y6934552D01*
X40402574Y6919782D01*
X40383355Y6902900D01*
X40346429Y6897324D01*
X40301273Y6885610D01*
X40290284Y6863637D01*
X40277058Y6841433D01*
X40232087Y6831320D01*
X40189223Y6829950D01*
X40128953Y6825489D01*
X40092799Y6814204D01*
X40088162Y6807492D01*
X39302132Y6807492D01*
X39282390Y6822336D01*
X39233845Y6829756D01*
X39223529Y6829950D01*
X39165393Y6837255D01*
X39145068Y6860569D01*
X39144926Y6863637D01*
X39130092Y6887061D01*
X39080920Y6896713D01*
X39055094Y6897324D01*
X38998841Y6902305D01*
X38967553Y6914748D01*
X38965262Y6919782D01*
X38946452Y6938029D01*
X38920346Y6942240D01*
X38883852Y6951645D01*
X38875430Y6964698D01*
X38856211Y6981580D01*
X38819285Y6987156D01*
X38777088Y6995388D01*
X38763140Y7011218D01*
X38744693Y7052125D01*
X38702490Y7087149D01*
X38662079Y7099446D01*
X38615222Y7115551D01*
X38575103Y7152394D01*
X38561018Y7187674D01*
X38543764Y7210749D01*
X38536956Y7211736D01*
X38503137Y7226458D01*
X38466868Y7258369D01*
X38448785Y7289081D01*
X38448728Y7290339D01*
X38432203Y7320468D01*
X38396385Y7352781D01*
X38361912Y7368891D01*
X38360500Y7368942D01*
X38339162Y7387106D01*
X38336438Y7402629D01*
X38324311Y7432515D01*
X38313980Y7436316D01*
X38294056Y7454506D01*
X38291522Y7470003D01*
X38273545Y7499777D01*
X38257835Y7503690D01*
X38230400Y7522413D01*
X38224148Y7548606D01*
X38214743Y7585100D01*
X38201690Y7593522D01*
X38181766Y7611712D01*
X38179232Y7627209D01*
X38167105Y7657095D01*
X38156774Y7660896D01*
X38138527Y7679706D01*
X38134316Y7705812D01*
X38120274Y7742391D01*
X38100629Y7750728D01*
X38073535Y7770251D01*
X38066942Y7806873D01*
X38059254Y7849079D01*
X38044484Y7863018D01*
X38029640Y7882760D01*
X38022220Y7931305D01*
X38022026Y7941621D01*
X38016385Y7993575D01*
X38002515Y8019545D01*
X37999568Y8020224D01*
X37984724Y8039966D01*
X37977304Y8088511D01*
X37977110Y8098827D01*
X37969805Y8156963D01*
X37946491Y8177288D01*
X37943423Y8177430D01*
X37933870Y8172635D01*
X37926274Y8155280D01*
X37920421Y8120914D01*
X37916095Y8065084D01*
X37913080Y7983336D01*
X37911162Y7871219D01*
X37910123Y7724280D01*
X37909751Y7538066D01*
X37909736Y7481232D01*
X37909736Y6785034D01*
X37752530Y6785034D01*
X37752530Y8547987D01*
X37752504Y8581674D01*
X38066942Y8581674D01*
X38067904Y8471097D01*
X38071438Y8398288D01*
X38078514Y8356128D01*
X38090104Y8337499D01*
X38100629Y8334636D01*
X38122832Y8321410D01*
X38132946Y8276439D01*
X38134316Y8233575D01*
X38138777Y8173305D01*
X38150062Y8137151D01*
X38156774Y8132514D01*
X38171618Y8112772D01*
X38179038Y8064227D01*
X38179232Y8053911D01*
X38184873Y8001957D01*
X38198743Y7975987D01*
X38201690Y7975308D01*
X38218572Y7956089D01*
X38224148Y7919163D01*
X38235862Y7874007D01*
X38257835Y7863018D01*
X38284929Y7843495D01*
X38291522Y7806873D01*
X38299210Y7764667D01*
X38313980Y7750728D01*
X38332227Y7731918D01*
X38336438Y7705812D01*
X38350480Y7669233D01*
X38370125Y7660896D01*
X38400003Y7648229D01*
X38403812Y7637417D01*
X38419630Y7604754D01*
X38456925Y7561455D01*
X38500461Y7522758D01*
X38534998Y7503899D01*
X38537539Y7503690D01*
X38558363Y7485516D01*
X38561018Y7470003D01*
X38573145Y7440117D01*
X38583476Y7436316D01*
X38605025Y7419017D01*
X38605934Y7412254D01*
X38622945Y7374156D01*
X38660283Y7337973D01*
X38694162Y7324026D01*
X38717237Y7306772D01*
X38718224Y7299964D01*
X38737385Y7257693D01*
X38782640Y7223513D01*
X38828910Y7211736D01*
X38866744Y7198066D01*
X38875430Y7178049D01*
X38894153Y7150614D01*
X38920346Y7144362D01*
X38956839Y7134957D01*
X38965262Y7121904D01*
X38984481Y7105022D01*
X39021407Y7099446D01*
X39063613Y7091758D01*
X39077552Y7076988D01*
X39097294Y7062144D01*
X39145839Y7054724D01*
X39156155Y7054530D01*
X39214291Y7047225D01*
X39234616Y7023911D01*
X39234758Y7020843D01*
X39246779Y6999658D01*
X39288399Y6989312D01*
X39347048Y6987156D01*
X39411103Y6983116D01*
X39451760Y6972788D01*
X39459338Y6964698D01*
X39480866Y6954705D01*
X39541834Y6947351D01*
X39636818Y6943108D01*
X39717605Y6942240D01*
X39832522Y6944112D01*
X39917092Y6949413D01*
X39965890Y6957673D01*
X39975872Y6964698D01*
X39996070Y6977509D01*
X40047714Y6985640D01*
X40088162Y6987156D01*
X40158777Y6990762D01*
X40193267Y7003248D01*
X40200452Y7020843D01*
X40217497Y7045758D01*
X40271896Y7054469D01*
X40279055Y7054530D01*
X40331009Y7060171D01*
X40356979Y7074041D01*
X40357658Y7076988D01*
X40376877Y7093870D01*
X40413803Y7099446D01*
X40456009Y7107134D01*
X40469948Y7121904D01*
X40488758Y7140151D01*
X40514864Y7144362D01*
X40551443Y7158404D01*
X40559780Y7178049D01*
X40577757Y7207823D01*
X40593467Y7211736D01*
X40623354Y7223863D01*
X40627154Y7234194D01*
X40645964Y7252441D01*
X40672070Y7256652D01*
X40708649Y7270694D01*
X40716986Y7290339D01*
X40729961Y7320212D01*
X40741048Y7324026D01*
X40779146Y7341037D01*
X40815329Y7378375D01*
X40829276Y7412254D01*
X40845422Y7435343D01*
X40851734Y7436316D01*
X40871658Y7454506D01*
X40874192Y7470003D01*
X40887167Y7499876D01*
X40898254Y7503690D01*
X40939161Y7522137D01*
X40974185Y7564339D01*
X40986482Y7604751D01*
X41002587Y7651608D01*
X41039430Y7691727D01*
X41074710Y7705812D01*
X41092794Y7725021D01*
X41098772Y7761957D01*
X41106460Y7804163D01*
X41121230Y7818102D01*
X41139477Y7836912D01*
X41143688Y7863018D01*
X41157731Y7899597D01*
X41177375Y7907934D01*
X41204469Y7927457D01*
X41211062Y7964079D01*
X41218750Y8006285D01*
X41233520Y8020224D01*
X41248364Y8039966D01*
X41255784Y8088511D01*
X41255978Y8098827D01*
X41261619Y8150781D01*
X41275489Y8176751D01*
X41278436Y8177430D01*
X41287018Y8199369D01*
X41293686Y8263181D01*
X41298275Y8365856D01*
X41300617Y8504384D01*
X41300854Y8570445D01*
X41615306Y8570445D01*
X41615384Y8246780D01*
X41615653Y7965184D01*
X41616170Y7722812D01*
X41616988Y7516818D01*
X41618164Y7344356D01*
X41619752Y7202579D01*
X41621808Y7088642D01*
X41624385Y6999699D01*
X41627541Y6932903D01*
X41631329Y6885409D01*
X41635804Y6854371D01*
X41641022Y6836942D01*
X41647039Y6830276D01*
X41648993Y6829950D01*
X41678871Y6842617D01*
X41682680Y6853429D01*
X41697287Y6883914D01*
X41732942Y6927078D01*
X41737804Y6932032D01*
X41781305Y6969311D01*
X41814122Y6986942D01*
X41816407Y6987156D01*
X41834055Y7006369D01*
X41839886Y7043301D01*
X42850496Y7043301D01*
X42861023Y6999274D01*
X42895412Y6987156D01*
X42930634Y7000315D01*
X42940328Y7043301D01*
X42929801Y7087328D01*
X42895412Y7099446D01*
X42860191Y7086287D01*
X42850496Y7043301D01*
X41839886Y7043301D01*
X41847574Y7085507D01*
X41862344Y7099446D01*
X41867220Y7121831D01*
X41871514Y7188700D01*
X41875218Y7299627D01*
X41878328Y7454183D01*
X41880837Y7651941D01*
X41882739Y7892473D01*
X41884028Y8175351D01*
X41884195Y8256033D01*
X43906022Y8256033D01*
X43911663Y8204079D01*
X43925533Y8178109D01*
X43928480Y8177430D01*
X43948405Y8195620D01*
X43950938Y8211117D01*
X43968915Y8240891D01*
X43984625Y8244804D01*
X44014512Y8256931D01*
X44018312Y8267262D01*
X44000122Y8287186D01*
X43984625Y8289720D01*
X43954739Y8301847D01*
X43950938Y8312178D01*
X43933848Y8333983D01*
X43928480Y8334636D01*
X43913636Y8314894D01*
X43906216Y8266349D01*
X43906022Y8256033D01*
X41884195Y8256033D01*
X41884699Y8500148D01*
X41884802Y8705193D01*
X41884802Y10310940D01*
X41750054Y10310940D01*
X41615306Y10310940D01*
X41615306Y8570445D01*
X41300854Y8570445D01*
X41300894Y8581674D01*
X41299675Y8736139D01*
X41296130Y8856177D01*
X41290426Y8938778D01*
X41282730Y8980933D01*
X41278436Y8985918D01*
X41265043Y9005991D01*
X41257009Y9056777D01*
X41255978Y9086979D01*
X41251518Y9147250D01*
X41240232Y9183403D01*
X41233520Y9188040D01*
X41216638Y9207259D01*
X41211062Y9244185D01*
X41199348Y9289341D01*
X41177375Y9300330D01*
X41149941Y9319053D01*
X41143688Y9345246D01*
X41134283Y9381740D01*
X41121230Y9390162D01*
X41104348Y9409381D01*
X41098772Y9446307D01*
X41087058Y9491463D01*
X41065085Y9502452D01*
X41035207Y9515119D01*
X41031398Y9525931D01*
X41015580Y9558594D01*
X40978285Y9601893D01*
X40934749Y9640590D01*
X40900212Y9659449D01*
X40897671Y9659658D01*
X40875051Y9676854D01*
X40874192Y9683137D01*
X40858374Y9715800D01*
X40821079Y9759099D01*
X40777543Y9797796D01*
X40743006Y9816655D01*
X40740465Y9816864D01*
X40717845Y9834060D01*
X40716986Y9840343D01*
X40699357Y9878432D01*
X40656978Y9922416D01*
X40605615Y9958794D01*
X40561033Y9974069D01*
X40560801Y9974070D01*
X40523421Y9987874D01*
X40514864Y10007757D01*
X40495341Y10034851D01*
X40458719Y10041444D01*
X40416514Y10049132D01*
X40402574Y10063902D01*
X40382832Y10078746D01*
X40334287Y10086166D01*
X40323971Y10086360D01*
X40265835Y10093665D01*
X40245510Y10116979D01*
X40245368Y10120047D01*
X40228323Y10144963D01*
X40173924Y10153673D01*
X40166765Y10153734D01*
X40114811Y10159375D01*
X40088841Y10173245D01*
X40088162Y10176192D01*
X40066243Y10184861D01*
X40002568Y10191576D01*
X39900265Y10196158D01*
X39762459Y10198429D01*
X39695147Y10198650D01*
X39543440Y10197398D01*
X39425930Y10193759D01*
X39345744Y10187913D01*
X39306008Y10180039D01*
X39302132Y10176192D01*
X39282390Y10161348D01*
X39233845Y10153928D01*
X39223529Y10153734D01*
X39165393Y10146429D01*
X39145068Y10123115D01*
X39144926Y10120047D01*
X39125403Y10092954D01*
X39088781Y10086360D01*
X39046575Y10078673D01*
X39032636Y10063902D01*
X39013417Y10047020D01*
X38976491Y10041444D01*
X38931335Y10029731D01*
X38920346Y10007757D01*
X38901115Y9980499D01*
X38869159Y9974070D01*
X38816410Y9956781D01*
X38785598Y9929154D01*
X38740415Y9893802D01*
X38702037Y9884238D01*
X38662271Y9875501D01*
X38650850Y9860759D01*
X38635032Y9828097D01*
X38597737Y9784798D01*
X38554201Y9746100D01*
X38519664Y9727241D01*
X38517123Y9727032D01*
X38495428Y9709260D01*
X38493644Y9698303D01*
X38477059Y9664098D01*
X38448728Y9637200D01*
X38413376Y9592017D01*
X38403812Y9553639D01*
X38394860Y9513877D01*
X38379750Y9502452D01*
X38337479Y9483291D01*
X38303299Y9438037D01*
X38291522Y9391766D01*
X38277852Y9353932D01*
X38257835Y9345246D01*
X38230741Y9325723D01*
X38224148Y9289101D01*
X38216460Y9246896D01*
X38201690Y9232956D01*
X38186846Y9213214D01*
X38179426Y9164669D01*
X38179232Y9154353D01*
X38173591Y9102399D01*
X38159721Y9076429D01*
X38156774Y9075750D01*
X38144475Y9055445D01*
X38136318Y9003065D01*
X38134316Y8952231D01*
X38131292Y8877742D01*
X38120679Y8839392D01*
X38100629Y8828712D01*
X38085550Y8821656D01*
X38075622Y8795741D01*
X38069873Y8743848D01*
X38067332Y8658858D01*
X38066942Y8581674D01*
X37752504Y8581674D01*
X37752245Y8915105D01*
X37751392Y9240284D01*
X37749977Y9523152D01*
X37748763Y9670887D01*
X37909736Y9670887D01*
X37909973Y9475205D01*
X37910830Y9319950D01*
X37912530Y9200635D01*
X37915291Y9112770D01*
X37919335Y9051870D01*
X37924883Y9013447D01*
X37932155Y8993012D01*
X37941373Y8986079D01*
X37943423Y8985918D01*
X37965626Y8999144D01*
X37975740Y9044115D01*
X37977110Y9086979D01*
X37981571Y9147250D01*
X37992856Y9183403D01*
X37999568Y9188040D01*
X38016450Y9207259D01*
X38022026Y9244185D01*
X38029714Y9286391D01*
X38044484Y9300330D01*
X38062731Y9319140D01*
X38066942Y9345246D01*
X38080984Y9381826D01*
X38100629Y9390162D01*
X38127723Y9409685D01*
X38134316Y9446307D01*
X38142004Y9488513D01*
X38156774Y9502452D01*
X38174808Y9521330D01*
X38179232Y9548972D01*
X38194506Y9602003D01*
X38230578Y9644884D01*
X38267460Y9659658D01*
X38290535Y9676912D01*
X38291522Y9683720D01*
X38308533Y9721818D01*
X38345871Y9758001D01*
X38379750Y9771948D01*
X38399066Y9790812D01*
X38403812Y9818468D01*
X38421834Y9877214D01*
X38465979Y9918879D01*
X38504873Y9929154D01*
X38546863Y9943060D01*
X38587291Y9974287D01*
X38605922Y10007098D01*
X38605934Y10007757D01*
X38624546Y10041732D01*
X38667500Y10072504D01*
X38715471Y10086350D01*
X38716620Y10086360D01*
X38753965Y10096117D01*
X38763140Y10110422D01*
X38782301Y10152693D01*
X38827556Y10186874D01*
X38873826Y10198650D01*
X38911182Y10207764D01*
X38920346Y10221108D01*
X38939565Y10237990D01*
X38976491Y10243566D01*
X39021647Y10255280D01*
X39032636Y10277253D01*
X39045862Y10299457D01*
X39090833Y10309570D01*
X39133697Y10310940D01*
X39193967Y10315401D01*
X39230121Y10326687D01*
X39234758Y10333398D01*
X40200452Y10333398D01*
X40220194Y10318554D01*
X40268739Y10311134D01*
X40279055Y10310940D01*
X40337191Y10303635D01*
X40357516Y10280321D01*
X40357658Y10277253D01*
X40377181Y10250160D01*
X40413803Y10243566D01*
X40456009Y10235879D01*
X40469948Y10221108D01*
X40488758Y10202861D01*
X40514864Y10198650D01*
X40551358Y10189245D01*
X40559780Y10176192D01*
X40578999Y10159310D01*
X40615925Y10153734D01*
X40661081Y10142021D01*
X40672070Y10120047D01*
X40690947Y10092650D01*
X40718590Y10086360D01*
X40766433Y10073143D01*
X40809765Y10042639D01*
X40829261Y10008573D01*
X40829276Y10007757D01*
X40844445Y9980334D01*
X40876585Y9947530D01*
X40905644Y9929393D01*
X40907879Y9929154D01*
X40935302Y9913985D01*
X40968107Y9881845D01*
X40986243Y9852786D01*
X40986482Y9850551D01*
X41001651Y9823128D01*
X41033791Y9790323D01*
X41062850Y9772187D01*
X41065085Y9771948D01*
X41095214Y9755423D01*
X41127527Y9719605D01*
X41143637Y9685132D01*
X41143688Y9683720D01*
X41161853Y9662382D01*
X41177375Y9659658D01*
X41204810Y9640935D01*
X41211062Y9614742D01*
X41220467Y9578249D01*
X41233520Y9569826D01*
X41250402Y9550607D01*
X41255978Y9513681D01*
X41263666Y9471476D01*
X41278436Y9457536D01*
X41295318Y9438317D01*
X41300894Y9401391D01*
X41312608Y9356235D01*
X41334581Y9345246D01*
X41361675Y9325723D01*
X41368268Y9289101D01*
X41375956Y9246896D01*
X41390726Y9232956D01*
X41405570Y9213214D01*
X41412990Y9164669D01*
X41413184Y9154353D01*
X41418825Y9102399D01*
X41432695Y9076429D01*
X41435642Y9075750D01*
X41442846Y9097933D01*
X41448729Y9163414D01*
X41453233Y9270596D01*
X41456304Y9417880D01*
X41457885Y9603665D01*
X41458100Y9715803D01*
X41458100Y10310940D01*
X41458100Y10355856D01*
X40829276Y10355856D01*
X40626140Y10355064D01*
X40460561Y10352727D01*
X40334178Y10348904D01*
X40248631Y10343653D01*
X40205559Y10337032D01*
X40200452Y10333398D01*
X39234758Y10333398D01*
X39212562Y10340504D01*
X39146991Y10346325D01*
X39039568Y10350812D01*
X38891816Y10353911D01*
X38705259Y10355572D01*
X38572247Y10355856D01*
X37909736Y10355856D01*
X37909736Y9670887D01*
X37748763Y9670887D01*
X37748003Y9763335D01*
X37745477Y9960460D01*
X37742402Y10114155D01*
X37738784Y10224046D01*
X37734627Y10289759D01*
X37730072Y10310940D01*
X37708522Y10293641D01*
X37707614Y10286878D01*
X37692891Y10253060D01*
X37660981Y10216790D01*
X37630268Y10198707D01*
X37629011Y10198650D01*
X37603094Y10184644D01*
X37582491Y10166567D01*
X37576361Y10155076D01*
X37571040Y10131784D01*
X37566475Y10093804D01*
X37562611Y10038246D01*
X37559394Y9962223D01*
X37556770Y9862848D01*
X37554684Y9737232D01*
X37553082Y9582487D01*
X37551910Y9395725D01*
X37551113Y9174058D01*
X37550638Y8914599D01*
X37550429Y8614458D01*
X37550408Y8459759D01*
X37550408Y6785034D01*
X37393202Y6785034D01*
X37393202Y7773186D01*
X37393202Y8761338D01*
X36549423Y8761338D01*
X36326511Y8761093D01*
X36144434Y8760260D01*
X35999112Y8758688D01*
X35886465Y8756228D01*
X35802414Y8752731D01*
X35742879Y8748047D01*
X35703780Y8742027D01*
X35681039Y8734521D01*
X35673561Y8729255D01*
X35647093Y8696485D01*
X35641478Y8682735D01*
X35627472Y8656819D01*
X35609395Y8636215D01*
X35572093Y8616897D01*
X35517986Y8606303D01*
X35463558Y8605257D01*
X35425293Y8614584D01*
X35416898Y8626590D01*
X35398088Y8644837D01*
X35371982Y8649048D01*
X35335402Y8663090D01*
X35327066Y8682735D01*
X35309089Y8712509D01*
X35293379Y8716422D01*
X35273818Y8726771D01*
X35263316Y8763455D01*
X35259758Y8834934D01*
X35259692Y8851170D01*
X35260681Y8873628D01*
X35416898Y8873628D01*
X35430057Y8838407D01*
X35473043Y8828712D01*
X35517070Y8839239D01*
X35529188Y8873628D01*
X35516029Y8908850D01*
X35473043Y8918544D01*
X35429016Y8908017D01*
X35416898Y8873628D01*
X35260681Y8873628D01*
X35263356Y8934375D01*
X35274948Y8977423D01*
X35288421Y8985918D01*
X35322626Y9002503D01*
X35349524Y9030834D01*
X35379714Y9058338D01*
X35427749Y9072039D01*
X35506730Y9075750D01*
X35585857Y9072020D01*
X35633834Y9058290D01*
X35663936Y9030834D01*
X35675411Y9017496D01*
X35691804Y9007095D01*
X35718346Y8999267D01*
X35760267Y8993647D01*
X35822798Y8989871D01*
X35911169Y8987575D01*
X36030610Y8986395D01*
X36186351Y8985966D01*
X36308947Y8985918D01*
X36921584Y8985918D01*
X36921584Y9188040D01*
X36921584Y9390162D01*
X36550006Y9390162D01*
X36412756Y9389938D01*
X36313073Y9388634D01*
X36243608Y9385301D01*
X36197012Y9378988D01*
X36165936Y9368746D01*
X36143032Y9353627D01*
X36123304Y9335038D01*
X36086025Y9291537D01*
X36068394Y9258720D01*
X36068180Y9256435D01*
X36047395Y9243268D01*
X35991511Y9234969D01*
X35933432Y9232956D01*
X35855790Y9236703D01*
X35808838Y9246953D01*
X35798684Y9257018D01*
X35781673Y9295116D01*
X35744335Y9331299D01*
X35710456Y9345246D01*
X35696591Y9366229D01*
X35688207Y9423629D01*
X35687478Y9446307D01*
X35843600Y9446307D01*
X35852875Y9403569D01*
X35889398Y9390399D01*
X35899745Y9390162D01*
X35942483Y9399438D01*
X35955653Y9435961D01*
X35955890Y9446307D01*
X35946614Y9489045D01*
X35910091Y9502215D01*
X35899745Y9502452D01*
X35857007Y9493176D01*
X35843837Y9456654D01*
X35843600Y9446307D01*
X35687478Y9446307D01*
X35686394Y9479994D01*
X35688981Y9558236D01*
X35698152Y9600244D01*
X35716022Y9614476D01*
X35720081Y9614742D01*
X35749967Y9626869D01*
X35753768Y9637200D01*
X35772577Y9655447D01*
X35798684Y9659658D01*
X35835263Y9673701D01*
X35843600Y9693345D01*
X35860645Y9718261D01*
X35915044Y9726971D01*
X35922203Y9727032D01*
X35980339Y9719727D01*
X36000664Y9696413D01*
X36000806Y9693345D01*
X36016225Y9663516D01*
X36029535Y9659658D01*
X36063740Y9643073D01*
X36090638Y9614742D01*
X36103674Y9599847D01*
X36122388Y9588661D01*
X36152787Y9580657D01*
X36200879Y9575305D01*
X36272670Y9572077D01*
X36374170Y9570443D01*
X36511384Y9569876D01*
X36600901Y9569826D01*
X37078790Y9569826D01*
X37078790Y9277872D01*
X37078790Y8985918D01*
X37235996Y8985918D01*
X37393202Y8985918D01*
X37393202Y9457536D01*
X37392817Y9616747D01*
X37391409Y9736403D01*
X37388593Y9821858D01*
X37383989Y9878469D01*
X37377212Y9911592D01*
X37367881Y9926582D01*
X37359515Y9929154D01*
X37329628Y9941281D01*
X37325828Y9951612D01*
X37304300Y9961605D01*
X37243332Y9968959D01*
X37148348Y9973202D01*
X37067561Y9974070D01*
X36952644Y9972198D01*
X36868074Y9966897D01*
X36819276Y9958637D01*
X36809294Y9951612D01*
X36791995Y9930063D01*
X36785232Y9929154D01*
X36747134Y9912143D01*
X36710951Y9874806D01*
X36697004Y9840926D01*
X36676021Y9827062D01*
X36618621Y9818677D01*
X36562256Y9816864D01*
X36479051Y9820529D01*
X36436003Y9832121D01*
X36427508Y9845593D01*
X36410923Y9879799D01*
X36382592Y9906696D01*
X36351322Y9953120D01*
X36335763Y10024724D01*
X36335774Y10030215D01*
X36494882Y10030215D01*
X36505409Y9986188D01*
X36539798Y9974070D01*
X36575019Y9987229D01*
X36584714Y10030215D01*
X36574187Y10074242D01*
X36539798Y10086360D01*
X36504576Y10073201D01*
X36494882Y10030215D01*
X36335774Y10030215D01*
X36335916Y10104612D01*
X36351782Y10175887D01*
X36382592Y10221108D01*
X36417380Y10256790D01*
X36427508Y10282211D01*
X36447476Y10301628D01*
X36508652Y10310334D01*
X36539798Y10310940D01*
X36605194Y10306689D01*
X36645318Y10295677D01*
X36652088Y10287461D01*
X36666695Y10256976D01*
X36702350Y10213812D01*
X36707212Y10208858D01*
X36731419Y10186720D01*
X36757606Y10171471D01*
X36794147Y10161829D01*
X36849416Y10156514D01*
X36931788Y10154243D01*
X37049638Y10153737D01*
X37067561Y10153734D01*
X37190513Y10154108D01*
X37276925Y10156083D01*
X37335170Y10160941D01*
X37373625Y10169963D01*
X37400662Y10184430D01*
X37424657Y10205622D01*
X37427910Y10208858D01*
X37465851Y10259489D01*
X37482955Y10307383D01*
X37483034Y10309919D01*
X37492902Y10346953D01*
X37507096Y10355856D01*
X37545194Y10372867D01*
X37581377Y10410205D01*
X37595324Y10444084D01*
X37612176Y10467164D01*
X37618803Y10468146D01*
X37649288Y10482753D01*
X37692452Y10518408D01*
X37697406Y10523270D01*
X37752530Y10578395D01*
X37752530Y10782558D01*
X37977110Y10782558D01*
X37977110Y10647810D01*
X37977110Y10513062D01*
X39695147Y10513062D01*
X40057077Y10513355D01*
X40377139Y10514230D01*
X40654947Y10515681D01*
X40890112Y10517705D01*
X41082248Y10520295D01*
X41230967Y10523448D01*
X41335881Y10527157D01*
X41396603Y10531417D01*
X41413184Y10535520D01*
X41396094Y10557326D01*
X41390726Y10557978D01*
X41370802Y10576168D01*
X41368268Y10591665D01*
X41355602Y10621543D01*
X41344789Y10625352D01*
X41312127Y10641170D01*
X41268828Y10678466D01*
X41230130Y10722001D01*
X41211271Y10756539D01*
X41211062Y10759079D01*
X41192038Y10764143D01*
X41134437Y10768566D01*
X41037464Y10772360D01*
X40900324Y10775536D01*
X40722224Y10778106D01*
X40502368Y10780082D01*
X40239962Y10781475D01*
X39934211Y10782296D01*
X39594086Y10782558D01*
X37977110Y10782558D01*
X37752530Y10782558D01*
X37752530Y11230697D01*
X37752530Y11838084D01*
X39302132Y11838084D01*
X39318012Y11800550D01*
X39347048Y11793168D01*
X39384582Y11809049D01*
X39391964Y11838084D01*
X39376084Y11875619D01*
X39347048Y11883000D01*
X39309514Y11867120D01*
X39302132Y11838084D01*
X37752530Y11838084D01*
X37752530Y11883000D01*
X38448728Y11883000D01*
X38643634Y11883068D01*
X38798281Y11883477D01*
X38917326Y11884539D01*
X39005426Y11886565D01*
X39067237Y11889866D01*
X39107416Y11894754D01*
X39130620Y11901540D01*
X39141506Y11910535D01*
X39144731Y11922049D01*
X39144926Y11929520D01*
X39158027Y11985266D01*
X39200696Y12020305D01*
X39277983Y12037402D01*
X39347048Y12040206D01*
X39443299Y12035356D01*
X39503379Y12015335D01*
X39535490Y11971944D01*
X39547834Y11896980D01*
X39549170Y11838084D01*
X39541996Y11736288D01*
X39518629Y11672304D01*
X39476305Y11641082D01*
X39438484Y11635962D01*
X39400650Y11622293D01*
X39391964Y11602275D01*
X39374919Y11577360D01*
X39320520Y11568649D01*
X39313361Y11568588D01*
X39261411Y11574484D01*
X39235438Y11588983D01*
X39234758Y11592067D01*
X39220151Y11622552D01*
X39184496Y11665716D01*
X39179634Y11670670D01*
X39124510Y11725794D01*
X38550810Y11725794D01*
X37977110Y11725794D01*
X37977110Y11568588D01*
X37977110Y11411382D01*
X38897888Y11411382D01*
X39818666Y11411382D01*
X39818666Y11332779D01*
X39818666Y11254176D01*
X38897888Y11254176D01*
X37977110Y11254176D01*
X37977110Y11119428D01*
X37977110Y10984680D01*
X38954033Y10984680D01*
X39930956Y10984680D01*
X39930956Y11804397D01*
X39930956Y12624114D01*
X39874811Y12624114D01*
X39832073Y12633390D01*
X39818903Y12669913D01*
X39818666Y12680259D01*
X39810978Y12722465D01*
X39796208Y12736404D01*
X39782903Y12756496D01*
X39774849Y12807414D01*
X39773806Y12837465D01*
G37*
G36*
X40043246Y9354871D02*
G01*
X40052692Y9276371D01*
X40077484Y9217233D01*
X40112309Y9188974D01*
X40120245Y9188040D01*
X40127901Y9208128D01*
X40132491Y9258949D01*
X40133078Y9289101D01*
X40137487Y9355712D01*
X40152477Y9386053D01*
X40166765Y9390162D01*
X40196539Y9408139D01*
X40200452Y9423849D01*
X40206198Y9436174D01*
X40227321Y9445149D01*
X40269645Y9451273D01*
X40338996Y9455045D01*
X40441199Y9456966D01*
X40582081Y9457534D01*
X40593467Y9457536D01*
X40737255Y9457044D01*
X40841960Y9455233D01*
X40913408Y9451605D01*
X40957423Y9445661D01*
X40979832Y9436901D01*
X40986459Y9424825D01*
X40986482Y9423849D01*
X40974355Y9393963D01*
X40964024Y9390162D01*
X40949180Y9370420D01*
X40941760Y9321875D01*
X40941566Y9311559D01*
X40934261Y9253423D01*
X40910947Y9233098D01*
X40907879Y9232956D01*
X40885676Y9219730D01*
X40875562Y9174759D01*
X40874192Y9131895D01*
X40869732Y9071625D01*
X40858446Y9035471D01*
X40851734Y9030834D01*
X40836890Y9011092D01*
X40829470Y8962547D01*
X40829276Y8952231D01*
X40823635Y8900277D01*
X40809765Y8874307D01*
X40806818Y8873628D01*
X40794007Y8853430D01*
X40785876Y8801787D01*
X40784360Y8761338D01*
X40780754Y8690723D01*
X40768268Y8656234D01*
X40750673Y8649048D01*
X40725758Y8632003D01*
X40717047Y8577604D01*
X40716986Y8570445D01*
X40711345Y8518491D01*
X40697475Y8492521D01*
X40694528Y8491842D01*
X40681135Y8471769D01*
X40673101Y8420983D01*
X40672070Y8390781D01*
X40667610Y8330511D01*
X40656324Y8294357D01*
X40649612Y8289720D01*
X40634768Y8269978D01*
X40627348Y8221433D01*
X40627154Y8211117D01*
X40619849Y8152981D01*
X40596535Y8132656D01*
X40593467Y8132514D01*
X40572283Y8120493D01*
X40561936Y8078873D01*
X40559780Y8020224D01*
X40555740Y7956169D01*
X40545412Y7915512D01*
X40537322Y7907934D01*
X40522478Y7888192D01*
X40515058Y7839647D01*
X40514864Y7829331D01*
X40509223Y7777377D01*
X40495353Y7751407D01*
X40492406Y7750728D01*
X40474159Y7731918D01*
X40469948Y7705812D01*
X40467797Y7688788D01*
X40456967Y7676713D01*
X40430892Y7668739D01*
X40383008Y7664019D01*
X40306748Y7661706D01*
X40195548Y7660953D01*
X40121849Y7660896D01*
X39773750Y7660896D01*
X39773750Y7739499D01*
X39769555Y7792655D01*
X39750679Y7814416D01*
X39717605Y7818102D01*
X39679636Y7812229D01*
X39664093Y7785802D01*
X39661460Y7739499D01*
X39661460Y7660896D01*
X39313361Y7660896D01*
X39181428Y7661174D01*
X39087844Y7662571D01*
X39026045Y7665935D01*
X38989465Y7672114D01*
X38971538Y7681954D01*
X38965700Y7696302D01*
X38965262Y7705812D01*
X38955857Y7742306D01*
X38942804Y7750728D01*
X38927960Y7770470D01*
X38920540Y7819015D01*
X38920346Y7829331D01*
X38914705Y7881285D01*
X38900835Y7907255D01*
X38897888Y7907934D01*
X38885077Y7928132D01*
X38876946Y7979775D01*
X38875430Y8020224D01*
X38871824Y8090839D01*
X38859338Y8125329D01*
X38841743Y8132514D01*
X38816827Y8149559D01*
X38808117Y8203958D01*
X38808056Y8211117D01*
X38802415Y8263071D01*
X38788545Y8289041D01*
X38785598Y8289720D01*
X38772205Y8309793D01*
X38764170Y8360579D01*
X38763140Y8390781D01*
X38758679Y8451051D01*
X38747394Y8487205D01*
X38740682Y8491842D01*
X38725838Y8511584D01*
X38718418Y8560129D01*
X38718224Y8570445D01*
X38710919Y8628581D01*
X38687605Y8648906D01*
X38684537Y8649048D01*
X38663352Y8661069D01*
X38653006Y8702689D01*
X38650850Y8761338D01*
X38646810Y8825393D01*
X38636482Y8866050D01*
X38628392Y8873628D01*
X38613548Y8893370D01*
X38606128Y8941916D01*
X38605934Y8952231D01*
X38600293Y9004185D01*
X38586423Y9030155D01*
X38583476Y9030834D01*
X38570083Y9050907D01*
X38562048Y9101693D01*
X38561018Y9131895D01*
X38556609Y9198506D01*
X38541619Y9228847D01*
X38527331Y9232956D01*
X38763140Y9232956D01*
X38763140Y9154353D01*
X38768781Y9102399D01*
X38782651Y9076429D01*
X38785598Y9075750D01*
X38800442Y9056008D01*
X38807862Y9007463D01*
X38808056Y8997147D01*
X38815361Y8939011D01*
X38838675Y8918686D01*
X38841743Y8918544D01*
X38863947Y8905318D01*
X38874060Y8860347D01*
X38875430Y8817483D01*
X38879891Y8757213D01*
X38891176Y8721059D01*
X38897888Y8716422D01*
X38912732Y8696680D01*
X38920152Y8648135D01*
X38920346Y8637819D01*
X38925987Y8585865D01*
X38939857Y8559895D01*
X38942804Y8559216D01*
X38955615Y8539018D01*
X38963746Y8487375D01*
X38965262Y8446926D01*
X38968868Y8376311D01*
X38981354Y8341822D01*
X38998949Y8334636D01*
X39023864Y8317591D01*
X39032575Y8263192D01*
X39032636Y8256033D01*
X39038277Y8204079D01*
X39052147Y8178109D01*
X39055094Y8177430D01*
X39068487Y8157357D01*
X39076521Y8106571D01*
X39077552Y8076369D01*
X39081961Y8009758D01*
X39096951Y7979417D01*
X39111239Y7975308D01*
X39138333Y7955785D01*
X39144926Y7919163D01*
X39146841Y7891317D01*
X39158694Y7874644D01*
X39189650Y7866279D01*
X39248873Y7863359D01*
X39324590Y7863018D01*
X39504254Y7863018D01*
X39504254Y7941621D01*
X39509895Y7993575D01*
X39523765Y8019545D01*
X39526712Y8020224D01*
X39539523Y8040422D01*
X39547654Y8092065D01*
X39549170Y8132514D01*
X39552776Y8203129D01*
X39565262Y8237619D01*
X39582857Y8244804D01*
X39607773Y8261849D01*
X39616483Y8316248D01*
X39616544Y8323407D01*
X39622185Y8375361D01*
X39636055Y8401331D01*
X39639002Y8402010D01*
X39652395Y8422083D01*
X39660430Y8472869D01*
X39661460Y8503071D01*
X39663787Y8565434D01*
X39675226Y8594981D01*
X39702462Y8603746D01*
X39717605Y8604132D01*
X39752251Y8599943D01*
X39768666Y8579354D01*
X39773536Y8530329D01*
X39773750Y8503071D01*
X39778211Y8442801D01*
X39789496Y8406647D01*
X39796208Y8402010D01*
X39811052Y8382268D01*
X39818472Y8333723D01*
X39818666Y8323407D01*
X39825971Y8265271D01*
X39849285Y8244946D01*
X39852353Y8244804D01*
X39873538Y8232783D01*
X39883884Y8191163D01*
X39886040Y8132514D01*
X39890080Y8068459D01*
X39900408Y8027802D01*
X39908498Y8020224D01*
X39923342Y8000482D01*
X39930762Y7951937D01*
X39930956Y7941621D01*
X39930956Y7863018D01*
X40110620Y7863018D01*
X40199726Y7863616D01*
X40253081Y7867320D01*
X40279849Y7876994D01*
X40289194Y7895501D01*
X40290284Y7919163D01*
X40301998Y7964319D01*
X40323971Y7975308D01*
X40346175Y7988534D01*
X40356288Y8033505D01*
X40357658Y8076369D01*
X40362119Y8136639D01*
X40373405Y8172793D01*
X40380116Y8177430D01*
X40394960Y8197172D01*
X40402380Y8245717D01*
X40402574Y8256033D01*
X40409879Y8314169D01*
X40433193Y8334494D01*
X40436261Y8334636D01*
X40457446Y8346657D01*
X40467792Y8388277D01*
X40469948Y8446926D01*
X40473988Y8510981D01*
X40484316Y8551638D01*
X40492406Y8559216D01*
X40507250Y8578958D01*
X40514670Y8627503D01*
X40514864Y8637819D01*
X40520505Y8689773D01*
X40534375Y8715743D01*
X40537322Y8716422D01*
X40550716Y8736495D01*
X40558750Y8787281D01*
X40559780Y8817483D01*
X40564189Y8884094D01*
X40579179Y8914435D01*
X40593467Y8918544D01*
X40618383Y8935589D01*
X40627093Y8989988D01*
X40627154Y8997147D01*
X40632795Y9049101D01*
X40646665Y9075071D01*
X40649612Y9075750D01*
X40664456Y9095492D01*
X40671876Y9144038D01*
X40672070Y9154353D01*
X40672070Y9232956D01*
X40514864Y9232956D01*
X40432248Y9231744D01*
X40384918Y9226280D01*
X40363270Y9213818D01*
X40357702Y9191615D01*
X40357658Y9188040D01*
X40343616Y9151461D01*
X40323971Y9143124D01*
X40302787Y9131103D01*
X40292440Y9089483D01*
X40290284Y9030834D01*
X40286244Y8966779D01*
X40275916Y8926122D01*
X40267826Y8918544D01*
X40254433Y8898471D01*
X40246399Y8847685D01*
X40245368Y8817483D01*
X40240907Y8757213D01*
X40229622Y8721059D01*
X40222910Y8716422D01*
X40210099Y8696224D01*
X40201968Y8644581D01*
X40200452Y8604132D01*
X40196846Y8533517D01*
X40184360Y8499028D01*
X40166765Y8491842D01*
X40144562Y8478616D01*
X40134448Y8433645D01*
X40133078Y8390781D01*
X40128617Y8330511D01*
X40117332Y8294357D01*
X40110620Y8289720D01*
X40093738Y8308939D01*
X40088162Y8345865D01*
X40080474Y8388071D01*
X40065704Y8402010D01*
X40052311Y8422083D01*
X40044277Y8472869D01*
X40043246Y8503071D01*
X40038837Y8569682D01*
X40023847Y8600023D01*
X40009559Y8604132D01*
X39984644Y8621177D01*
X39975933Y8675576D01*
X39975872Y8682735D01*
X39970231Y8734689D01*
X39956361Y8760659D01*
X39953414Y8761338D01*
X39940603Y8781536D01*
X39932472Y8833180D01*
X39930956Y8873628D01*
X39926916Y8937683D01*
X39916588Y8978340D01*
X39908498Y8985918D01*
X39895105Y9005991D01*
X39887071Y9056777D01*
X39886040Y9086979D01*
X39881631Y9153590D01*
X39866641Y9183931D01*
X39852353Y9188040D01*
X39822467Y9200167D01*
X39818666Y9210498D01*
X39798593Y9223892D01*
X39747807Y9231926D01*
X39717605Y9232956D01*
X39657335Y9228496D01*
X39621181Y9217210D01*
X39616544Y9210498D01*
X39598354Y9190574D01*
X39582857Y9188040D01*
X39560653Y9174814D01*
X39550540Y9129843D01*
X39549170Y9086979D01*
X39544709Y9026709D01*
X39533424Y8990555D01*
X39526712Y8985918D01*
X39513901Y8965720D01*
X39505770Y8914077D01*
X39504254Y8873628D01*
X39500214Y8809573D01*
X39489886Y8768916D01*
X39481796Y8761338D01*
X39468403Y8741265D01*
X39460369Y8690479D01*
X39459338Y8660277D01*
X39454929Y8593666D01*
X39439939Y8563325D01*
X39425651Y8559216D01*
X39400736Y8542171D01*
X39392025Y8487772D01*
X39391964Y8480613D01*
X39386323Y8428659D01*
X39372453Y8402689D01*
X39369506Y8402010D01*
X39352624Y8382791D01*
X39347048Y8345865D01*
X39339360Y8303660D01*
X39324590Y8289720D01*
X39311197Y8309793D01*
X39303163Y8360579D01*
X39302132Y8390781D01*
X39297723Y8457392D01*
X39282733Y8487733D01*
X39268445Y8491842D01*
X39247260Y8503863D01*
X39236914Y8545483D01*
X39234758Y8604132D01*
X39230718Y8668187D01*
X39220390Y8708844D01*
X39212300Y8716422D01*
X39198907Y8736495D01*
X39190872Y8787281D01*
X39189842Y8817483D01*
X39185381Y8877753D01*
X39174096Y8913907D01*
X39167384Y8918544D01*
X39154573Y8938742D01*
X39146442Y8990386D01*
X39144926Y9030834D01*
X39141320Y9101449D01*
X39128834Y9135939D01*
X39111239Y9143124D01*
X39083804Y9161847D01*
X39077552Y9188040D01*
X39073311Y9211645D01*
X39054184Y9225168D01*
X39010568Y9231353D01*
X38932860Y9232944D01*
X38920346Y9232956D01*
X38763140Y9232956D01*
X38527331Y9232956D01*
X38502415Y9250001D01*
X38493705Y9304400D01*
X38493644Y9311559D01*
X38488003Y9363513D01*
X38474133Y9389483D01*
X38471186Y9390162D01*
X38451262Y9408352D01*
X38448728Y9423849D01*
X38454474Y9436174D01*
X38475597Y9445149D01*
X38517921Y9451273D01*
X38587272Y9455045D01*
X38689475Y9456966D01*
X38830356Y9457534D01*
X38841743Y9457536D01*
X38985531Y9457044D01*
X39090236Y9455233D01*
X39161684Y9451605D01*
X39205699Y9445661D01*
X39228107Y9436901D01*
X39234735Y9424825D01*
X39234758Y9423849D01*
X39252735Y9394075D01*
X39268445Y9390162D01*
X39290649Y9376936D01*
X39300762Y9331965D01*
X39302132Y9289101D01*
X39304683Y9228810D01*
X39311136Y9192661D01*
X39314965Y9188040D01*
X39349482Y9207654D01*
X39378293Y9255454D01*
X39391820Y9314877D01*
X39391964Y9321184D01*
X39401536Y9375369D01*
X39425651Y9390162D01*
X39455425Y9408139D01*
X39459338Y9423849D01*
X39465845Y9437879D01*
X39489793Y9447495D01*
X39537828Y9453464D01*
X39616593Y9456551D01*
X39732732Y9457525D01*
X39751292Y9457536D01*
X40043246Y9457536D01*
X40043246Y9354871D01*
G37*
D11*
%TO.C,Coil*%
X5520000Y17409748D02*
X5520000Y20182252D01*
X2100000Y17409748D02*
X2100000Y20182252D01*
%TO.C,EN2*%
X46802000Y18862000D02*
X46802000Y20762000D01*
X46802000Y20762000D02*
X48702000Y20762000D01*
X48702000Y20762000D02*
X48702000Y18862000D01*
X48702000Y18862000D02*
X46802000Y18862000D01*
%TO.C,EN1*%
X48702000Y15306000D02*
X46802000Y15306000D01*
X48702000Y17206000D02*
X48702000Y15306000D01*
X46802000Y17206000D02*
X48702000Y17206000D01*
X46802000Y15306000D02*
X46802000Y17206000D01*
%TO.C,U1*%
X24116000Y16134000D02*
X24116000Y17034000D01*
X24116000Y19834000D02*
X24416000Y19834000D01*
X28716000Y16234000D02*
X28716000Y17034000D01*
X28416000Y16234000D02*
X28716000Y16234000D01*
X28716000Y19034000D02*
X28716000Y19834000D01*
X24116000Y19034000D02*
X24116000Y19834000D01*
X28416000Y19834000D02*
X28716000Y19834000D01*
%TO.C,GND*%
X27625000Y2372400D02*
X29525000Y2372400D01*
X27625000Y472400D02*
X27625000Y2372400D01*
X29525000Y472400D02*
X27625000Y472400D01*
X29525000Y2372400D02*
X29525000Y472400D01*
%TO.C,5V*%
X23942000Y2372400D02*
X25842000Y2372400D01*
X23942000Y472400D02*
X23942000Y2372400D01*
X25842000Y472400D02*
X23942000Y472400D01*
X25842000Y2372400D02*
X25842000Y472400D01*
%TO.C,R7*%
X37321258Y20051500D02*
X36846742Y20051500D01*
X37321258Y21096500D02*
X36846742Y21096500D01*
%TO.C,R6*%
X26907258Y27925500D02*
X26432742Y27925500D01*
X26907258Y28970500D02*
X26432742Y28970500D01*
%TO.C,R5*%
X31987258Y25414500D02*
X31512742Y25414500D01*
X31987258Y24369500D02*
X31512742Y24369500D01*
%TO.C,R4*%
X20588500Y9922742D02*
X20588500Y10397258D01*
X19543500Y9922742D02*
X19543500Y10397258D01*
%TO.C,R3*%
X26432742Y27192500D02*
X26907258Y27192500D01*
X26432742Y26147500D02*
X26907258Y26147500D01*
%TO.C,R2*%
X31987258Y23636500D02*
X31512742Y23636500D01*
X31987258Y22591500D02*
X31512742Y22591500D01*
%TO.C,R1*%
X31510500Y20336742D02*
X31510500Y20811258D01*
X30465500Y20336742D02*
X30465500Y20811258D01*
%TO.C,NTC1*%
X36846742Y21829500D02*
X37321258Y21829500D01*
X36846742Y22874500D02*
X37321258Y22874500D01*
%TO.C,D1*%
X19331000Y8343000D02*
X19331000Y6058000D01*
X20801000Y8343000D02*
X19331000Y8343000D01*
X20801000Y6058000D02*
X20801000Y8343000D01*
%TO.C,C15*%
X15492000Y18174580D02*
X15492000Y17893420D01*
X16512000Y18174580D02*
X16512000Y17893420D01*
%TO.C,C14*%
X10527420Y14730000D02*
X10808580Y14730000D01*
X10527420Y15750000D02*
X10808580Y15750000D01*
%TO.C,C13*%
X26810580Y10670000D02*
X26529420Y10670000D01*
X26810580Y9650000D02*
X26529420Y9650000D01*
%TO.C,C12*%
X26810580Y12448000D02*
X26529420Y12448000D01*
X26810580Y11428000D02*
X26529420Y11428000D01*
%TO.C,C11*%
X26810580Y14226000D02*
X26529420Y14226000D01*
X26810580Y13206000D02*
X26529420Y13206000D01*
%TO.C,C10*%
X26810580Y24382000D02*
X26529420Y24382000D01*
X26810580Y25402000D02*
X26529420Y25402000D01*
%TO.C,C9*%
X26810580Y22604000D02*
X26529420Y22604000D01*
X26810580Y23624000D02*
X26529420Y23624000D01*
%TO.C,C8*%
X20576000Y19417420D02*
X20576000Y19698580D01*
X19556000Y19417420D02*
X19556000Y19698580D01*
%TO.C,C7*%
X18798000Y19417420D02*
X18798000Y19698580D01*
X17778000Y19417420D02*
X17778000Y19698580D01*
%TO.C,C6*%
X22354000Y19417420D02*
X22354000Y19698580D01*
X21334000Y19417420D02*
X21334000Y19698580D01*
%TO.C,C5*%
X21334000Y16396580D02*
X21334000Y16115420D01*
X22354000Y16396580D02*
X22354000Y16115420D01*
%TO.C,C4*%
X17778000Y16396580D02*
X17778000Y16115420D01*
X18798000Y16396580D02*
X18798000Y16115420D01*
%TO.C,C3*%
X19556000Y16396580D02*
X19556000Y16115420D01*
X20576000Y16396580D02*
X20576000Y16115420D01*
%TO.C,C2*%
X13016000Y18174580D02*
X13016000Y17893420D01*
X14036000Y18174580D02*
X14036000Y17893420D01*
%TO.C,C1*%
X10527420Y16762000D02*
X10808580Y16762000D01*
X10527420Y17782000D02*
X10808580Y17782000D01*
%TD*%
%LPC*%
D12*
%TO.C,Coil*%
X3810000Y16658500D03*
X3810000Y20933500D03*
%TD*%
D13*
%TO.C,EN2*%
X47751999Y19811999D03*
%TD*%
%TO.C,EN1*%
X47751999Y16255999D03*
%TD*%
D14*
%TO.C,U1*%
X24266000Y17284000D03*
D15*
X24666000Y16384000D03*
X25166000Y16384000D03*
X25666000Y16384000D03*
X26166000Y16384000D03*
X26666000Y16384000D03*
X27166000Y16384000D03*
X27666000Y16384000D03*
X28166000Y16384000D03*
D14*
X28566000Y17284000D03*
X28566000Y18784000D03*
D15*
X28166000Y19684000D03*
X27666000Y19684000D03*
X27166000Y19684000D03*
X26666000Y19684000D03*
X26166000Y19684000D03*
X25666000Y19684000D03*
X25166000Y19684000D03*
X24666000Y19684000D03*
D14*
X24266000Y18784000D03*
D16*
X26416000Y18034000D03*
D17*
X28566000Y18309000D03*
X24266000Y18309000D03*
X28566000Y17759000D03*
X24266000Y17759000D03*
%TD*%
D13*
%TO.C,GND*%
X28574999Y1422399D03*
%TD*%
%TO.C,5V*%
X24891999Y1422399D03*
%TD*%
D18*
%TO.C,R7*%
X36259000Y20574000D03*
X37909000Y20574000D03*
%TD*%
%TO.C,R6*%
X25845000Y28448000D03*
X27495000Y28448000D03*
%TD*%
%TO.C,R5*%
X32575000Y24892000D03*
X30925000Y24892000D03*
%TD*%
D19*
%TO.C,R4*%
X20066000Y9335000D03*
X20066000Y10985000D03*
%TD*%
D20*
%TO.C,R3*%
X27495000Y26670000D03*
X25845000Y26670000D03*
%TD*%
D18*
%TO.C,R2*%
X32575000Y23114000D03*
X30925000Y23114000D03*
%TD*%
D19*
%TO.C,R1*%
X30988000Y19749000D03*
X30988000Y21399000D03*
%TD*%
D20*
%TO.C,NTC1*%
X36259000Y22352000D03*
X37909000Y22352000D03*
%TD*%
D21*
%TO.C,D1*%
X20066000Y7645500D03*
X20066000Y6070500D03*
%TD*%
D22*
%TO.C,C15*%
X16002000Y18809000D03*
X16002000Y17259000D03*
%TD*%
D23*
%TO.C,C14*%
X9893000Y15240000D03*
X11443000Y15240000D03*
%TD*%
D24*
%TO.C,C13*%
X27445000Y10160000D03*
X25895000Y10160000D03*
%TD*%
%TO.C,C12*%
X27445000Y11938000D03*
X25895000Y11938000D03*
%TD*%
%TO.C,C11*%
X27445000Y13716000D03*
X25895000Y13716000D03*
%TD*%
%TO.C,C10*%
X25895000Y24892000D03*
X27445000Y24892000D03*
%TD*%
%TO.C,C9*%
X25895000Y23114000D03*
X27445000Y23114000D03*
%TD*%
D25*
%TO.C,C8*%
X20066000Y18783000D03*
X20066000Y20333000D03*
%TD*%
%TO.C,C7*%
X18288000Y18783000D03*
X18288000Y20333000D03*
%TD*%
%TO.C,C6*%
X21844000Y18783000D03*
X21844000Y20333000D03*
%TD*%
D22*
%TO.C,C5*%
X21844000Y17031000D03*
X21844000Y15481000D03*
%TD*%
%TO.C,C4*%
X18288000Y17031000D03*
X18288000Y15481000D03*
%TD*%
%TO.C,C3*%
X20066000Y17031000D03*
X20066000Y15481000D03*
%TD*%
%TO.C,C2*%
X13526000Y18809000D03*
X13526000Y17259000D03*
%TD*%
D23*
%TO.C,C1*%
X9893000Y17272000D03*
X11443000Y17272000D03*
%TD*%
M02*
