M48
; DRILL file {KiCad (7.0.0)} date Sat Apr 29 18:11:11 2023
; FORMAT={-:-/ absolute / metric / decimal}
; #@! TF.CreationDate,2023-04-29T18:11:11-05:00
; #@! TF.GenerationSoftware,Kicad,Pcbnew,(7.0.0)
; #@! TF.FileFunction,MixedPlating,1,2
FMAT,2
METRIC
; #@! TA.AperFunction,Plated,PTH,ViaDrill
T1C0.300
%
G90
G05
T1
X2.286Y28.702
X2.286Y23.622
X2.286Y13.462
X2.286Y8.382
X2.286Y3.302
X7.366Y28.702
X7.366Y23.622
X7.366Y13.462
X7.366Y8.382
X7.366Y3.302
X12.446Y28.702
X12.446Y23.622
X12.446Y13.462
X12.446Y8.382
X12.446Y3.302
X17.526Y28.702
X17.526Y23.622
X17.526Y13.462
X17.526Y8.382
X17.526Y3.302
X21.844Y10.058
X21.844Y7.595
X22.098Y22.606
X22.352Y13.157
X22.606Y28.702
X22.606Y23.622
X22.606Y3.302
X22.772Y21.982
X23.368Y18.034
X23.571Y13.995
X23.622Y11.43
X23.724Y21.26
X24.384Y21.92
X24.586Y14.877
X25.4Y18.542
X25.4Y17.526
X25.77Y22.098
X26.416Y18.542
X26.416Y17.526
X26.516Y15.111
X26.67Y21.895
X27.322Y21.417
X27.402Y14.984
X27.432Y18.542
X27.432Y17.526
X27.584Y3.226
X27.686Y8.382
X28.448Y24.892
X28.448Y23.114
X28.6Y14.122
X28.6Y13.259
X28.6Y12.344
X28.6Y11.481
X28.6Y10.592
X28.6Y9.677
X28.626Y3.226
X28.702Y14.986
X29.464Y18.034
X29.693Y3.226
X32.766Y28.702
X32.766Y13.462
X32.766Y8.382
X32.766Y3.302
X33.553Y24.892
X33.553Y23.114
X35.814Y18.034
X37.846Y28.702
X37.846Y23.622
X37.846Y13.462
X37.846Y8.382
X37.846Y3.302
X38.862Y22.352
X42.164Y18.034
X42.926Y28.702
X42.926Y23.622
X42.926Y13.462
X42.926Y8.382
X42.926Y3.302
X47.752Y18.034
X48.006Y28.702
X48.006Y23.622
X48.006Y13.462
X48.006Y8.382
X48.006Y3.302
T0
M30
