%TF.GenerationSoftware,KiCad,Pcbnew,(7.0.0)*%
%TF.CreationDate,2023-04-29T18:10:18-05:00*%
%TF.ProjectId,WiHi,57694869-2e6b-4696-9361-645f70636258,-*%
%TF.SameCoordinates,PX795bdf0PY68e3130*%
%TF.FileFunction,Copper,L2,Bot*%
%TF.FilePolarity,Positive*%
%FSLAX46Y46*%
G04 Gerber Fmt 4.6, Leading zero omitted, Abs format (unit mm)*
G04 Created by KiCad (PCBNEW (7.0.0)) date 2023-04-29 18:10:18*
%MOMM*%
%LPD*%
G01*
G04 APERTURE LIST*
%TA.AperFunction,ViaPad*%
%ADD10C,0.600000*%
%TD*%
%TA.AperFunction,Conductor*%
%ADD11C,0.250000*%
%TD*%
G04 APERTURE END LIST*
D10*
%TO.N,GND*%
X21844000Y10058400D03*
X21844000Y7594600D03*
X28448000Y23114000D03*
X28448000Y24892000D03*
%TO.N,/Wireless Power Reciever Qi/Qi_Vout*%
X23622000Y11430000D03*
X22098000Y22606000D03*
%TO.N,GND*%
X38862000Y22352000D03*
X2286000Y13462000D03*
X7366000Y13462000D03*
X12446000Y13462000D03*
X17526000Y13462000D03*
X32766000Y13462000D03*
X27686000Y8382000D03*
X32766000Y8382000D03*
X42926000Y8382000D03*
X37846000Y8382000D03*
X37846000Y13462000D03*
X42926000Y13462000D03*
X48006000Y13462000D03*
X48006000Y8382000D03*
X48006000Y3302000D03*
X42926000Y3302000D03*
X37846000Y3302000D03*
X32766000Y3302000D03*
X22606000Y3302000D03*
X17526000Y8382000D03*
X17526000Y3302000D03*
X12446000Y3302000D03*
X12446000Y8382000D03*
X7366000Y8382000D03*
X7366000Y3302000D03*
X2286000Y3302000D03*
X2286000Y8382000D03*
X2286000Y23622000D03*
X7366000Y23622000D03*
X12446000Y23622000D03*
X17526000Y23622000D03*
X22606000Y23622000D03*
X37846000Y23622000D03*
X42926000Y23622000D03*
X48006000Y23622000D03*
X48006000Y28702000D03*
X42926000Y28702000D03*
X37846000Y28702000D03*
X32766000Y28702000D03*
X22606000Y28702000D03*
X17526000Y28702000D03*
X12446000Y28702000D03*
X7366000Y28702000D03*
X2286000Y28702000D03*
X47752000Y18034000D03*
X42164000Y18034000D03*
X35814000Y18034000D03*
X29464000Y18034000D03*
X23368000Y18034000D03*
X26416000Y17526000D03*
X26416000Y18542000D03*
X25400000Y18542000D03*
X27432000Y18542000D03*
X27432000Y17526000D03*
X25400000Y17526000D03*
%TO.N,/Wireless Power Reciever Qi/COMM2*%
X27322257Y21416761D03*
X22771983Y21981500D03*
%TO.N,/Wireless Power Reciever Qi/CLAMP2*%
X23723600Y21259800D03*
X26670000Y21894800D03*
%TO.N,/Wireless Power Reciever Qi/BOOT2*%
X24384000Y21920200D03*
X25769900Y22098000D03*
%TO.N,GND*%
X28625800Y3225800D03*
X29692600Y3225800D03*
X27584400Y3225800D03*
X33553400Y23114000D03*
X33553400Y24892000D03*
X28600400Y14122400D03*
X28600400Y13258800D03*
X28600400Y12344400D03*
X28600400Y11480800D03*
X28600400Y10591800D03*
X28600400Y9677400D03*
%TO.N,/Wireless Power Reciever Qi/CHG*%
X28702000Y14986000D03*
X22352000Y13157200D03*
%TO.N,/Wireless Power Reciever Qi/COMM1*%
X27402419Y14984335D03*
X23571200Y13995400D03*
%TO.N,/Wireless Power Reciever Qi/CLAMP1*%
X24585746Y14877100D03*
X26516087Y15111487D03*
%TD*%
D11*
%TO.N,/Wireless Power Reciever Qi/CLAMP2*%
X26035000Y21259800D02*
X23723600Y21259800D01*
X26670000Y21894800D02*
X26035000Y21259800D01*
%TO.N,/Wireless Power Reciever Qi/COMM2*%
X22771983Y21144617D02*
X22771983Y21981500D01*
X23291800Y20624800D02*
X22771983Y21144617D01*
X27322257Y21416761D02*
X26530296Y20624800D01*
X26530296Y20624800D02*
X23291800Y20624800D01*
%TO.N,/Wireless Power Reciever Qi/CHG*%
X28287968Y14986000D02*
X26459168Y13157200D01*
X26459168Y13157200D02*
X22352000Y13157200D01*
X28702000Y14986000D02*
X28287968Y14986000D01*
%TO.N,/Wireless Power Reciever Qi/CLAMP1*%
X25101046Y15392400D02*
X24585746Y14877100D01*
X26235174Y15392400D02*
X25101046Y15392400D01*
X26516087Y15111487D02*
X26235174Y15392400D01*
%TO.N,/Wireless Power Reciever Qi/COMM1*%
X26487084Y13970000D02*
X23596600Y13970000D01*
X23596600Y13970000D02*
X23571200Y13995400D01*
X27402419Y14984335D02*
X27402419Y14885335D01*
X27402419Y14885335D02*
X26487084Y13970000D01*
%TO.N,/Wireless Power Reciever Qi/Qi_Vout*%
X21336000Y21844000D02*
X22098000Y22606000D01*
X22860000Y11430000D02*
X21336000Y12954000D01*
X23622000Y11430000D02*
X22860000Y11430000D01*
X21336000Y12954000D02*
X21336000Y21844000D01*
%TO.N,/Wireless Power Reciever Qi/BOOT2*%
X24561800Y22098000D02*
X24384000Y21920200D01*
X25769900Y22098000D02*
X24561800Y22098000D01*
%TD*%
%TA.AperFunction,Conductor*%
%TO.N,GND*%
G36*
X48813500Y32856887D02*
G01*
X48858887Y32811500D01*
X48875500Y32749500D01*
X48875500Y524500D01*
X48858887Y462500D01*
X48813500Y417113D01*
X48751500Y400500D01*
X524500Y400500D01*
X462500Y417113D01*
X417113Y462500D01*
X400500Y524500D01*
X400500Y21863804D01*
X20705840Y21863804D01*
X20706574Y21856039D01*
X20706574Y21856036D01*
X20709950Y21820324D01*
X20710500Y21808655D01*
X20710500Y13031775D01*
X20709978Y13020720D01*
X20708327Y13013333D01*
X20708571Y13005547D01*
X20708571Y13005539D01*
X20710439Y12946127D01*
X20710500Y12942232D01*
X20710500Y12914650D01*
X20710988Y12910781D01*
X20710989Y12910775D01*
X20711004Y12910657D01*
X20711918Y12899034D01*
X20713045Y12863170D01*
X20713046Y12863163D01*
X20713291Y12855373D01*
X20715467Y12847881D01*
X20715468Y12847879D01*
X20718879Y12836138D01*
X20722825Y12817085D01*
X20725336Y12797208D01*
X20728206Y12789958D01*
X20728208Y12789952D01*
X20741414Y12756596D01*
X20745197Y12745549D01*
X20757382Y12703610D01*
X20761353Y12696895D01*
X20761354Y12696893D01*
X20767581Y12686363D01*
X20776136Y12668901D01*
X20780642Y12657520D01*
X20780643Y12657517D01*
X20783514Y12650268D01*
X20795462Y12633823D01*
X20809181Y12614940D01*
X20815593Y12605178D01*
X20833856Y12574298D01*
X20833859Y12574293D01*
X20837830Y12567580D01*
X20843345Y12562066D01*
X20843345Y12562065D01*
X20851990Y12553420D01*
X20864626Y12538626D01*
X20871819Y12528725D01*
X20871823Y12528721D01*
X20876406Y12522413D01*
X20882415Y12517442D01*
X20882416Y12517441D01*
X20910058Y12494574D01*
X20918699Y12486711D01*
X22362707Y11042702D01*
X22370159Y11034513D01*
X22374214Y11028123D01*
X22423223Y10982100D01*
X22426020Y10979389D01*
X22445529Y10959880D01*
X22448709Y10957413D01*
X22457571Y10949845D01*
X22471020Y10937215D01*
X22483732Y10925277D01*
X22483734Y10925276D01*
X22489418Y10919938D01*
X22496251Y10916182D01*
X22496252Y10916181D01*
X22506973Y10910287D01*
X22523234Y10899606D01*
X22539064Y10887327D01*
X22579155Y10869979D01*
X22589635Y10864845D01*
X22627908Y10843803D01*
X22647316Y10838820D01*
X22665719Y10832519D01*
X22676944Y10827661D01*
X22676946Y10827661D01*
X22684104Y10824563D01*
X22727258Y10817729D01*
X22738644Y10815371D01*
X22780981Y10804500D01*
X22801017Y10804500D01*
X22820415Y10802973D01*
X22832486Y10801061D01*
X22832487Y10801061D01*
X22840196Y10799840D01*
X22878276Y10803440D01*
X22883676Y10803950D01*
X22895345Y10804500D01*
X23077145Y10804500D01*
X23143116Y10785495D01*
X23272478Y10704211D01*
X23442745Y10644632D01*
X23622000Y10624435D01*
X23801255Y10644632D01*
X23971522Y10704211D01*
X24124262Y10800184D01*
X24251816Y10927738D01*
X24347789Y11080478D01*
X24407368Y11250745D01*
X24427565Y11430000D01*
X24407368Y11609255D01*
X24347789Y11779522D01*
X24251816Y11932262D01*
X24124262Y12059816D01*
X23971522Y12155789D01*
X23964959Y12158086D01*
X23964956Y12158087D01*
X23807824Y12213070D01*
X23807819Y12213072D01*
X23801255Y12215368D01*
X23794335Y12216148D01*
X23794334Y12216148D01*
X23628923Y12234785D01*
X23622000Y12235565D01*
X23615077Y12234785D01*
X23449665Y12216148D01*
X23449662Y12216148D01*
X23442745Y12215368D01*
X23436182Y12213072D01*
X23436175Y12213070D01*
X23279043Y12158087D01*
X23279036Y12158085D01*
X23272478Y12155789D01*
X23266593Y12152092D01*
X23266582Y12152086D01*
X23200418Y12110512D01*
X23148330Y12092286D01*
X23093492Y12098465D01*
X23046766Y12127825D01*
X22854572Y12320019D01*
X22824322Y12369382D01*
X22819780Y12427098D01*
X22841935Y12480585D01*
X22885958Y12518185D01*
X22942253Y12531700D01*
X26381393Y12531700D01*
X26392448Y12531179D01*
X26399835Y12529527D01*
X26467040Y12531639D01*
X26470936Y12531700D01*
X26494616Y12531700D01*
X26498518Y12531700D01*
X26502481Y12532201D01*
X26514131Y12533120D01*
X26557795Y12534491D01*
X26577029Y12540081D01*
X26596085Y12544026D01*
X26615960Y12546536D01*
X26656563Y12562613D01*
X26667618Y12566398D01*
X26709558Y12578582D01*
X26726797Y12588778D01*
X26744271Y12597338D01*
X26755642Y12601840D01*
X26755644Y12601842D01*
X26762900Y12604714D01*
X26798237Y12630389D01*
X26807992Y12636797D01*
X26845588Y12659030D01*
X26859752Y12673195D01*
X26874547Y12685832D01*
X26890755Y12697606D01*
X26918596Y12731262D01*
X26926447Y12739891D01*
X28367235Y14180679D01*
X28427323Y14213887D01*
X28495866Y14210038D01*
X28522745Y14200632D01*
X28702000Y14180435D01*
X28881255Y14200632D01*
X29051522Y14260211D01*
X29204262Y14356184D01*
X29331816Y14483738D01*
X29427789Y14636478D01*
X29487368Y14806745D01*
X29507565Y14986000D01*
X29487368Y15165255D01*
X29427789Y15335522D01*
X29331816Y15488262D01*
X29204262Y15615816D01*
X29128774Y15663248D01*
X29057412Y15708088D01*
X29051522Y15711789D01*
X29044959Y15714086D01*
X29044956Y15714087D01*
X28887824Y15769070D01*
X28887819Y15769072D01*
X28881255Y15771368D01*
X28874335Y15772148D01*
X28874334Y15772148D01*
X28708923Y15790785D01*
X28702000Y15791565D01*
X28695077Y15790785D01*
X28529665Y15772148D01*
X28529662Y15772148D01*
X28522745Y15771368D01*
X28516182Y15769072D01*
X28516175Y15769070D01*
X28359043Y15714087D01*
X28359036Y15714085D01*
X28352478Y15711789D01*
X28346594Y15708092D01*
X28346586Y15708088D01*
X28202347Y15617456D01*
X28170911Y15603356D01*
X28170042Y15603104D01*
X28151055Y15599177D01*
X28138917Y15597643D01*
X28138909Y15597642D01*
X28131176Y15596664D01*
X28123928Y15593795D01*
X28123922Y15593793D01*
X28090565Y15580587D01*
X28079522Y15576806D01*
X28043407Y15566312D01*
X27977972Y15565282D01*
X27921126Y15597706D01*
X27909609Y15609223D01*
X27904681Y15614151D01*
X27751941Y15710124D01*
X27745378Y15712421D01*
X27745375Y15712422D01*
X27588243Y15767405D01*
X27588238Y15767407D01*
X27581674Y15769703D01*
X27574754Y15770483D01*
X27574753Y15770483D01*
X27409342Y15789120D01*
X27402419Y15789900D01*
X27395496Y15789120D01*
X27230084Y15770483D01*
X27230081Y15770483D01*
X27223164Y15769703D01*
X27216599Y15767406D01*
X27216591Y15767404D01*
X27118941Y15733235D01*
X27064103Y15727057D01*
X27012015Y15745283D01*
X26871500Y15833575D01*
X26871496Y15833577D01*
X26865609Y15837276D01*
X26859046Y15839573D01*
X26859043Y15839574D01*
X26701912Y15894556D01*
X26695342Y15896855D01*
X26688422Y15897635D01*
X26688421Y15897635D01*
X26624693Y15904816D01*
X26569527Y15927232D01*
X26568989Y15926321D01*
X26562887Y15929930D01*
X26562581Y15930054D01*
X26562272Y15930293D01*
X26562273Y15930293D01*
X26556110Y15935073D01*
X26548953Y15938171D01*
X26548950Y15938172D01*
X26516023Y15952422D01*
X26505537Y15957559D01*
X26474106Y15974838D01*
X26474097Y15974842D01*
X26467266Y15978597D01*
X26459709Y15980538D01*
X26459705Y15980539D01*
X26447862Y15983580D01*
X26429458Y15989881D01*
X26418231Y15994740D01*
X26418224Y15994742D01*
X26411070Y15997838D01*
X26403366Y15999059D01*
X26403364Y15999059D01*
X26367933Y16004671D01*
X26356498Y16007039D01*
X26321745Y16015962D01*
X26321737Y16015963D01*
X26314193Y16017900D01*
X26306397Y16017900D01*
X26294157Y16017900D01*
X26274771Y16019426D01*
X26254978Y16022560D01*
X26247212Y16021826D01*
X26247209Y16021826D01*
X26211498Y16018450D01*
X26199829Y16017900D01*
X25178817Y16017900D01*
X25167764Y16018421D01*
X25160378Y16020072D01*
X25152580Y16019827D01*
X25093190Y16017961D01*
X25089296Y16017900D01*
X25061696Y16017900D01*
X25057845Y16017414D01*
X25057814Y16017412D01*
X25057686Y16017395D01*
X25046075Y16016482D01*
X25010218Y16015355D01*
X25010211Y16015354D01*
X25002419Y16015109D01*
X24994934Y16012935D01*
X24994918Y16012932D01*
X24983172Y16009519D01*
X24964129Y16005575D01*
X24951995Y16004042D01*
X24951994Y16004042D01*
X24944254Y16003064D01*
X24937004Y16000195D01*
X24936997Y16000192D01*
X24903644Y15986987D01*
X24892600Y15983206D01*
X24858151Y15973197D01*
X24858141Y15973193D01*
X24850656Y15971018D01*
X24843946Y15967051D01*
X24843944Y15967049D01*
X24840551Y15965043D01*
X24833406Y15960817D01*
X24815946Y15952264D01*
X24797314Y15944886D01*
X24791011Y15940308D01*
X24791004Y15940303D01*
X24761985Y15919219D01*
X24752225Y15912808D01*
X24721340Y15894543D01*
X24721330Y15894536D01*
X24714625Y15890570D01*
X24709109Y15885055D01*
X24709106Y15885052D01*
X24700453Y15876400D01*
X24685670Y15863774D01*
X24675773Y15856583D01*
X24675766Y15856577D01*
X24669459Y15851994D01*
X24664492Y15845992D01*
X24664481Y15845980D01*
X24641616Y15818341D01*
X24633756Y15809703D01*
X24527365Y15703312D01*
X24493486Y15679273D01*
X24453569Y15667773D01*
X24413412Y15663248D01*
X24413410Y15663248D01*
X24406491Y15662468D01*
X24399922Y15660170D01*
X24399920Y15660169D01*
X24242789Y15605187D01*
X24242782Y15605185D01*
X24236224Y15602889D01*
X24230336Y15599190D01*
X24230333Y15599188D01*
X24089384Y15510624D01*
X24089379Y15510621D01*
X24083484Y15506916D01*
X24078559Y15501992D01*
X24078555Y15501988D01*
X23960858Y15384291D01*
X23960854Y15384287D01*
X23955930Y15379362D01*
X23952225Y15373467D01*
X23952222Y15373462D01*
X23863658Y15232513D01*
X23863656Y15232510D01*
X23859957Y15226622D01*
X23857661Y15220064D01*
X23857659Y15220057D01*
X23802676Y15062925D01*
X23802674Y15062918D01*
X23800378Y15056355D01*
X23799598Y15049438D01*
X23799598Y15049435D01*
X23782973Y14901888D01*
X23759523Y14842138D01*
X23709340Y14802118D01*
X23645870Y14792552D01*
X23578123Y14800185D01*
X23571200Y14800965D01*
X23564277Y14800185D01*
X23398865Y14781548D01*
X23398862Y14781548D01*
X23391945Y14780768D01*
X23385382Y14778472D01*
X23385375Y14778470D01*
X23228243Y14723487D01*
X23228236Y14723485D01*
X23221678Y14721189D01*
X23215790Y14717490D01*
X23215787Y14717488D01*
X23074838Y14628924D01*
X23074833Y14628921D01*
X23068938Y14625216D01*
X23064013Y14620292D01*
X23064009Y14620288D01*
X22946312Y14502591D01*
X22946308Y14502587D01*
X22941384Y14497662D01*
X22937679Y14491767D01*
X22937676Y14491762D01*
X22849112Y14350813D01*
X22849110Y14350810D01*
X22845411Y14344922D01*
X22843115Y14338364D01*
X22843113Y14338357D01*
X22788130Y14181225D01*
X22788128Y14181218D01*
X22785832Y14174655D01*
X22785052Y14167740D01*
X22785052Y14167736D01*
X22768427Y14020184D01*
X22750201Y13968096D01*
X22711179Y13929074D01*
X22659091Y13910848D01*
X22604253Y13917026D01*
X22537827Y13940269D01*
X22537821Y13940271D01*
X22531255Y13942568D01*
X22524335Y13943348D01*
X22524334Y13943348D01*
X22358923Y13961985D01*
X22352000Y13962765D01*
X22345077Y13961985D01*
X22179665Y13943348D01*
X22179662Y13943348D01*
X22172745Y13942568D01*
X22166183Y13940273D01*
X22166170Y13940269D01*
X22126456Y13926371D01*
X22068167Y13920629D01*
X22013745Y13942282D01*
X21975333Y13986498D01*
X21961500Y14043412D01*
X21961500Y20833724D01*
X21979570Y20898182D01*
X22028513Y20943853D01*
X22094065Y20957428D01*
X22157120Y20934949D01*
X22191205Y20892946D01*
X22193367Y20894224D01*
X22203564Y20876980D01*
X22212119Y20859518D01*
X22216625Y20848137D01*
X22216626Y20848134D01*
X22219497Y20840885D01*
X22224700Y20833724D01*
X22245164Y20805557D01*
X22251576Y20795795D01*
X22269839Y20764915D01*
X22269842Y20764910D01*
X22273813Y20758197D01*
X22279328Y20752683D01*
X22279328Y20752682D01*
X22287973Y20744037D01*
X22300609Y20729243D01*
X22307802Y20719342D01*
X22307806Y20719338D01*
X22312389Y20713030D01*
X22318398Y20708059D01*
X22318399Y20708058D01*
X22346041Y20685191D01*
X22354682Y20677328D01*
X22794506Y20237504D01*
X22801958Y20229315D01*
X22806014Y20222923D01*
X22811698Y20217585D01*
X22811700Y20217583D01*
X22855023Y20176900D01*
X22857820Y20174189D01*
X22877329Y20154680D01*
X22880509Y20152213D01*
X22889371Y20144645D01*
X22902680Y20132146D01*
X22915532Y20120077D01*
X22915534Y20120076D01*
X22921218Y20114738D01*
X22928051Y20110982D01*
X22928052Y20110981D01*
X22938773Y20105087D01*
X22955034Y20094406D01*
X22970864Y20082127D01*
X23010955Y20064779D01*
X23021435Y20059645D01*
X23059708Y20038603D01*
X23079116Y20033620D01*
X23097519Y20027319D01*
X23108744Y20022461D01*
X23108746Y20022461D01*
X23115904Y20019363D01*
X23159058Y20012529D01*
X23170444Y20010171D01*
X23212781Y19999300D01*
X23232817Y19999300D01*
X23252215Y19997773D01*
X23264286Y19995861D01*
X23264287Y19995861D01*
X23271996Y19994640D01*
X23310076Y19998240D01*
X23315476Y19998750D01*
X23327145Y19999300D01*
X26452521Y19999300D01*
X26463576Y19998779D01*
X26470963Y19997127D01*
X26538168Y19999239D01*
X26542064Y19999300D01*
X26565744Y19999300D01*
X26569646Y19999300D01*
X26573609Y19999801D01*
X26585259Y20000720D01*
X26628923Y20002091D01*
X26648157Y20007681D01*
X26667213Y20011626D01*
X26687088Y20014136D01*
X26727691Y20030213D01*
X26738746Y20033998D01*
X26780686Y20046182D01*
X26797925Y20056378D01*
X26815399Y20064938D01*
X26826770Y20069440D01*
X26826772Y20069442D01*
X26834028Y20072314D01*
X26869365Y20097989D01*
X26879120Y20104397D01*
X26916716Y20126630D01*
X26930880Y20140795D01*
X26945675Y20153432D01*
X26961883Y20165206D01*
X26989724Y20198862D01*
X26997575Y20207491D01*
X27380638Y20590553D01*
X27414515Y20614589D01*
X27454433Y20626089D01*
X27501512Y20631393D01*
X27671779Y20690972D01*
X27824519Y20786945D01*
X27952073Y20914499D01*
X28048046Y21067239D01*
X28107625Y21237506D01*
X28127822Y21416761D01*
X28107625Y21596016D01*
X28048046Y21766283D01*
X27952073Y21919023D01*
X27824519Y22046577D01*
X27818011Y22050666D01*
X27677669Y22138849D01*
X27671779Y22142550D01*
X27665216Y22144847D01*
X27665213Y22144848D01*
X27508082Y22199830D01*
X27501512Y22202129D01*
X27494594Y22202909D01*
X27494592Y22202909D01*
X27475601Y22205049D01*
X27423515Y22223276D01*
X27384495Y22262297D01*
X27303523Y22391162D01*
X27299816Y22397062D01*
X27172262Y22524616D01*
X27019522Y22620589D01*
X27012959Y22622886D01*
X27012956Y22622887D01*
X26855824Y22677870D01*
X26855819Y22677872D01*
X26849255Y22680168D01*
X26842335Y22680948D01*
X26842334Y22680948D01*
X26676923Y22699585D01*
X26670000Y22700365D01*
X26663077Y22699585D01*
X26497668Y22680949D01*
X26497659Y22680948D01*
X26490745Y22680168D01*
X26484179Y22677871D01*
X26484168Y22677868D01*
X26437658Y22661593D01*
X26369112Y22657744D01*
X26309024Y22690954D01*
X26277090Y22722888D01*
X26272162Y22727816D01*
X26119422Y22823789D01*
X26112859Y22826086D01*
X26112856Y22826087D01*
X25955724Y22881070D01*
X25955719Y22881072D01*
X25949155Y22883368D01*
X25942235Y22884148D01*
X25942234Y22884148D01*
X25776823Y22902785D01*
X25769900Y22903565D01*
X25762977Y22902785D01*
X25597565Y22884148D01*
X25597562Y22884148D01*
X25590645Y22883368D01*
X25584082Y22881072D01*
X25584075Y22881070D01*
X25426943Y22826087D01*
X25426936Y22826085D01*
X25420378Y22823789D01*
X25414490Y22820090D01*
X25414487Y22820088D01*
X25291017Y22742506D01*
X25225045Y22723500D01*
X24639572Y22723500D01*
X24628519Y22724021D01*
X24621133Y22725672D01*
X24613335Y22725427D01*
X24553945Y22723561D01*
X24550051Y22723500D01*
X24522450Y22723500D01*
X24518599Y22723014D01*
X24518568Y22723012D01*
X24518440Y22722995D01*
X24506829Y22722082D01*
X24470964Y22720954D01*
X24470963Y22720954D01*
X24463173Y22720709D01*
X24462512Y22720518D01*
X24435879Y22719921D01*
X24384000Y22725765D01*
X24377077Y22724985D01*
X24211665Y22706348D01*
X24211662Y22706348D01*
X24204745Y22705568D01*
X24198182Y22703272D01*
X24198175Y22703270D01*
X24041043Y22648287D01*
X24041036Y22648285D01*
X24034478Y22645989D01*
X24028590Y22642290D01*
X24028587Y22642288D01*
X23887638Y22553724D01*
X23887633Y22553721D01*
X23881738Y22550016D01*
X23876813Y22545092D01*
X23876809Y22545088D01*
X23759112Y22427391D01*
X23759108Y22427387D01*
X23754184Y22422462D01*
X23750481Y22416570D01*
X23750474Y22416560D01*
X23702243Y22339800D01*
X23657231Y22297245D01*
X23597250Y22281773D01*
X23537269Y22297245D01*
X23492256Y22339801D01*
X23405506Y22477862D01*
X23401799Y22483762D01*
X23274245Y22611316D01*
X23235183Y22635860D01*
X23140966Y22695061D01*
X23121505Y22707289D01*
X23114942Y22709586D01*
X23114939Y22709587D01*
X22957803Y22764571D01*
X22957801Y22764572D01*
X22951238Y22766868D01*
X22949510Y22767063D01*
X22896553Y22794420D01*
X22862138Y22845926D01*
X22841969Y22903565D01*
X22823789Y22955522D01*
X22727816Y23108262D01*
X22600262Y23235816D01*
X22447522Y23331789D01*
X22440959Y23334086D01*
X22440956Y23334087D01*
X22283824Y23389070D01*
X22283819Y23389072D01*
X22277255Y23391368D01*
X22270335Y23392148D01*
X22270334Y23392148D01*
X22104923Y23410785D01*
X22098000Y23411565D01*
X22091077Y23410785D01*
X21925665Y23392148D01*
X21925662Y23392148D01*
X21918745Y23391368D01*
X21912182Y23389072D01*
X21912175Y23389070D01*
X21755043Y23334087D01*
X21755036Y23334085D01*
X21748478Y23331789D01*
X21742590Y23328090D01*
X21742587Y23328088D01*
X21601638Y23239524D01*
X21601633Y23239521D01*
X21595738Y23235816D01*
X21590813Y23230892D01*
X21590809Y23230888D01*
X21473112Y23113191D01*
X21473108Y23113187D01*
X21468184Y23108262D01*
X21464479Y23102367D01*
X21464476Y23102362D01*
X21375912Y22961413D01*
X21375910Y22961410D01*
X21372211Y22955522D01*
X21369915Y22948964D01*
X21369913Y22948957D01*
X21315839Y22794420D01*
X21312632Y22785255D01*
X21311852Y22778336D01*
X21311852Y22778334D01*
X21307327Y22738177D01*
X21295827Y22698260D01*
X21271788Y22664381D01*
X20948696Y22341289D01*
X20940511Y22333841D01*
X20934123Y22329786D01*
X20928788Y22324106D01*
X20928783Y22324101D01*
X20888096Y22280775D01*
X20885392Y22277984D01*
X20868628Y22261220D01*
X20868621Y22261213D01*
X20865880Y22258471D01*
X20863500Y22255404D01*
X20863489Y22255391D01*
X20863400Y22255275D01*
X20855842Y22246430D01*
X20831280Y22220273D01*
X20831273Y22220264D01*
X20825938Y22214582D01*
X20822182Y22207751D01*
X20822179Y22207746D01*
X20816285Y22197025D01*
X20805609Y22180773D01*
X20798109Y22171104D01*
X20798101Y22171093D01*
X20793327Y22164936D01*
X20790234Y22157792D01*
X20790229Y22157781D01*
X20775974Y22124840D01*
X20770838Y22114357D01*
X20749803Y22076092D01*
X20747864Y22068544D01*
X20747863Y22068539D01*
X20744822Y22056693D01*
X20738521Y22038289D01*
X20733658Y22027052D01*
X20733656Y22027048D01*
X20730562Y22019896D01*
X20729342Y22012197D01*
X20729342Y22012195D01*
X20723729Y21976759D01*
X20721361Y21965324D01*
X20712438Y21930572D01*
X20712436Y21930564D01*
X20710500Y21923019D01*
X20710500Y21915223D01*
X20710500Y21902983D01*
X20708974Y21883598D01*
X20705840Y21863804D01*
X400500Y21863804D01*
X400500Y32749500D01*
X417113Y32811500D01*
X462500Y32856887D01*
X524500Y32873500D01*
X48751500Y32873500D01*
X48813500Y32856887D01*
G37*
%TD.AperFunction*%
%TD*%
M02*
