%TF.GenerationSoftware,KiCad,Pcbnew,(7.0.0)*%
%TF.CreationDate,2023-04-29T18:10:18-05:00*%
%TF.ProjectId,WiHi,57694869-2e6b-4696-9361-645f70636258,-*%
%TF.SameCoordinates,PX795bdf0PY68e3130*%
%TF.FileFunction,Soldermask,Top*%
%TF.FilePolarity,Negative*%
%FSLAX46Y46*%
G04 Gerber Fmt 4.6, Leading zero omitted, Abs format (unit mm)*
G04 Created by KiCad (PCBNEW (7.0.0)) date 2023-04-29 18:10:18*
%MOMM*%
%LPD*%
G01*
G04 APERTURE LIST*
G04 Aperture macros list*
%AMRoundRect*
0 Rectangle with rounded corners*
0 $1 Rounding radius*
0 $2 $3 $4 $5 $6 $7 $8 $9 X,Y pos of 4 corners*
0 Add a 4 corners polygon primitive as box body*
4,1,4,$2,$3,$4,$5,$6,$7,$8,$9,$2,$3,0*
0 Add four circle primitives for the rounded corners*
1,1,$1+$1,$2,$3*
1,1,$1+$1,$4,$5*
1,1,$1+$1,$6,$7*
1,1,$1+$1,$8,$9*
0 Add four rect primitives between the rounded corners*
20,1,$1+$1,$2,$3,$4,$5,0*
20,1,$1+$1,$4,$5,$6,$7,0*
20,1,$1+$1,$6,$7,$8,$9,0*
20,1,$1+$1,$8,$9,$2,$3,0*%
%AMFreePoly0*
4,1,13,0.375000,1.525000,1.025000,1.525000,1.025000,-1.525000,0.375000,-1.525000,0.375000,-1.925000,-0.375000,-1.925000,-0.375000,-1.525000,-1.025000,-1.525000,-1.025000,1.525000,-0.375000,1.525000,-0.375000,1.925000,0.375000,1.925000,0.375000,1.525000,0.375000,1.525000,$1*%
G04 Aperture macros list end*
%ADD10RoundRect,0.250000X1.450000X-0.312500X1.450000X0.312500X-1.450000X0.312500X-1.450000X-0.312500X0*%
%ADD11R,1.500000X1.500000*%
%ADD12RoundRect,0.050400X0.249600X-0.069600X0.249600X0.069600X-0.249600X0.069600X-0.249600X-0.069600X0*%
%ADD13RoundRect,0.050400X0.069600X-0.249600X0.069600X0.249600X-0.069600X0.249600X-0.069600X-0.249600X0*%
%ADD14FreePoly0,90.000000*%
%ADD15RoundRect,0.050000X0.250000X-0.050000X0.250000X0.050000X-0.250000X0.050000X-0.250000X-0.050000X0*%
%ADD16RoundRect,0.200000X0.200000X0.275000X-0.200000X0.275000X-0.200000X-0.275000X0.200000X-0.275000X0*%
%ADD17RoundRect,0.200000X0.275000X-0.200000X0.275000X0.200000X-0.275000X0.200000X-0.275000X-0.200000X0*%
%ADD18RoundRect,0.200000X-0.200000X-0.275000X0.200000X-0.275000X0.200000X0.275000X-0.200000X0.275000X0*%
%ADD19RoundRect,0.218750X-0.256250X0.218750X-0.256250X-0.218750X0.256250X-0.218750X0.256250X0.218750X0*%
%ADD20RoundRect,0.225000X-0.250000X0.225000X-0.250000X-0.225000X0.250000X-0.225000X0.250000X0.225000X0*%
%ADD21RoundRect,0.225000X-0.225000X-0.250000X0.225000X-0.250000X0.225000X0.250000X-0.225000X0.250000X0*%
%ADD22RoundRect,0.225000X0.225000X0.250000X-0.225000X0.250000X-0.225000X-0.250000X0.225000X-0.250000X0*%
%ADD23RoundRect,0.225000X0.250000X-0.225000X0.250000X0.225000X-0.250000X0.225000X-0.250000X-0.225000X0*%
G04 APERTURE END LIST*
D10*
%TO.C,Coil*%
X3810000Y16658500D03*
X3810000Y20933500D03*
%TD*%
D11*
%TO.C,EN2*%
X47751999Y19811999D03*
%TD*%
%TO.C,EN1*%
X47751999Y16255999D03*
%TD*%
D12*
%TO.C,U1*%
X24266000Y17284000D03*
D13*
X24666000Y16384000D03*
X25166000Y16384000D03*
X25666000Y16384000D03*
X26166000Y16384000D03*
X26666000Y16384000D03*
X27166000Y16384000D03*
X27666000Y16384000D03*
X28166000Y16384000D03*
D12*
X28566000Y17284000D03*
X28566000Y18784000D03*
D13*
X28166000Y19684000D03*
X27666000Y19684000D03*
X27166000Y19684000D03*
X26666000Y19684000D03*
X26166000Y19684000D03*
X25666000Y19684000D03*
X25166000Y19684000D03*
X24666000Y19684000D03*
D12*
X24266000Y18784000D03*
D14*
X26416000Y18034000D03*
D15*
X28566000Y18309000D03*
X24266000Y18309000D03*
X28566000Y17759000D03*
X24266000Y17759000D03*
%TD*%
D11*
%TO.C,GND*%
X28574999Y1422399D03*
%TD*%
%TO.C,5V*%
X24891999Y1422399D03*
%TD*%
D16*
%TO.C,R7*%
X36259000Y20574000D03*
X37909000Y20574000D03*
%TD*%
%TO.C,R6*%
X25845000Y28448000D03*
X27495000Y28448000D03*
%TD*%
%TO.C,R5*%
X32575000Y24892000D03*
X30925000Y24892000D03*
%TD*%
D17*
%TO.C,R4*%
X20066000Y9335000D03*
X20066000Y10985000D03*
%TD*%
D18*
%TO.C,R3*%
X27495000Y26670000D03*
X25845000Y26670000D03*
%TD*%
D16*
%TO.C,R2*%
X32575000Y23114000D03*
X30925000Y23114000D03*
%TD*%
D17*
%TO.C,R1*%
X30988000Y19749000D03*
X30988000Y21399000D03*
%TD*%
D18*
%TO.C,NTC1*%
X36259000Y22352000D03*
X37909000Y22352000D03*
%TD*%
D19*
%TO.C,D1*%
X20066000Y7645500D03*
X20066000Y6070500D03*
%TD*%
D20*
%TO.C,C15*%
X16002000Y18809000D03*
X16002000Y17259000D03*
%TD*%
D21*
%TO.C,C14*%
X9893000Y15240000D03*
X11443000Y15240000D03*
%TD*%
D22*
%TO.C,C13*%
X27445000Y10160000D03*
X25895000Y10160000D03*
%TD*%
%TO.C,C12*%
X27445000Y11938000D03*
X25895000Y11938000D03*
%TD*%
%TO.C,C11*%
X27445000Y13716000D03*
X25895000Y13716000D03*
%TD*%
%TO.C,C10*%
X25895000Y24892000D03*
X27445000Y24892000D03*
%TD*%
%TO.C,C9*%
X25895000Y23114000D03*
X27445000Y23114000D03*
%TD*%
D23*
%TO.C,C8*%
X20066000Y18783000D03*
X20066000Y20333000D03*
%TD*%
%TO.C,C7*%
X18288000Y18783000D03*
X18288000Y20333000D03*
%TD*%
%TO.C,C6*%
X21844000Y18783000D03*
X21844000Y20333000D03*
%TD*%
D20*
%TO.C,C5*%
X21844000Y17031000D03*
X21844000Y15481000D03*
%TD*%
%TO.C,C4*%
X18288000Y17031000D03*
X18288000Y15481000D03*
%TD*%
%TO.C,C3*%
X20066000Y17031000D03*
X20066000Y15481000D03*
%TD*%
%TO.C,C2*%
X13526000Y18809000D03*
X13526000Y17259000D03*
%TD*%
D21*
%TO.C,C1*%
X9893000Y17272000D03*
X11443000Y17272000D03*
%TD*%
M02*
